<svg width="292" height="292" viewBox="0 0 292 292" fill="none" xmlns="http://www.w3.org/2000/svg">
<path opacity="0.7" d="M39.671 97.5804C39.671 97.5804 23.3891 139.628 46.2702 181.968C69.1513 224.308 116.28 246.676 154.001 265.802C191.721 284.928 230.89 275.613 249.502 244.287C268.114 212.961 242.588 190.6 242.553 145.93C242.518 101.26 249.239 89.4336 225.033 51.6956C200.826 13.9575 141.486 5.60044 96.611 33.5916C51.7365 61.5827 39.671 97.5804 39.671 97.5804Z" fill="white"/>
<path d="M37.1949 81.2693C52.7935 50.9948 81.7599 28.0903 117.822 24.8666C142.625 22.704 167.344 29.8555 187.16 44.927C197.007 52.519 205.755 62.1842 211.566 73.216C218.235 85.8888 220.18 100.5 227.042 113.115C235.574 128.795 251.599 135.266 262.362 148.815C271.221 159.975 274.264 174.931 273.248 189.146C271.391 215.093 256.189 239.726 233.828 253.024C214.924 264.266 192.136 267.367 170.172 266.345C136.3 264.774 102.58 253.602 75.9024 232.677C49.2253 211.752 30.0526 180.818 25.5091 147.22C22.4197 124.392 26.9107 101.225 37.1949 81.2693Z" fill="#92E3A9"/>
<path opacity="0.7" d="M37.1949 81.2693C52.7935 50.9948 81.7599 28.0903 117.822 24.8666C142.625 22.704 167.344 29.8555 187.16 44.927C197.007 52.519 205.755 62.1842 211.566 73.216C218.235 85.8888 220.18 100.5 227.042 113.115C235.574 128.795 251.599 135.266 262.362 148.815C271.221 159.975 274.264 174.931 273.248 189.146C271.391 215.093 256.189 239.726 233.828 253.024C214.924 264.266 192.136 267.367 170.172 266.345C136.3 264.774 102.58 253.602 75.9024 232.677C49.2253 211.752 30.0526 180.818 25.5091 147.22C22.4197 124.392 26.9107 101.225 37.1949 81.2693Z" fill="white"/>
<path d="M26.9049 92.336C27.594 95.0691 27.2553 90.0408 28.6043 83.8972C29.9534 77.7535 32.2719 80.2413 32.2719 80.2413" stroke="#263238" stroke-linecap="round" stroke-linejoin="round"/>
<path d="M26.4844 86.0582L30.7184 84.3237" stroke="#263238" stroke-linecap="round" stroke-linejoin="round"/>
<path d="M34.2166 82.2388C34.2166 82.2388 31.6878 87.4948 35.5014 89.7023" stroke="#263238" stroke-linecap="round" stroke-linejoin="round"/>
<path d="M37.8081 80.7671C37.8081 80.7671 41.9895 83.1031 39.3732 88.1138" stroke="#263238" stroke-linecap="round" stroke-linejoin="round"/>
<path d="M34.9465 84.0142L37.9425 86.1983" stroke="#263238" stroke-linecap="round" stroke-linejoin="round"/>
<path d="M37.2942 83.0508L34.9524 86.7825" stroke="#263238" stroke-linecap="round" stroke-linejoin="round"/>
<path d="M50.7479 138.982C51.3177 135.51 48.9648 132.233 45.4924 131.663C42.02 131.093 38.7431 133.446 38.1732 136.919C37.6033 140.391 39.9563 143.668 43.4287 144.238C46.9011 144.808 50.178 142.455 50.7479 138.982Z" stroke="#263238" stroke-linecap="round" stroke-linejoin="round"/>
<path d="M54.5272 147.365C58.3503 146.581 60.8139 142.846 60.0298 139.023C59.2458 135.2 55.5109 132.737 51.6878 133.521C47.8647 134.305 45.4011 138.04 46.1852 141.863C46.9693 145.686 50.7041 148.149 54.5272 147.365Z" stroke="#263238" stroke-linecap="round" stroke-linejoin="round"/>
<path d="M50.2648 135.318L47.3331 136.364" stroke="#263238" stroke-linecap="round" stroke-linejoin="round"/>
<path d="M50.6736 136.527L46.4572 138.052" stroke="#263238" stroke-linecap="round" stroke-linejoin="round"/>
<path d="M50.8313 137.987L46.1243 139.798" stroke="#263238" stroke-linecap="round" stroke-linejoin="round"/>
<path d="M50.4985 139.979L46.2061 141.941" stroke="#263238" stroke-linecap="round" stroke-linejoin="round"/>
<path d="M49.7393 141.509L46.4806 142.864" stroke="#263238" stroke-linecap="round" stroke-linejoin="round"/>
<path d="M47.5376 128.24C47.3565 127.656 45.2892 127.294 45.2016 128.824C45.114 130.354 47.3799 129.081 48.0223 128.24C48.0223 128.24 46.8543 129.811 47.3448 130.121" stroke="#263238" stroke-linecap="round" stroke-linejoin="round"/>
<path d="M58.984 130.145L57.1503 133.958C57.1503 133.958 58.0671 132.048 59.0483 132.206C60.2571 132.422 59.4512 134.402 57.9912 133.672" stroke="#263238" stroke-linecap="round" stroke-linejoin="round"/>
<path d="M258.543 192.411L261.422 195.132" stroke="#263238" stroke-linecap="round" stroke-linejoin="round"/>
<path d="M261.422 191.698L259.01 195.301" stroke="#263238" stroke-linecap="round" stroke-linejoin="round"/>
<path d="M264.254 192.732L267.139 191.657" stroke="#263238" stroke-linecap="round" stroke-linejoin="round"/>
<path d="M268.523 188.655L270.275 190.203" stroke="#263238" stroke-linecap="round" stroke-linejoin="round"/>
<path d="M271.618 186.792L269.399 194.408" stroke="#263238" stroke-linecap="round" stroke-linejoin="round"/>
<path d="M137.222 149.632L144.972 144.3L155.233 145.019L155.875 158.03L148.342 163.415L139.044 162.737L137.222 149.632Z" stroke="#263238" stroke-linecap="round" stroke-linejoin="round"/>
<path d="M139.045 162.737L146.549 157.335L155.875 158.03" stroke="#263238" stroke-linecap="round" stroke-linejoin="round"/>
<path d="M146.549 157.335L144.972 144.3" stroke="#263238" stroke-linecap="round" stroke-linejoin="round"/>
<path d="M137.222 149.633L147.46 150.818L155.233 145.019" stroke="#263238" stroke-linecap="round" stroke-linejoin="round"/>
<path d="M147.46 150.818L148.342 163.415" stroke="#263238" stroke-linecap="round" stroke-linejoin="round"/>
<path d="M227.672 105.92L224.239 116.59L234.926 115.147L227.672 105.92Z" stroke="#263238" stroke-linecap="round" stroke-linejoin="round"/>
<path d="M227.672 105.92L229.582 115.807" stroke="#263238" stroke-linecap="round" stroke-linejoin="round"/>
<path d="M229.278 114.224L230.528 114.026L230.82 115.702" stroke="#263238" stroke-linecap="round" stroke-linejoin="round"/>
<path d="M93.0837 203.559L98.4215 206.181" stroke="#263238" stroke-linecap="round" stroke-linejoin="round"/>
<path d="M96.6987 201.556L95.1686 207.133" stroke="#263238" stroke-linecap="round" stroke-linejoin="round"/>
<path d="M97.4404 198.835C97.528 198.744 97.6355 198.675 97.7545 198.633C97.8735 198.592 98.0006 198.579 98.1255 198.595C98.2505 198.612 98.3698 198.657 98.474 198.728C98.5781 198.799 98.6642 198.894 98.7252 199.004C99.2625 199.845 98.2113 201.609 98.2113 201.609L100.355 200.791" stroke="#263238" stroke-linecap="round" stroke-linejoin="round"/>
<path d="M134.992 19.856C140.09 22.7234 134.25 29.7314 134.25 33.8194C134.25 37.9074 140.09 37.3234 143.01 38.4914C144.178 38.4914 146.514 38.4914 146.45 41.4581" stroke="#263238" stroke-linecap="round" stroke-linejoin="round"/>
<path d="M129.309 23.5762C130.197 28.4059 135.733 26.6947 139.132 27.7985C144.972 29.6965 141.731 35.7234 139.991 39.3675C138.945 41.54 137.906 44.5885 139.774 46.65" stroke="#263238" stroke-linecap="round" stroke-linejoin="round"/>
<path d="M130.057 25.4505L136.136 20.3989" stroke="#263238" stroke-linecap="round" stroke-linejoin="round"/>
<path d="M132.439 26.9576L137.018 23.1616" stroke="#263238" stroke-linecap="round" stroke-linejoin="round"/>
<path d="M135.132 30.8L138.998 27.7632" stroke="#263238" stroke-linecap="round" stroke-linejoin="round"/>
<path d="M134.332 35.3438L141.889 29.9126" stroke="#263238" stroke-linecap="round" stroke-linejoin="round"/>
<path d="M137.228 37.4637L142.496 33.5977" stroke="#263238" stroke-linecap="round" stroke-linejoin="round"/>
<path d="M139.471 45.6805L146.052 40.3193" stroke="#263238" stroke-linecap="round" stroke-linejoin="round"/>
<path d="M139.634 41.4641L143.927 38.4448" stroke="#263238" stroke-linecap="round" stroke-linejoin="round"/>
<path d="M53.6994 206.468C59.9703 203.96 63.0205 196.843 60.5124 190.572C58.0042 184.301 50.8874 181.251 44.6165 183.759C38.3456 186.268 35.2954 193.384 37.8035 199.655C40.3117 205.926 47.4285 208.976 53.6994 206.468Z" stroke="#263238" stroke-linecap="round" stroke-linejoin="round"/>
<path d="M52.2329 183.282C56.4961 178.278 60.1228 175.445 61.5185 176.368C63.6443 177.764 59.8308 187.295 53.0038 197.649C46.1768 208.003 38.9177 215.268 36.792 213.867C35.3904 212.95 36.57 208.5 39.49 202.607" stroke="#263238" stroke-linecap="round" stroke-linejoin="round"/>
<path d="M37.1891 197.625C31.244 195.914 27.448 193.917 27.6875 192.323C28.032 189.8 38.3046 189.216 50.5744 191.055C62.8443 192.895 72.4919 196.381 72.124 198.893C71.8612 200.645 66.868 201.445 59.7724 201.176" stroke="#263238" stroke-linecap="round" stroke-linejoin="round"/>
<path d="M38.7484 188.766C34.2633 180.672 32.0207 174.359 33.5391 173.372C35.5364 172.081 43.2569 180.456 50.7846 192.06C58.3124 203.664 62.7917 214.153 60.8002 215.449C59.4804 216.302 55.6552 212.926 51.0358 207.18" stroke="#263238" stroke-linecap="round" stroke-linejoin="round"/>
<path d="M63.2414 181.659C63.0236 181.991 62.7124 182.251 62.3469 182.406C61.9815 182.562 61.5783 182.605 61.1882 182.531C60.7981 182.457 60.4386 182.27 60.1551 181.992C59.8716 181.714 59.6768 181.358 59.5954 180.97C59.5139 180.581 59.5494 180.177 59.6974 179.809C59.8454 179.44 60.0992 179.124 60.4268 178.9C60.7544 178.675 61.1412 178.553 61.5381 178.548C61.9351 178.544 62.3246 178.657 62.6574 178.874C62.879 179.018 63.07 179.204 63.2193 179.423C63.3687 179.641 63.4735 179.886 63.5278 180.145C63.582 180.404 63.5847 180.671 63.5355 180.931C63.4864 181.191 63.3864 181.438 63.2414 181.659Z" fill="#263238"/>
<path d="M56.5895 212.43C56.3718 212.762 56.0605 213.022 55.6951 213.177C55.3297 213.333 54.9264 213.376 54.5363 213.302C54.1462 213.228 53.7867 213.041 53.5032 212.763C53.2197 212.485 53.025 212.129 52.9435 211.741C52.862 211.352 52.8975 210.948 53.0455 210.58C53.1935 210.211 53.4473 209.895 53.7749 209.671C54.1026 209.446 54.4893 209.324 54.8863 209.319C55.2833 209.315 55.6728 209.428 56.0055 209.645C56.2272 209.789 56.4181 209.975 56.5675 210.194C56.7169 210.412 56.8217 210.657 56.8759 210.916C56.9302 211.175 56.9328 211.442 56.8837 211.702C56.8345 211.962 56.7346 212.209 56.5895 212.43Z" fill="#263238"/>
<path d="M45.8556 191.552C45.6379 191.884 45.3266 192.144 44.9612 192.299C44.5958 192.454 44.1925 192.498 43.8024 192.424C43.4123 192.35 43.0528 192.162 42.7693 191.884C42.4859 191.606 42.2911 191.251 42.2096 190.862C42.1282 190.474 42.1637 190.07 42.3116 189.701C42.4596 189.333 42.7134 189.016 43.0411 188.792C43.3687 188.568 43.7554 188.446 44.1524 188.441C44.5494 188.436 44.9389 188.55 45.2716 188.766C45.718 189.058 46.0302 189.516 46.1397 190.038C46.2492 190.56 46.147 191.105 45.8556 191.552Z" fill="#263238"/>
<path d="M173.933 104.139H180.812L184.252 98.1819L180.812 92.2251H173.933L170.493 98.1819L173.933 104.139Z" stroke="#263238" stroke-linecap="round" stroke-linejoin="round"/>
<path d="M172.934 117.215L169.494 111.258H162.615" stroke="#263238" stroke-linecap="round" stroke-linejoin="round"/>
<path d="M163.538 98.1821H170.417L173.857 92.2253L170.417 86.2627H163.538L160.098 92.2253L163.538 98.1821Z" stroke="#263238" stroke-linecap="round" stroke-linejoin="round"/>
<path d="M173.933 92.2251H180.812L184.252 86.2625L180.812 80.3057H173.933L170.493 86.2625L173.933 92.2251Z" stroke="#263238" stroke-linecap="round" stroke-linejoin="round"/>
<path d="M173.857 93.1482C174.366 93.1482 174.78 92.7351 174.78 92.2255C174.78 91.7159 174.366 91.3027 173.857 91.3027C173.347 91.3027 172.934 91.7159 172.934 92.2255C172.934 92.7351 173.347 93.1482 173.857 93.1482Z" fill="#263238"/>
<path d="M159.49 80.6389C160 80.6389 160.413 80.2258 160.413 79.7162C160.413 79.2066 160 78.7935 159.49 78.7935C158.981 78.7935 158.568 79.2066 158.568 79.7162C158.568 80.2258 158.981 80.6389 159.49 80.6389Z" fill="#263238"/>
<path d="M172.011 117.215C172.011 117.032 172.065 116.854 172.167 116.702C172.268 116.55 172.412 116.432 172.581 116.362C172.75 116.292 172.935 116.274 173.114 116.31C173.293 116.345 173.457 116.433 173.587 116.562C173.716 116.691 173.803 116.856 173.839 117.035C173.875 117.214 173.856 117.399 173.787 117.568C173.717 117.736 173.598 117.881 173.447 117.982C173.295 118.083 173.117 118.137 172.934 118.137C172.813 118.137 172.693 118.114 172.581 118.067C172.469 118.021 172.367 117.953 172.282 117.867C172.196 117.781 172.128 117.68 172.082 117.568C172.035 117.456 172.011 117.336 172.011 117.215Z" fill="#263238"/>
<path d="M162.615 112.18C163.124 112.18 163.537 111.767 163.537 111.258C163.537 110.748 163.124 110.335 162.615 110.335C162.105 110.335 161.692 110.748 161.692 111.258C161.692 111.767 162.105 112.18 162.615 112.18Z" fill="#263238"/>
<path d="M190.91 86.432C190.91 86.2481 190.964 86.0683 191.066 85.9155C191.169 85.7627 191.314 85.6436 191.484 85.5735C191.654 85.5034 191.841 85.4854 192.021 85.5217C192.202 85.558 192.367 85.647 192.497 85.7775C192.626 85.9079 192.714 86.0739 192.75 86.2544C192.785 86.4349 192.765 86.6218 192.694 86.7914C192.623 86.9609 192.503 87.1055 192.35 87.2069C192.196 87.3082 192.016 87.3617 191.832 87.3605C191.711 87.3605 191.59 87.3365 191.478 87.2897C191.365 87.243 191.264 87.1745 191.178 87.0882C191.092 87.0019 191.024 86.8995 190.978 86.7869C190.932 86.6742 190.909 86.5536 190.91 86.432Z" fill="#263238"/>
<path d="M169.424 112.18C169.934 112.18 170.347 111.767 170.347 111.258C170.347 110.748 169.934 110.335 169.424 110.335C168.915 110.335 168.501 110.748 168.501 111.258C168.501 111.767 168.915 112.18 169.424 112.18Z" fill="#263238"/>
<path d="M183.329 86.432C183.329 86.2483 183.384 86.0688 183.486 85.9161C183.588 85.7634 183.733 85.6444 183.902 85.5741C184.072 85.5038 184.259 85.4854 184.439 85.5213C184.619 85.5571 184.785 85.6455 184.914 85.7754C185.044 85.9052 185.133 86.0707 185.168 86.2508C185.204 86.4309 185.186 86.6176 185.116 86.7873C185.045 86.957 184.926 87.102 184.774 87.204C184.621 87.3061 184.441 87.3605 184.258 87.3605C184.012 87.3605 183.775 87.2627 183.601 87.0886C183.427 86.9144 183.329 86.6782 183.329 86.432Z" fill="#263238"/>
<path d="M172.934 104.145C172.933 103.961 172.987 103.78 173.088 103.627C173.19 103.473 173.335 103.353 173.505 103.282C173.675 103.211 173.862 103.192 174.042 103.228C174.223 103.264 174.389 103.352 174.519 103.482C174.649 103.613 174.738 103.779 174.774 103.959C174.809 104.14 174.79 104.327 174.719 104.497C174.648 104.667 174.528 104.812 174.375 104.913C174.221 105.015 174.041 105.069 173.857 105.068C173.613 105.066 173.379 104.968 173.206 104.796C173.033 104.623 172.936 104.389 172.934 104.145Z" fill="#263238"/>
<path d="M184.258 86.4204H191.832" stroke="#263238" stroke-linecap="round" stroke-linejoin="round"/>
<path d="M173.857 104.145L169.424 111.258" stroke="#263238" stroke-linecap="round" stroke-linejoin="round"/>
<path d="M163.537 86.2625L159.49 79.7158" stroke="#263238" stroke-linecap="round" stroke-linejoin="round"/>
<path d="M212.331 62.7802C213.124 60.0981 214.778 57.7516 217.037 56.1026C219.296 54.4536 222.035 53.5937 224.831 53.6555C227.628 53.7172 230.326 54.6973 232.51 56.4444C234.694 58.1916 236.243 60.6088 236.917 63.3233" stroke="#263238" stroke-linecap="round" stroke-linejoin="round"/>
<path d="M223.088 79.0386C219.981 78.683 217.113 77.1966 215.031 74.8628C212.95 72.5289 211.799 69.5107 211.799 66.3833" stroke="#263238" stroke-linecap="round" stroke-linejoin="round"/>
<path d="M237.285 66.3833C237.285 69.7604 235.944 72.9992 233.557 75.3877C231.169 77.7762 227.931 79.1188 224.554 79.1203" stroke="#263238" stroke-linecap="round" stroke-linejoin="round"/>
<path d="M238.009 58.3065C241.992 57.7984 244.661 58.0729 245.076 59.2642C245.899 61.6353 237.378 66.7453 226.043 70.6814C214.708 74.6176 204.855 75.879 204.026 73.5021C203.588 72.2349 205.819 70.185 209.72 67.9483" stroke="#263238" stroke-linecap="round" stroke-linejoin="round"/>
<path d="M169.424 49.5815L170.645 52.0519L173.372 52.449L171.398 54.3762L171.865 57.0918L169.424 55.807L166.983 57.0918L167.45 54.3762L165.476 52.449L168.204 52.0519L169.424 49.5815Z" stroke="#263238" stroke-linecap="round" stroke-linejoin="round"/>
<path d="M83.2025 42.9998C83.2009 45.1962 82.3281 47.3022 80.7756 48.8558C79.2231 50.4094 77.1177 51.2837 74.9213 51.2868C74.6527 51.2868 74.3899 51.2751 74.1329 51.2517C72.5346 51.1001 71.0146 50.4874 69.7579 49.4882C68.5012 48.4889 67.5618 47.1461 67.054 45.623C66.5462 44.0999 66.4917 42.462 66.8973 40.9085C67.3029 39.355 68.151 37.9528 69.3385 36.8723C70.5261 35.7918 72.002 35.0795 73.5868 34.8221C75.1716 34.5646 76.797 34.7731 78.2655 35.4222C79.7341 36.0712 80.9824 37.1329 81.8588 38.4781C82.7353 39.8234 83.2021 41.3943 83.2025 42.9998V42.9998Z" stroke="#263238" stroke-linecap="round" stroke-linejoin="round"/>
<path d="M81.8767 44.4948C81.8779 44.7491 81.8035 44.9981 81.663 45.2102C81.5226 45.4222 81.3223 45.5878 81.0877 45.6859C80.853 45.7841 80.5945 45.8104 80.3449 45.7614C80.0953 45.7125 79.8658 45.5906 79.6855 45.4112C79.5052 45.2317 79.3823 45.0028 79.3322 44.7534C79.2822 44.504 79.3073 44.2454 79.4044 44.0103C79.5014 43.7752 79.6661 43.5742 79.8775 43.4328C80.0889 43.2913 80.3376 43.2158 80.5919 43.2158C80.9317 43.2158 81.2576 43.3504 81.4983 43.5901C81.7391 43.8297 81.8752 44.155 81.8767 44.4948V44.4948Z" stroke="#263238" stroke-linecap="round" stroke-linejoin="round"/>
<path d="M70.3428 47.7535C70.3433 48.0579 70.2765 48.3587 70.1473 48.6343C70.0181 48.9099 69.8296 49.1535 69.5953 49.3479C68.5063 48.4489 67.6675 47.2843 67.16 45.9665C67.4814 45.7692 67.8517 45.666 68.2288 45.6687C68.505 45.6648 68.7792 45.7159 69.0356 45.8189C69.2919 45.9219 69.5252 46.0749 69.7219 46.2689C69.9186 46.4629 70.0748 46.694 70.1814 46.9489C70.288 47.2038 70.3429 47.4773 70.3428 47.7535Z" stroke="#263238" stroke-linecap="round" stroke-linejoin="round"/>
<path d="M80.592 49.056C79.0606 50.5064 77.0306 51.3134 74.9213 51.3102C74.6527 51.3102 74.3899 51.2986 74.133 51.2752C74.0859 51.0505 74.0624 50.8215 74.0629 50.5919C74.0632 49.8155 74.3258 49.0621 74.808 48.4536C75.2902 47.8451 75.9637 47.4173 76.7195 47.2395C77.4752 47.0617 78.2688 47.1444 78.9717 47.4741C79.6746 47.8038 80.2455 48.3612 80.592 49.056V49.056Z" stroke="#263238" stroke-linecap="round" stroke-linejoin="round"/>
<path d="M72.9124 39.712C73.9638 39.712 74.8162 38.8596 74.8162 37.8081C74.8162 36.7567 73.9638 35.9043 72.9124 35.9043C71.8609 35.9043 71.0085 36.7567 71.0085 37.8081C71.0085 38.8596 71.8609 39.712 72.9124 39.712Z" stroke="#263238" stroke-linecap="round" stroke-linejoin="round"/>
<path d="M74.676 43.2158C74.676 43.3902 74.6243 43.5607 74.5274 43.7058C74.4305 43.8508 74.2928 43.9638 74.1317 44.0305C73.9705 44.0973 73.7932 44.1147 73.6222 44.0807C73.4511 44.0467 73.294 43.9627 73.1706 43.8394C73.0473 43.7161 72.9633 43.5589 72.9293 43.3879C72.8953 43.2168 72.9127 43.0395 72.9795 42.8784C73.0462 42.7172 73.1593 42.5795 73.3043 42.4826C73.4493 42.3857 73.6198 42.334 73.7942 42.334C73.91 42.334 74.0247 42.3568 74.1317 42.4011C74.2386 42.4454 74.3359 42.5104 74.4178 42.5923C74.4996 42.6742 74.5646 42.7714 74.6089 42.8784C74.6532 42.9854 74.676 43.1 74.676 43.2158Z" stroke="#263238" stroke-linecap="round" stroke-linejoin="round"/>
<path d="M81.6432 38.1642C81.4115 38.2402 81.1688 38.2776 80.9249 38.2751C80.6061 38.2751 80.2905 38.2122 79.9961 38.0901C79.7017 37.9679 79.4342 37.7889 79.2091 37.5632C78.984 37.3375 78.8056 37.0697 78.6841 36.7749C78.5627 36.4802 78.5005 36.1644 78.5013 35.8457C78.4953 35.7445 78.4953 35.6431 78.5013 35.542C79.7522 36.1384 80.8327 37.0401 81.6432 38.1642V38.1642Z" stroke="#263238" stroke-linecap="round" stroke-linejoin="round"/>
<path d="M272.056 139.161L272.95 137.153L271.502 136.358C271.555 136.005 271.565 135.646 271.531 135.29L273.014 134.565L272.226 132.516L270.637 132.971C270.424 132.685 270.177 132.426 269.901 132.2L270.445 130.635L268.436 129.742L267.636 131.19C267.281 131.146 266.922 131.146 266.567 131.19L265.848 129.707L263.793 130.495L264.254 132.078C263.968 132.294 263.707 132.543 263.477 132.819L261.918 132.276L261.048 134.256L262.496 135.056C262.443 135.41 262.433 135.769 262.467 136.125L260.978 136.843L261.766 138.899L263.355 138.437C263.569 138.724 263.816 138.984 264.091 139.214L263.553 140.773L265.562 141.667L266.357 140.219C266.71 140.272 267.069 140.282 267.425 140.248L268.149 141.737L270.199 140.949L269.744 139.36C270.028 139.146 270.287 138.899 270.515 138.624L272.056 139.161ZM265.948 138.04C265.487 137.835 265.097 137.498 264.827 137.071C264.558 136.645 264.421 136.148 264.434 135.643C264.446 135.139 264.609 134.649 264.9 134.237C265.191 133.825 265.597 133.508 266.068 133.326C266.539 133.145 267.054 133.108 267.546 133.219C268.038 133.33 268.487 133.584 268.834 133.95C269.182 134.316 269.414 134.776 269.5 135.274C269.586 135.771 269.522 136.282 269.317 136.744C269.041 137.362 268.532 137.845 267.9 138.088C267.269 138.331 266.567 138.314 265.948 138.04V138.04Z" stroke="#263238" stroke-linecap="round" stroke-linejoin="round"/>
<path d="M261.381 149.469L262.596 146.742L260.633 145.655C260.703 145.176 260.715 144.689 260.668 144.207L262.689 143.226L261.632 140.44L259.477 141.065C259.189 140.675 258.854 140.321 258.478 140.014L259.214 137.888L256.464 136.656L255.383 138.618C254.904 138.549 254.418 138.536 253.935 138.577L252.954 136.562L250.162 137.637L250.787 139.786C250.399 140.079 250.047 140.417 249.736 140.791L247.616 140.078L246.401 142.805L248.364 143.892C248.294 144.371 248.282 144.858 248.328 145.34L246.308 146.321L247.382 149.107L249.537 148.488C249.827 148.877 250.162 149.23 250.536 149.539L249.8 151.659L252.533 152.874L253.614 150.906C254.093 150.977 254.579 150.991 255.062 150.946L256.043 152.961L258.835 151.892L258.21 149.738C258.598 149.446 258.95 149.111 259.261 148.739L261.381 149.469ZM253.088 147.945C252.461 147.665 251.931 147.206 251.565 146.626C251.199 146.045 251.014 145.369 251.032 144.683C251.051 143.997 251.272 143.332 251.669 142.772C252.066 142.211 252.619 141.781 253.26 141.536C253.901 141.291 254.601 141.241 255.27 141.394C255.939 141.546 256.548 141.893 257.02 142.392C257.492 142.89 257.805 143.517 257.92 144.194C258.035 144.871 257.947 145.566 257.667 146.193C257.481 146.609 257.216 146.984 256.885 147.297C256.555 147.61 256.166 147.855 255.741 148.018C255.315 148.181 254.862 148.258 254.407 148.246C253.952 148.233 253.504 148.131 253.088 147.945Z" stroke="#263238" stroke-linecap="round" stroke-linejoin="round"/>
<path d="M140.318 123.58C139.517 125.096 138.614 126.556 137.614 127.949C132.425 135.163 124.801 140.255 116.15 142.285C107.499 144.315 98.405 143.145 90.5491 138.992C89.7373 138.566 88.9431 138.11 88.1839 137.631C87.4247 137.152 86.683 136.662 85.9705 136.136C85.1062 135.511 84.2769 134.846 83.4827 134.151C83.4318 134.112 83.3849 134.069 83.3425 134.022C78.1673 129.442 74.3847 123.499 72.4269 116.871C70.4691 110.244 70.4151 103.199 72.271 96.5419C74.1269 89.8849 77.8179 83.8843 82.9222 79.2255C88.0266 74.5667 94.3385 71.4376 101.137 70.1958C107.935 68.954 114.946 69.6495 121.367 72.2029C127.789 74.7562 133.363 79.0645 137.453 84.6354C141.542 90.2063 143.982 96.8152 144.494 103.707C145.006 110.599 143.569 117.496 140.347 123.609L140.318 123.58Z" fill="#327D83"/>
<g opacity="0.6">
<path d="M140.318 123.58C139.517 125.096 138.614 126.556 137.614 127.948L136.901 127.364L135.675 126.716L134.384 126.039L134.6 124.48L134.53 123.072C134.454 121.665 135.47 122.815 136.282 122.389C136.915 121.936 137.427 121.335 137.771 120.637C137.771 120.637 138.355 118.762 138.163 118.009C137.848 117.141 137.478 116.294 137.053 115.474L134.962 118.394L133.21 118.26L131.552 117.384L131.336 115.077L130.483 114.633L130.127 113.308L125.519 112.017L124.993 111.094C124.468 110.172 122.348 109.698 122.348 109.698L122.868 108.495L123.685 107.152C124.509 105.809 125.361 108.04 125.361 108.04L126.337 108.548L128.147 107.03L128.626 104.851L131.575 105.021C131.517 104.726 131.562 104.42 131.703 104.154C131.843 103.889 132.07 103.679 132.346 103.561C133.327 103.175 132.895 101.044 132.521 100.255C132.147 99.4668 130.769 100.103 130.769 100.103C130.769 100.103 129.268 97.8199 129.064 96.9089C128.86 95.9978 131.925 96.3249 133.239 95.408C134.553 94.4911 134.104 92.669 133.461 92.6281C132.819 92.5873 134.717 88.4817 138.367 89.6089C139.383 89.9242 140.026 89.8133 140.423 89.4629C143.161 94.7355 144.582 100.593 144.564 106.534C144.545 112.476 143.089 118.324 140.318 123.58Z" fill="white"/>
<path d="M114.779 107.783L113.53 109.354C113.53 109.354 112.998 108.087 112.239 108.77L111.071 109.809L110.224 112.18L108.706 113.162L107.777 112.677L106.901 112.21L105.949 111.707L105.038 113.459L104.297 114.861C104.658 115.549 105.108 116.187 105.634 116.759L107.246 119.603L109.208 120.596C110.026 120.626 110.841 120.724 111.643 120.888L112.992 121.595L112.513 124.515C112.513 124.515 111.497 126.167 110.82 125.712L110.137 125.262L109.027 129.105L108.98 131.219C108.98 131.219 108.32 131.493 107.654 131.715C106.989 131.937 107.409 131.82 106.013 132.253C104.618 132.685 104.729 132.667 103.596 132.988C102.63 133.326 101.701 133.761 100.822 134.285L100.921 136.317L98.2521 136.708L96.7571 135.914L97.125 134.629L97.3002 132.62L97.0958 131.12L96.4534 129.794L98.2521 128.165L97.855 127.143L96.833 125.11L94.6722 126.278L93.5626 126.862L91.0514 125.735L90.7769 124.211L89.9359 121.472L89.1534 119.767L87.7635 117.886L87.4131 116.268L88.1956 114.785L88.6103 114.003L87.3313 112.28L86.9809 111.053L84.8259 109.097C84.8259 109.097 85.4508 109.056 85.3107 108.186C85.1705 107.316 86.5429 105.85 86.5429 105.85C87.3196 106.259 89.6498 107.882 89.6498 107.882L91.6879 108.163C91.6879 108.163 92.0967 108.163 92.4939 107.392C92.9577 106.683 93.5026 106.03 94.1174 105.447C94.1174 105.447 93.1771 102.182 93.8487 101.744C94.5203 101.306 95.2036 99.1689 95.2036 99.1689L95.7409 98.1469C95.7409 98.1469 94.4736 97.5921 94.2342 96.9205C93.9947 96.2489 90.8703 97.1424 90.8703 97.1424L88.7154 98.6375L87.0159 99.9515L86.2801 101.347C86.2801 101.347 84.7792 99.5427 84.7734 100.553C84.6589 101.589 84.4317 102.609 84.0959 103.596C84.0959 103.596 84.4055 103.759 83.9967 104.542C83.5879 105.324 83.144 105.283 82.2447 105.394C81.0722 105.406 79.9006 105.326 78.7407 105.155C78.7407 105.155 78.1567 107.316 78.5596 107.689L78.9567 108.052C78.9567 108.052 78.3319 109.623 77.7128 109.295L76.2061 108.501L74.0979 109.354L71.7619 111.935L71.2421 111.83C69.8104 102.227 72.2275 92.4474 77.9679 84.6172C83.7082 76.787 92.3076 71.5394 101.896 70.0156C102.031 70.5996 102.177 71.1486 102.177 71.1486L101.593 74.0335L100.845 75.4585L100.203 76.6791L99.2975 78.396L101.616 80.5335L101.12 83.0622L99.8639 83.8506L99.5019 85.7486L101.657 89.9592L102.241 91.6119C101.88 92.4032 101.703 93.2655 101.721 94.1348C101.721 94.1348 101.984 95.7116 103.134 96.3365C104.285 96.9614 105.797 97.6972 105.797 97.6972L105.675 100.033L105.155 100.617L106.019 103.134C108.653 104.168 108.402 105.032 108.653 104.168L108.91 103.309L110.703 102.661L112.986 105.389C113.252 105.385 113.514 105.448 113.749 105.573C113.984 105.697 114.184 105.879 114.33 106.101C114.995 106.942 116.035 106.212 114.779 107.783Z" fill="white"/>
<path d="M83.8273 128.124C83.8915 128.953 82.8403 129.992 82.8403 129.992L83.6988 130.442L83.9616 132.778L83.3134 134.016C78.7199 129.958 75.2164 124.814 73.1226 119.054L73.5898 116.578L75.6513 116.286C75.6513 116.286 77.4967 115.059 78.3143 115.387C79.1319 115.714 79.8794 117.723 79.8794 117.723C79.8794 117.723 80.4634 120.432 80.3875 120.38H80.3525H80.3992L81.2402 120.824L81.4796 121.892L80.3116 124.111H78.4311C78.4311 124.111 78.0574 123.913 78.0223 124.888C78.0528 125.227 78.1556 125.555 78.3239 125.85C78.4922 126.145 78.7219 126.401 78.9976 126.599L81.0299 126.08L81.573 123.977L83.5703 123.586C83.5703 123.586 83.2842 124.877 83.7514 125.122L84.2244 125.373L84.5047 126.915C84.2955 127.039 84.1227 127.216 84.0038 127.428C83.8849 127.64 83.824 127.88 83.8273 128.124Z" fill="white"/>
<path d="M93.4867 131.429C93.3056 130.927 93.2297 130.489 91.9858 129.835C90.7419 129.181 90.8178 129.414 90.3272 129.957C90.116 130.237 89.8275 130.448 89.4975 130.566C89.1674 130.683 88.8103 130.701 88.4701 130.617C87.6525 130.436 88.0788 131.359 88.0788 131.359L88.2774 133.853L85.9706 136.13C86.6831 136.656 87.4208 137.154 88.1839 137.625L88.6745 136.119L92.5055 137.24C91.6938 137.001 92.1727 135.891 92.1727 135.891L91.3551 135.459C91.3551 135.459 93.6677 131.92 93.4867 131.429Z" fill="white"/>
<path d="M117.618 118.464L116.362 117.197L114.925 117.646L114.341 118.814L113.903 119.655L114.487 120.823L115.655 122.243L116.321 120.969C116.321 120.969 118.172 120.969 119.142 119.901C120.111 118.832 117.618 118.464 117.618 118.464Z" fill="white"/>
<path d="M113.927 112.747L116.263 113.973L116.356 113.424C116.478 112.985 116.693 112.576 116.987 112.227L115.2 110.335L113.927 112.747Z" fill="white"/>
<path d="M113.132 139.932L112.461 138.945L111.678 138.536H109.29L107.929 141.117C107.929 141.117 106.627 140.942 104.916 140.79C103.204 140.639 103.625 141.345 103.625 141.345L103.181 142.969C107.498 143.5 111.875 143.265 116.111 142.274C115.619 141.931 115.108 141.615 114.581 141.328L113.132 139.932Z" fill="white"/>
</g>
<path d="M140.318 123.58C139.517 125.096 138.614 126.556 137.614 127.949C132.425 135.163 124.801 140.255 116.15 142.285C107.498 144.315 98.405 143.145 90.5491 138.992C89.7373 138.566 88.9431 138.11 88.1839 137.631C87.4247 137.152 86.683 136.662 85.9705 136.136C85.1062 135.511 84.2769 134.846 83.4827 134.151C83.4318 134.112 83.3849 134.069 83.3425 134.022V134.022C78.1673 129.442 74.3847 123.499 72.4269 116.871C70.4691 110.244 70.4151 103.199 72.271 96.5419C74.1269 89.8849 77.8179 83.8843 82.9222 79.2255C88.0266 74.5667 94.3385 71.4376 101.137 70.1958C107.935 68.954 114.946 69.6495 121.367 72.2029C127.789 74.7562 133.363 79.0645 137.453 84.6354C141.542 90.2063 143.982 96.8152 144.494 103.707C145.006 110.599 143.569 117.496 140.347 123.609L140.318 123.58Z" stroke="#263238" stroke-linecap="round" stroke-linejoin="round"/>
<path d="M116.111 142.274C111.875 143.265 107.498 143.501 103.181 142.969L103.625 141.346C103.625 141.346 103.204 140.639 104.916 140.791C106.627 140.943 107.929 141.118 107.929 141.118L109.29 138.537H111.678L112.461 138.945L113.132 139.932L114.581 141.328C115.108 141.615 115.619 141.931 116.111 142.274Z" stroke="#263238" stroke-linecap="round" stroke-linejoin="round"/>
<path d="M140.446 89.469C140.049 89.8194 139.407 89.9303 138.39 89.615C134.74 88.4878 132.848 92.5875 133.485 92.6342C134.121 92.681 134.571 94.5264 133.263 95.4141C131.955 96.3018 128.883 95.9981 129.087 96.915C129.292 97.8318 130.793 100.109 130.793 100.109C130.793 100.109 132.136 99.4787 132.515 100.261C132.895 101.044 133.327 103.181 132.346 103.567C132.07 103.685 131.843 103.895 131.703 104.161C131.562 104.426 131.517 104.732 131.575 105.027L128.626 104.857L128.147 107.036L126.337 108.554L125.361 108.046C125.361 108.046 124.509 105.815 123.685 107.158L122.868 108.502L122.348 109.705C122.348 109.705 124.468 110.178 124.993 111.1L125.519 112.023L130.127 113.314L130.483 114.639L131.336 115.083L131.552 117.39L133.269 118.289L135.021 118.424L137.111 115.504C137.536 116.324 137.907 117.17 138.221 118.038C138.425 118.792 137.83 120.666 137.83 120.666C137.485 121.364 136.974 121.966 136.341 122.418C135.505 122.845 134.483 121.694 134.589 123.102L134.659 124.509L134.443 126.068L135.733 126.746L136.96 127.394L137.672 127.978" stroke="#263238" stroke-linecap="round" stroke-linejoin="round"/>
<path d="M71.2888 111.83L71.8086 111.935L74.1446 109.354L76.2528 108.501L77.7595 109.296C78.3786 109.623 79.0035 108.052 79.0035 108.052L78.6063 107.69C78.2034 107.316 78.7874 105.155 78.7874 105.155C79.9473 105.326 81.1189 105.406 82.2914 105.395C83.2141 105.284 83.6521 105.319 84.0434 104.542C84.4347 103.765 84.1427 103.596 84.1427 103.596C84.4784 102.609 84.7056 101.589 84.8201 100.553C84.8201 99.5429 86.3268 101.347 86.3268 101.347L87.0627 99.9517L88.7095 98.6435L90.8645 97.1485C90.8645 97.1485 93.9889 96.2491 94.2283 96.9265C94.4678 97.604 95.7351 98.1529 95.7351 98.1529L95.1978 99.1749C95.1978 99.1749 94.5087 101.301 93.8429 101.75C93.1771 102.2 94.1115 105.453 94.1115 105.453C93.4967 106.036 92.9519 106.689 92.488 107.398C92.0792 108.18 91.6821 108.169 91.6821 108.169L89.6439 107.888C89.6439 107.888 87.3079 106.265 86.5371 105.856C86.5371 105.856 85.1647 107.322 85.3048 108.192C85.445 109.062 84.8201 109.103 84.8201 109.103L86.9751 111.059L87.3255 112.286L88.6044 114.009L88.1898 114.791L87.4072 116.274L87.7576 117.892L89.1475 119.773L89.9359 121.472L90.7886 124.223L91.0631 125.747L93.5743 126.874L94.6839 126.29L96.8447 125.122L97.8667 127.154L98.2638 128.176L96.4651 129.806L97.1075 131.131L97.3119 132.632L97.1367 134.641L96.7687 135.926L98.2638 136.72L100.933 136.335L100.833 134.297C101.712 133.773 102.642 133.338 103.607 133C104.74 132.679 104.629 132.697 106.025 132.264C107.421 131.832 106.995 131.949 107.666 131.727C108.338 131.505 108.992 131.231 108.992 131.231L109.039 129.117L110.148 125.274L110.831 125.724C111.509 126.179 112.525 124.526 112.525 124.526L113.004 121.606L111.626 120.888C110.823 120.724 110.009 120.626 109.19 120.596L107.269 119.586L105.657 116.742C105.131 116.17 104.681 115.532 104.32 114.844L105.062 113.442L105.973 111.69L106.924 112.192L107.8 112.66L108.729 113.144L110.247 112.163L111.094 109.792L112.262 108.753C113.021 108.063 113.553 109.337 113.553 109.337L114.803 107.766C116.058 106.195 115.019 106.925 114.376 106.119C114.23 105.897 114.031 105.715 113.796 105.591C113.561 105.466 113.299 105.403 113.033 105.406L110.75 102.679L108.933 103.368L108.676 104.227C108.425 105.091 108.677 104.227 106.043 103.193L105.178 100.676L105.698 100.092L105.821 97.7558C105.821 97.7558 104.308 97.0141 103.158 96.3951C102.007 95.7761 101.744 94.1934 101.744 94.1934C101.726 93.3241 101.904 92.4618 102.264 91.6705L101.68 90.0178L99.5252 85.8072L99.8873 83.9092L101.143 83.1208L101.639 80.5921L99.3851 78.4546L100.29 76.7377L100.933 75.5171L101.68 74.0921L102.264 71.2072C102.264 71.2072 102.118 70.6699 101.984 70.0742" stroke="#263238" stroke-linecap="round" stroke-linejoin="round"/>
<path d="M83.5119 134.145C83.4666 134.092 83.4157 134.045 83.3601 134.004V134.004L84.0083 132.766L83.7455 130.43L82.887 129.981C82.887 129.981 83.9382 128.941 83.874 128.112C83.8626 127.864 83.9179 127.619 84.0339 127.4C84.15 127.181 84.3227 126.997 84.5339 126.868L84.2536 125.326L83.7806 125.075C83.3134 124.83 83.5995 123.539 83.5995 123.539L81.6022 123.93L81.0591 126.033L79.0268 126.553C78.7511 126.354 78.5214 126.098 78.3531 125.803C78.1848 125.508 78.082 125.18 78.0515 124.841C78.0866 123.866 78.4603 124.065 78.4603 124.065H80.3408L81.5088 121.846L81.2694 120.777L80.4284 120.333" stroke="#263238" stroke-linecap="round" stroke-linejoin="round"/>
<path d="M80.3759 120.333C80.4694 120.386 79.8678 117.676 79.8678 117.676C79.8678 117.676 79.1203 115.696 78.3027 115.34C77.4851 114.984 75.6397 116.239 75.6397 116.239L73.5782 116.531L73.111 119.008" stroke="#263238" stroke-linecap="round" stroke-linejoin="round"/>
<path d="M88.6745 136.119L88.1839 137.625C87.4053 137.15 86.6675 136.652 85.9706 136.13L88.2774 133.853L88.0788 131.359C88.0788 131.359 87.6525 130.436 88.4701 130.617C88.8103 130.701 89.1674 130.683 89.4975 130.566C89.8275 130.448 90.116 130.237 90.3272 129.957C90.8061 129.414 90.7477 129.181 91.9858 129.835C93.2239 130.489 93.3056 130.927 93.4867 131.429C93.6677 131.931 91.3551 135.476 91.3551 135.476L92.1727 135.908C92.1727 135.908 91.6938 137.018 92.5055 137.257L88.6745 136.119Z" stroke="#263238" stroke-linecap="round" stroke-linejoin="round"/>
<path d="M114.925 117.647L116.362 117.197L117.618 118.465C117.618 118.465 120.1 118.786 119.13 119.866C118.161 120.947 116.309 120.935 116.309 120.935L115.632 122.208L114.464 120.789L113.88 119.621L114.318 118.78L114.925 117.647Z" stroke="#263238" stroke-linecap="round" stroke-linejoin="round"/>
<path d="M116.987 112.227C116.693 112.576 116.478 112.985 116.356 113.424L116.263 113.973L113.927 112.747L115.2 110.335L116.987 112.227Z" stroke="#263238" stroke-linecap="round" stroke-linejoin="round"/>
<path d="M243.721 249.982C240.59 252.586 216.477 269.137 182.068 266.468C180.217 250.805 173.156 186.46 181.186 176.368C181.186 176.368 200.668 167.077 218.615 170.978C236.561 174.879 243.545 178.617 244.824 181.852C245.794 184.299 244.41 229.863 243.721 249.982Z" fill="#263238"/>
<path d="M218.019 177.851C207.682 186.804 194.367 184.912 194.659 178.038C194.706 176.964 195.856 175.632 195.856 175.632L195.453 175.013L193.701 172.368C192.422 170.388 190.822 167.9 189.707 166.09C188.772 164.548 212.068 150.216 212.068 158.457C212.068 170.067 217.768 172.251 217.768 172.251C219.917 173.115 221.92 174.482 218.019 177.851Z" fill="white" stroke="#263238" stroke-linecap="round" stroke-linejoin="round"/>
<path d="M224.554 195.582C224.554 195.582 222.469 202.73 223.456 204.78" stroke="white" stroke-linecap="round" stroke-linejoin="round"/>
<path d="M222.119 174.826C222.119 181.723 201.544 188.48 195.517 181.56" stroke="white" stroke-linecap="round" stroke-linejoin="round"/>
<path d="M205.194 166.867C205.194 166.867 203.816 172.064 197.392 176.123C197.085 175.597 196.591 175.207 196.008 175.031C195.814 175 195.617 175 195.424 175.031L193.672 172.385C196.995 169.991 205.194 166.867 205.194 166.867Z" fill="#263238"/>
<path d="M208.079 160.477C208.079 160.477 208.009 165.605 206.911 166.65C198.764 174.464 190.799 175.083 189.485 173.022C180.637 159.146 182.728 155.502 181.828 153.125C180.234 148.955 178.278 142.146 179.142 138.023C181.069 128.813 198.414 121.671 207.548 130.933C211.928 135.365 213.312 144.984 212.389 152.996" fill="white"/>
<path d="M208.079 160.477C208.079 160.477 208.009 165.605 206.911 166.65C198.764 174.464 190.799 175.083 189.485 173.022C180.637 159.146 182.728 155.502 181.828 153.125C180.234 148.955 178.278 142.146 179.142 138.023C181.069 128.813 198.414 121.671 207.548 130.933C211.928 135.365 213.312 144.984 212.389 152.996" stroke="#263238" stroke-linecap="round" stroke-linejoin="round"/>
<path d="M182.944 148.838C182.944 148.838 180.509 147.746 179.983 149.049" stroke="#263238" stroke-linecap="round" stroke-linejoin="round"/>
<path d="M188.848 148.92C188.848 148.92 193.911 146.8 196.189 149.376" stroke="#263238" stroke-linecap="round" stroke-linejoin="round"/>
<path d="M194.472 152.512C194.554 153.271 194.186 153.931 193.643 153.995C193.1 154.059 192.597 153.481 192.516 152.722C192.434 151.963 192.802 151.297 193.345 151.238C193.888 151.18 194.367 151.752 194.472 152.512Z" fill="#263238"/>
<path d="M184.544 152.74C184.632 153.499 184.258 154.165 183.715 154.223C183.172 154.281 182.669 153.715 182.588 152.956C182.506 152.197 182.874 151.531 183.417 151.472C183.96 151.414 184.45 151.98 184.544 152.74Z" fill="#263238"/>
<path d="M184.789 150.742C185.496 151.881 185.11 153.826 184.176 156.495C183.242 159.163 184.065 160.127 187.651 160.396" fill="white"/>
<path d="M184.789 150.742C185.496 151.881 185.11 153.826 184.176 156.495C183.242 159.163 184.065 160.127 187.651 160.396" stroke="#263238" stroke-linecap="round" stroke-linejoin="round"/>
<path d="M187.651 165.015C187.651 165.015 192.323 164.589 194.46 163.415" stroke="#263238" stroke-linecap="round" stroke-linejoin="round"/>
<path d="M217.248 138.537C217.248 135.068 213.826 127.949 207.822 127.149C204.371 123.54 199.453 122.214 193.485 123.586C179.691 126.752 175.492 140.37 174.89 142.625C174.832 142.835 174.803 142.952 174.803 142.952L178.494 142.017L176.905 145.118L178.838 146.397L178.394 146.888L180.637 149.049L179.936 145.101C180.368 142.555 183.3 138.992 183.3 138.992C182.23 140.379 181.563 142.034 181.373 143.775C182.541 140.744 189.549 137.935 189.549 137.935C187.277 139.781 186.045 143.39 186.045 143.39C188.206 140.727 193.269 139.004 196.51 138.087C197.602 140.721 199.337 143.471 201.813 144.996C204.149 146.432 204.067 149.399 204.067 149.399C206.58 151.146 208.432 153.689 209.323 156.617L212.15 160.483C212.15 160.483 217.248 154.229 217.248 138.537Z" fill="#263238"/>
<path d="M205.352 150.392C204.406 148.365 207.84 142.876 210.275 143.553C211.642 143.939 213.429 146.432 213.779 149.049C214.129 151.665 212.278 156.641 210.304 157.721C209.049 158.422 208.015 156.512 208.015 156.512" fill="white"/>
<path d="M205.352 150.392C204.406 148.365 207.84 142.876 210.275 143.553C211.642 143.939 213.429 146.432 213.779 149.049C214.129 151.665 212.278 156.641 210.304 157.721C209.049 158.422 208.015 156.512 208.015 156.512" stroke="#263238" stroke-linecap="round" stroke-linejoin="round"/>
<path d="M56.3618 249.514L122.348 234.085L259.985 249.981L224.548 274.217L56.3618 249.514Z" fill="white"/>
<path d="M56.3618 249.514L122.348 234.085L259.985 249.981" fill="white"/>
<path d="M56.3618 249.514L122.348 234.085L259.985 249.981" stroke="#263238" stroke-linecap="round" stroke-linejoin="round"/>
<path d="M113.465 252.609L140.177 240.801L173.95 242.547L158.93 255.389L113.465 252.609Z" fill="white" stroke="#263238" stroke-linecap="round" stroke-linejoin="round"/>
<path d="M182.488 175.784C173.921 179.288 172.076 187.166 157.516 218.299C157.516 218.299 151.052 219.625 147.588 227.48C144.125 235.335 149.924 241.537 156.6 241.326C156.6 241.326 159.28 243.662 164.776 243.423C170.271 243.184 194.56 206.018 194.56 206.018L182.488 175.784Z" fill="#263238"/>
<path d="M160.068 220.127C163.9 223.538 166.101 228.543 164.933 234.091" stroke="white" stroke-linecap="round" stroke-linejoin="round"/>
<path d="M163.765 221.769C163.765 221.769 168.472 222.796 169.202 228.823" stroke="white" stroke-linecap="round" stroke-linejoin="round"/>
<path d="M177.536 204.131C175.312 198.644 174.544 192.676 175.305 186.804" stroke="white" stroke-linecap="round" stroke-linejoin="round"/>
<path d="M176.87 196.189C176.514 198.642 179.049 211.7 179.031 225.43" stroke="white" stroke-linecap="round" stroke-linejoin="round"/>
<path d="M240.912 178.365C251.628 183.75 252.901 200.318 242.792 220.127C235.65 234.108 225.792 254.752 219.555 256.137C213.318 257.521 207.232 253.637 207.232 253.637C207.232 253.637 201.976 253.392 200.388 249.654C196.043 239.44 207.086 226.534 211.408 229.623C211.408 229.623 225.284 199.448 227.813 197.544" fill="#263238"/>
<path d="M199.395 243.446C197.976 236.397 209.072 228.081 211.408 229.623C211.408 229.623 219.648 230.084 220.881 235.784" stroke="white" stroke-linecap="round" stroke-linejoin="round"/>
<path d="M229.582 244.947C234.406 236.439 242.792 220.127 242.792 220.127" stroke="white" stroke-linecap="round" stroke-linejoin="round"/>
<path d="M211.408 229.623C211.408 229.623 217.184 226.166 221.499 229.436" stroke="white" stroke-linecap="round" stroke-linejoin="round"/>
<path d="M213.382 225.424C213.382 225.424 216.57 218.416 219.806 211.992C223.041 205.568 230.446 196.055 233.524 195.593" stroke="white" stroke-linecap="round" stroke-linejoin="round"/>
<path d="M152.517 238.021C151.824 237.987 151.146 237.802 150.532 237.478C140.604 232.298 132.883 223.736 128.235 217.593C126.427 215.245 124.764 212.789 123.253 210.24L125.636 200.032C125.636 200.032 127.878 205.872 136.89 211.612C145.901 217.353 156.605 219.245 160.069 225.044C163.135 230.096 157.733 238.272 152.517 238.021Z" fill="white"/>
<path opacity="0.4" d="M152.517 238.021C152.407 237.282 152.211 236.559 151.933 235.866C149.849 230.645 137.234 220.267 137.234 220.267C134.232 220.174 130.933 218.924 128.246 217.593C126.435 215.245 124.768 212.789 123.253 210.24L125.636 200.032C125.636 200.032 127.878 205.872 136.89 211.612C145.901 217.353 156.605 219.245 160.069 225.044C163.135 230.096 157.733 238.272 152.517 238.021Z" fill="#327D83"/>
<path d="M152.517 238.021C151.824 237.987 151.146 237.802 150.532 237.478C140.604 232.298 132.883 223.736 128.235 217.593C126.427 215.245 124.764 212.789 123.253 210.24L125.636 200.032C125.636 200.032 127.878 205.872 136.89 211.612C145.901 217.353 156.605 219.245 160.069 225.044C163.135 230.096 157.733 238.272 152.517 238.021Z" stroke="#263238" stroke-linecap="round" stroke-linejoin="round"/>
<path d="M130.033 209.621C130.033 209.621 128.801 215.064 125.554 213.843C123.802 213.183 120.427 207.951 119.79 205.311L130.033 209.621Z" fill="white" stroke="#263238" stroke-linecap="round" stroke-linejoin="round"/>
<path d="M115.72 176.105L118.371 174.739C118.371 174.739 125.864 174.803 130.512 178.581C134.735 182.015 136.878 187.394 136.878 187.394C136.878 187.394 153.282 178.336 170.037 183.534L176.87 221.616L145.457 223.672L125.852 205.048L115.72 176.105Z" fill="white" stroke="#263238" stroke-linecap="round" stroke-linejoin="round"/>
<path d="M179.031 223.141C179.031 223.141 175.346 223.03 170.417 223.193C162.965 223.427 152.669 224.268 147.962 227.007L147.74 226.931L143.43 225.424L143.343 225.296C142.549 224.128 136.142 214.93 126.991 211.186L114.049 175.025C114.049 175.025 127.481 175.609 134.822 187.744L138.507 189.076C138.507 189.076 160.436 182.582 172.712 184.918L179.031 223.141Z" fill="#327D83"/>
<path opacity="0.3" d="M143.343 225.301C142.549 224.133 136.142 214.935 126.991 211.192L114.049 175.031C114.049 175.031 127.481 175.615 134.822 187.75L143.343 225.301Z" fill="black" fill-opacity="0.7"/>
<path opacity="0.3" d="M170.417 223.193C162.965 223.427 152.669 224.268 147.962 227.007L147.74 226.931L139.132 190.384C139.132 190.384 146.175 188.801 148.342 189.601C148.336 189.613 162.656 200.178 170.417 223.193Z" fill="black" fill-opacity="0.7"/>
<path d="M179.031 223.141C179.031 223.141 175.346 223.03 170.417 223.193C162.965 223.427 152.669 224.268 147.962 227.007L147.74 226.931L143.43 225.424L143.343 225.296C142.549 224.128 136.142 214.93 126.991 211.186L114.049 175.025C114.049 175.025 127.481 175.609 134.822 187.744L138.507 189.076C138.507 189.076 160.436 182.582 172.712 184.918L179.031 223.141Z" stroke="#263238" stroke-linecap="round" stroke-linejoin="round"/>
<path d="M138.519 189.082L146.969 224.14" stroke="#263238" stroke-linecap="round" stroke-linejoin="round"/>
<path d="M143.43 225.43L135.219 190.396" stroke="#263238" stroke-linecap="round" stroke-linejoin="round"/>
<path d="M122.57 210.27C120.695 209.75 116.917 198.484 118.645 193.631C118.645 193.631 120.701 190.063 121.565 189.818C122.874 189.438 128.153 189.549 127.896 190.437C127.312 192.493 123.259 192.458 123.259 192.458L121.945 194.864L121.998 196.189C121.998 196.189 123.907 194.799 124.608 194.84C124.97 194.84 126.839 195.775 128.322 196.557C129.59 197.229 130.366 197.597 130.074 198.204C129.134 200.225 125.134 198.788 125.134 198.788L123.627 201.06C123.627 201.06 125.081 201.311 125.718 201.381C126.354 201.451 131.639 204.973 131.482 205.411C130.857 207.128 125.846 205.27 125.846 205.27L124.958 206.012C124.958 206.012 128.649 206.964 129.046 207.104C129.63 207.32 131.879 209.049 131.844 209.248C131.575 210.766 128.474 209.65 128.474 209.65L125.759 209.54C125.345 209.904 124.847 210.161 124.31 210.287" fill="white"/>
<path d="M122.57 210.27C120.695 209.75 116.917 198.484 118.645 193.631C118.645 193.631 120.701 190.063 121.565 189.818C122.874 189.438 128.153 189.549 127.896 190.437C127.312 192.493 123.259 192.458 123.259 192.458L121.945 194.864L121.998 196.189C121.998 196.189 123.907 194.799 124.608 194.84C124.97 194.84 126.839 195.775 128.322 196.557C129.59 197.229 130.366 197.597 130.074 198.204C129.134 200.225 125.134 198.788 125.134 198.788L123.627 201.06C123.627 201.06 125.081 201.311 125.718 201.381C126.354 201.451 131.639 204.973 131.482 205.411C130.857 207.128 125.846 205.27 125.846 205.27L124.958 206.012C124.958 206.012 128.649 206.964 129.046 207.104C129.63 207.32 131.879 209.049 131.844 209.248C131.575 210.766 128.474 209.65 128.474 209.65L125.759 209.54C125.345 209.904 124.847 210.161 124.31 210.287" stroke="#263238" stroke-linecap="round" stroke-linejoin="round"/>
<path d="M121.974 196.189C121.974 196.189 120.222 197.661 119.772 198.087C119.323 198.513 119.434 199.868 119.434 199.868" stroke="#263238" stroke-linecap="round" stroke-linejoin="round"/>
<path d="M120.707 202.858C120.707 204.342 121.7 205.241 122.155 205.72C122.611 206.199 121.425 207.501 122.739 208.436" stroke="#263238" stroke-linecap="round" stroke-linejoin="round"/>
<path d="M207.209 249.876C203.501 250.887 199.471 244.369 194.554 237.256C191.307 232.584 187.674 227.603 183.499 224.408C183.166 224.157 182.827 223.912 182.488 223.678L184.929 211.414C189.999 214.071 193.14 218.329 198.402 222.703C206.87 229.752 214.375 234.079 216.454 237.198C218.533 240.316 213.563 248.142 207.209 249.876Z" fill="white"/>
<path opacity="0.4" d="M194.554 237.25C191.307 232.578 187.674 227.597 183.499 224.402C184.049 224.43 184.599 224.347 185.116 224.157C185.116 224.157 191.716 229.512 194.554 237.25Z" fill="#327D83"/>
<path d="M207.209 249.876C203.501 250.887 199.471 244.369 194.554 237.256C191.307 232.584 187.674 227.603 183.499 224.408C183.166 224.157 182.827 223.912 182.488 223.678L184.929 211.414C189.999 214.071 193.14 218.329 198.402 222.703C206.87 229.752 214.375 234.079 216.454 237.198C218.533 240.316 213.563 248.142 207.209 249.876Z" stroke="#263238" stroke-linecap="round" stroke-linejoin="round"/>
<path d="M186.296 223.194C186.042 223.647 185.624 223.986 185.128 224.14C184.996 224.191 184.862 224.236 184.725 224.274H184.614C180.695 225.296 171.877 223.17 171.877 223.17C171.877 223.17 166.101 220.425 165.751 219.777C165.507 219.263 165.29 218.737 165.103 218.2L164.945 217.739C164.945 217.739 162.866 216.571 162.609 215.66C162.352 214.749 161.914 214.492 163.193 214.328C164.472 214.165 171.369 214.328 171.369 214.328L163.864 211.268C163.864 211.268 158.895 208.763 158.433 207.881C157.972 206.999 157.394 206.415 159.934 206.766C162.475 207.116 168.023 208.728 168.023 208.728L172.397 209.656L168.052 207.805C168.052 207.805 159.502 206.771 161.12 204.114H165.973C168.722 204.236 171.457 204.583 174.149 205.154C175.562 205.586 184.906 211.391 184.906 211.391" fill="white"/>
<path opacity="0.4" d="M184.602 224.297C180.684 225.319 171.865 223.193 171.865 223.193C171.865 223.193 166.09 220.449 165.739 219.8C165.495 219.287 165.279 218.76 165.091 218.224L172.181 219C171.933 219.447 171.803 219.949 171.803 220.46C171.803 220.971 171.933 221.474 172.181 221.92C172.969 223.339 181.951 224.776 184.602 224.297Z" fill="#327D83"/>
<path d="M186.296 223.194C186.042 223.647 185.624 223.986 185.128 224.14C184.996 224.191 184.862 224.236 184.725 224.274H184.614C180.695 225.296 171.877 223.17 171.877 223.17C171.877 223.17 166.101 220.425 165.751 219.777C165.507 219.263 165.29 218.737 165.103 218.2L164.945 217.739C164.945 217.739 162.866 216.571 162.609 215.66C162.352 214.749 161.914 214.492 163.193 214.328C164.472 214.165 171.369 214.328 171.369 214.328L163.864 211.268C163.864 211.268 158.895 208.763 158.433 207.881C157.972 206.999 157.394 206.415 159.934 206.766C162.475 207.116 168.023 208.728 168.023 208.728L172.397 209.656L168.052 207.805C168.052 207.805 159.502 206.771 161.12 204.114H165.973C168.722 204.236 171.457 204.583 174.149 205.154C175.562 205.586 184.906 211.391 184.906 211.391" stroke="#263238" stroke-linecap="round" stroke-linejoin="round"/>
<path d="M164.933 217.762L173.465 219.018" stroke="#263238" stroke-linecap="round" stroke-linejoin="round"/>
<path d="M79.8795 243.89L101.266 250.314L140.394 241.385C140.394 241.385 116.496 234.599 116.274 234.768C116.052 234.938 79.8795 243.89 79.8795 243.89Z" fill="#327D83"/>
<path opacity="0.3" d="M79.8795 243.89L101.266 250.314L140.394 241.385C140.394 241.385 116.496 234.599 116.274 234.768C116.052 234.938 79.8795 243.89 79.8795 243.89Z" fill="black" fill-opacity="0.7"/>
<path d="M79.8795 243.89L101.266 250.314L140.394 241.385C140.394 241.385 116.496 234.599 116.274 234.768C116.052 234.938 79.8795 243.89 79.8795 243.89Z" stroke="#263238" stroke-linecap="round" stroke-linejoin="round"/>
<path d="M80.189 236.356C78.6881 236.462 78.3144 241.869 79.8795 243.89L114.429 236.718L117.197 230.166L80.189 236.356Z" fill="#327D83"/>
<path opacity="0.3" d="M80.189 236.356C78.6881 236.462 78.3144 241.869 79.8795 243.89L114.429 236.718L117.197 230.166L80.189 236.356Z" fill="black" fill-opacity="0.7"/>
<path d="M80.189 236.356C78.6881 236.462 78.3144 241.869 79.8795 243.89L114.429 236.718L117.197 230.166L80.189 236.356Z" stroke="#263238" stroke-linecap="round" stroke-linejoin="round"/>
<path d="M138.718 236.281C138.718 236.281 138.204 239.125 138.536 240.877L101.225 249.322L81.5556 243.528C81.5556 243.528 79.5116 239.913 81.2928 237.104L117.232 231.001L138.718 236.281Z" fill="white" stroke="#263238" stroke-linecap="round" stroke-linejoin="round"/>
<path d="M80.189 236.356L117.197 230.166L140.177 235.988L101.528 243.691L80.189 236.356Z" fill="#327D83" stroke="#263238" stroke-linecap="round" stroke-linejoin="round"/>
<path d="M81.5031 239.814L101.073 245.642L133.105 239.195" stroke="#263238" stroke-linecap="round" stroke-linejoin="round"/>
<path d="M138.431 239.791L103.987 247.137" stroke="#263238" stroke-linecap="round" stroke-linejoin="round"/>
<path d="M81.9644 242.109C82.2622 242.138 96.7162 246.588 96.7162 246.588" stroke="#263238" stroke-linecap="round" stroke-linejoin="round"/>
<path d="M135.616 238.441L138.355 237.998" stroke="#263238" stroke-linecap="round" stroke-linejoin="round"/>
<path d="M100.436 247.669L98.9822 247.342" stroke="#263238" stroke-linecap="round" stroke-linejoin="round"/>
<path d="M81.2927 237.104C82.0586 237.986 82.5017 239.103 82.5495 240.27C82.5972 241.437 82.2467 242.586 81.5555 243.528C80.9157 242.589 80.5519 241.489 80.5054 240.354C80.459 239.218 80.7317 238.092 81.2927 237.104Z" fill="#263238"/>
<path opacity="0.3" d="M81.2927 237.104C82.0586 237.986 82.5017 239.103 82.5495 240.27C82.5972 241.437 82.2467 242.586 81.5555 243.528C80.9157 242.589 80.5519 241.489 80.5054 240.354C80.459 239.218 80.7317 238.092 81.2927 237.104Z" fill="white" fill-opacity="0.7"/>
<path d="M81.2927 237.104C82.0586 237.986 82.5017 239.103 82.5495 240.27C82.5972 241.437 82.2467 242.586 81.5555 243.528C80.9157 242.589 80.5519 241.489 80.5054 240.354C80.459 239.218 80.7317 238.092 81.2927 237.104Z" stroke="#263238" stroke-linecap="round" stroke-linejoin="round"/>
<path d="M161.225 245.642L198.572 247.172L194.933 260.026L148.99 258.274L161.225 245.642Z" fill="white"/>
<path opacity="0.4" d="M161.225 245.642L198.572 247.172L194.933 260.026L148.99 258.274L161.225 245.642Z" fill="#327D83"/>
<path d="M161.225 245.642L198.572 247.172L194.933 260.026L148.99 258.274L161.225 245.642Z" stroke="#263238" stroke-linecap="round" stroke-linejoin="round"/>
</svg>
