<svg width="20" height="22" viewBox="0 0 20 22" fill="none" xmlns="http://www.w3.org/2000/svg">
<g clip-path="url(#clip0_164_313)">
<path d="M15.8333 19.8949H4.16663C3.50358 19.8949 2.8677 19.6091 2.39886 19.1003C1.93002 18.5916 1.66663 17.9015 1.66663 17.182V2.71291C1.66663 2.47307 1.75442 2.24305 1.9107 2.07346C2.06698 1.90387 2.27895 1.80859 2.49996 1.80859H14.1666C14.3876 1.80859 14.5996 1.90387 14.7559 2.07346C14.9122 2.24305 15 2.47307 15 2.71291V13.5647H18.3333V17.182C18.3333 17.9015 18.0699 18.5916 17.6011 19.1003C17.1322 19.6091 16.4963 19.8949 15.8333 19.8949ZM15 15.3734V17.182C15 17.4218 15.0878 17.6518 15.244 17.8214C15.4003 17.991 15.6123 18.0863 15.8333 18.0863C16.0543 18.0863 16.2663 17.991 16.4225 17.8214C16.5788 17.6518 16.6666 17.4218 16.6666 17.182V15.3734H15ZM4.99996 6.33018V8.13882H11.6666V6.33018H4.99996ZM4.99996 9.94745V11.7561H11.6666V9.94745H4.99996ZM4.99996 13.5647V15.3734H9.16663V13.5647H4.99996Z" fill="#95A4A6"/>
</g>
<defs>
<clipPath id="clip0_164_313">
<rect width="20" height="21.7036" fill="white"/>
</clipPath>
</defs>
</svg>
