<svg width="30" height="187" viewBox="0 0 30 187" fill="none" xmlns="http://www.w3.org/2000/svg">
<path d="M24.1797 182.02C29.4824 176.718 29.4824 168.12 24.1797 162.818C18.877 157.515 10.2797 157.515 4.97707 162.818C-0.325596 168.12 -0.325596 176.718 4.97707 182.02C10.2797 187.323 18.877 187.323 24.1797 182.02Z" stroke="#263238" stroke-width="2" stroke-linecap="round" stroke-linejoin="round"/>
<path d="M14.5794 186C18.2886 186 21.2955 179.921 21.2955 172.422C21.2955 164.923 18.2886 158.844 14.5794 158.844C10.8701 158.844 7.86322 164.923 7.86322 172.422C7.86322 179.921 10.8701 186 14.5794 186Z" stroke="#263238" stroke-width="2" stroke-linecap="round" stroke-linejoin="round"/>
<path d="M5.23511 162.815C7.78007 165.229 11.1605 166.565 14.6683 166.542C18.176 166.519 21.5387 165.139 24.052 162.692" stroke="#263238" stroke-width="2" stroke-linecap="round" stroke-linejoin="round"/>
<path d="M23.9586 182.064C21.4096 179.625 18.0111 178.274 14.4832 178.298C10.9554 178.322 7.57557 179.719 5.05993 182.192" stroke="#263238" stroke-width="2" stroke-linecap="round" stroke-linejoin="round"/>
<path d="M1.00112 172.422H28.1578" stroke="#263238" stroke-width="2" stroke-linecap="round" stroke-linejoin="round"/>
<path d="M14.5794 158.844V186" stroke="#263238" stroke-width="2" stroke-linecap="round" stroke-linejoin="round"/>
<path d="M14.6437 154.551V153.091" stroke="#263238" stroke-linecap="round" stroke-linejoin="round"/>
<path d="M14.6437 150.124V3.43758" stroke="#263238" stroke-linecap="round" stroke-linejoin="round" stroke-dasharray="5.07 5.07"/>
<path d="M14.6437 1.96005V0.500012" stroke="#263238" stroke-linecap="round" stroke-linejoin="round"/>
</svg>
