<svg width="30" height="37" viewBox="0 0 30 37" fill="none" xmlns="http://www.w3.org/2000/svg">
<g clip-path="url(#clip0_164_231)">
<path d="M23.75 26.2499H6.25C5.91848 26.2499 5.60054 26.1182 5.36612 25.8838C5.1317 25.6494 5 25.3314 5 24.9999V13.7499H1.25L14.1587 2.0149C14.3889 1.8055 14.6889 1.68945 15 1.68945C15.3111 1.68945 15.6111 1.8055 15.8412 2.0149L28.75 13.7499H25V24.9999C25 25.3314 24.8683 25.6494 24.6339 25.8838C24.3995 26.1182 24.0815 26.2499 23.75 26.2499ZM7.5 23.7499H22.5V11.4461L15 4.62865L7.5 11.4461V23.7499ZM10 18.7499H20V21.2499H10V18.7499Z" fill="#337E84"/>
</g>
<rect x="2" y="35" width="25" height="2" fill="#337E84"/>
<defs>
<clipPath id="clip0_164_231">
<rect width="30" height="30" fill="white"/>
</clipPath>
</defs>
</svg>
