<svg width="263" height="243" viewBox="0 0 263 243" fill="none" xmlns="http://www.w3.org/2000/svg">
<path d="M220.9 223.575C230.124 217.583 237.789 209.48 243.261 199.938C276.687 141.801 269.137 55.9913 204.766 19.2092C175.013 2.20992 132.184 -8.54987 100.033 8.91139C73.9525 23.0745 57.9649 49.7342 44.7432 73.9964C36.4219 89.253 29.5742 105.673 19.3349 119.948C6.04306 138.462 -8.58206 163.186 6.1834 184.693C26.3054 213.991 64.3096 227.382 98.776 236.153C136.166 245.708 178.205 247.065 212.742 228.429C215.537 226.935 218.256 225.318 220.9 223.575Z" fill="#92E3A9"/>
<path opacity="0.7" d="M220.9 223.575C230.124 217.583 237.789 209.48 243.261 199.938C276.687 141.801 269.137 55.9913 204.766 19.2092C175.013 2.20992 132.184 -8.54987 100.033 8.91139C73.9525 23.0745 57.9649 49.7342 44.7432 73.9964C36.4219 89.253 29.5742 105.673 19.3349 119.948C6.04306 138.462 -8.58206 163.186 6.1834 184.693C26.3054 213.991 64.3096 227.382 98.776 236.153C136.166 245.708 178.205 247.065 212.742 228.429C215.537 226.935 218.256 225.318 220.9 223.575Z" fill="white"/>
</svg>
