<svg width="109" height="35" viewBox="0 0 109 35" fill="none" xmlns="http://www.w3.org/2000/svg">
<circle cx="91.5" cy="17.5" r="17" stroke="black"/>
<g clip-path="url(#clip0_162_598)">
<path d="M93 14H98L92 20L86 14H91V7H93V14ZM84 23H100V16H102V24C102 24.2652 101.895 24.5196 101.707 24.7071C101.52 24.8946 101.265 25 101 25H83C82.7348 25 82.4804 24.8946 82.2929 24.7071C82.1054 24.5196 82 24.2652 82 24V16H84V23Z" fill="#348085"/>
</g>
<circle cx="17.5" cy="17.5" r="17" stroke="black"/>
<g clip-path="url(#clip1_162_598)">
<path d="M18 18.535V8H26V11H20V22C19.9998 22.8805 19.7091 23.7363 19.1729 24.4348C18.6368 25.1332 17.8852 25.6352 17.0346 25.863C16.1841 26.0907 15.2822 26.0315 14.4688 25.6944C13.6553 25.3573 12.9758 24.7613 12.5357 23.9987C12.0955 23.2361 11.9193 22.3496 12.0343 21.4767C12.1493 20.6037 12.5491 19.7931 13.1717 19.1705C13.7944 18.5479 14.605 18.1482 15.478 18.0333C16.351 17.9184 17.2375 18.0948 18 18.535Z" fill="#348085"/>
</g>
<defs>
<clipPath id="clip0_162_598">
<rect width="24" height="24" fill="white" transform="translate(80 4)"/>
</clipPath>
<clipPath id="clip1_162_598">
<rect width="24" height="24" fill="white" transform="translate(6 5)"/>
</clipPath>
</defs>
</svg>
