<svg width="126" height="92" viewBox="0 0 126 92" fill="none" xmlns="http://www.w3.org/2000/svg">
<path d="M63.0453 0.0241008C87.6852 0.405433 108.289 9.76273 124.498 28.4773C125.019 29.0436 125.419 29.7095 125.675 30.4346C125.931 31.1598 126.038 31.9293 125.988 32.6967C125.939 33.4642 125.735 34.2137 125.388 34.9001C125.041 35.5865 124.559 36.1956 123.97 36.6906C123.399 37.1775 122.735 37.5449 122.02 37.7711C121.304 37.9974 120.55 38.0779 119.802 38.0079C119.054 37.9379 118.329 37.7188 117.667 37.3636C117.006 37.0084 116.422 36.5242 115.951 35.9397C110.165 29.1048 103.131 23.4344 95.2238 19.2315C83.0689 12.774 69.2541 10.1178 55.5712 11.6074C41.8883 13.0971 28.9687 18.6638 18.4881 27.5856C15.5078 30.1024 12.8561 33.0298 10.1692 35.8752C7.82254 38.345 4.41402 38.7381 1.95589 36.6202C-0.502232 34.5024 -0.654763 30.9648 1.56283 28.4069C15.1382 12.6648 32.2258 3.36613 52.8256 0.511029C54.4389 0.288096 56.064 0.117966 57.6949 0.0417C59.4725 -0.040433 61.2618 0.0241008 63.0453 0.0241008Z" fill="#263238"/>
<path d="M65.081 22.8921C80.6687 23.2969 95.3294 29.932 106.857 43.2845C109.134 45.9128 108.87 49.3037 106.341 51.4978C103.942 53.5629 100.474 53.2871 98.2393 50.7176C92.2201 43.748 84.9279 38.6381 76.034 36.2387C57.912 31.3459 42.2422 35.8045 29.1009 49.2216C28.6139 49.7202 28.1622 50.2541 27.6987 50.7762C26.7092 51.9183 25.3064 52.6204 23.7992 52.7283C22.2919 52.8361 20.8035 52.3407 19.6614 51.3512C18.5194 50.3616 17.8172 48.9589 17.7094 47.4516C17.6016 45.9443 18.0969 44.4559 19.0865 43.3139C24.1568 37.2977 30.414 32.3926 37.4667 28.9054C45.5568 24.875 54.1045 22.9331 65.081 22.8921Z" fill="#263238"/>
<path d="M90.7299 61.8998C90.733 63.0528 90.3865 64.1797 89.7361 65.1317C89.0857 66.0838 88.1619 66.8163 87.0867 67.2326C85.9937 67.6633 84.7932 67.741 83.6537 67.4549C82.5143 67.1687 81.493 66.533 80.7332 65.6369C78.3574 62.8541 75.3804 60.6475 72.0271 59.1836C62.6404 55.2177 52.3445 57.6817 45.3808 65.543C43.7322 67.4086 41.673 68.0833 39.2912 67.3617C38.3829 67.0853 37.5581 66.5863 36.8917 65.91C36.2254 65.2337 35.7387 64.4016 35.4758 63.4893C35.2129 62.577 35.1821 61.6135 35.3864 60.6864C35.5907 59.7592 36.0234 58.8978 36.6453 58.1804C48.5663 43.8071 70.4959 41.7538 84.8398 53.757C86.4799 55.1224 87.9901 56.6366 89.3513 58.2801C90.1433 59.2423 90.4835 60.574 91.0291 61.7415L90.7299 61.8998Z" fill="#263238"/>
<path d="M63.0219 91.843C60.7534 91.8499 58.534 91.1826 56.6455 89.9257C54.757 88.6689 53.2845 86.8792 52.4151 84.7839C51.5457 82.6886 51.3185 80.3823 51.7623 78.1576C52.2062 75.9329 53.3011 73.8904 54.9081 72.2892C56.5151 70.688 58.5616 69.6004 60.7878 69.1646C63.0141 68.7287 65.3196 68.9643 67.4117 69.8412C69.5039 70.7182 71.2882 72.1971 72.5383 74.0901C73.7883 75.9832 74.4476 78.2049 74.4325 80.4734C74.4263 83.494 73.2208 86.3885 71.081 88.5205C68.9413 90.6526 66.0425 91.8476 63.0219 91.843Z" fill="#263238"/>
</svg>
