<svg width="19" height="18" viewBox="0 0 19 18" fill="none" xmlns="http://www.w3.org/2000/svg">
<path d="M8.45212 0.696674C8.75384 -0.231917 10.0675 -0.231918 10.3693 0.696672L11.8999 5.40736C12.0348 5.82264 12.4218 6.10381 12.8584 6.10381H17.8115C18.7879 6.10381 19.1939 7.35322 18.404 7.92712L14.3968 10.8385C14.0436 11.0951 13.8957 11.5501 14.0307 11.9654L15.5613 16.676C15.863 17.6046 14.8002 18.3768 14.0103 17.8029L10.0031 14.8915C9.64986 14.6349 9.17152 14.6349 8.81826 14.8915L4.81111 17.8029C4.0212 18.3768 2.95839 17.6046 3.26011 16.676L4.7907 11.9654C4.92563 11.5501 4.77782 11.0951 4.42456 10.8385L0.417408 7.92712C-0.372499 7.35322 0.033459 6.10381 1.00984 6.10381H5.96295C6.3996 6.10381 6.78659 5.82264 6.92152 5.40736L8.45212 0.696674Z" fill="#FFA235"/>
</svg>
