<svg width="51" height="67" viewBox="0 0 51 67" fill="none" xmlns="http://www.w3.org/2000/svg">
<path d="M40.9678 43.6976C39.521 40.7947 37.2275 38.3991 34.3903 36.8274C31.5531 35.2557 28.3057 34.5819 25.0774 34.8951C21.8491 35.2083 18.7918 36.4937 16.3096 38.5815C13.8274 40.6692 12.0372 43.461 11.1754 46.5879C10.918 46.5879 10.6606 46.547 10.4031 46.547C7.90862 46.4951 5.49004 47.4064 3.65001 49.0915C1.80997 50.7766 0.689971 53.1059 0.522752 55.5954C0.355534 58.0848 1.15395 60.543 2.7521 62.459C4.35024 64.375 6.62521 65.6016 9.10425 65.8839V66.0009H39.0311C41.8795 66.0679 44.6463 65.0473 46.7689 63.1467C48.8914 61.2461 50.2102 58.6083 50.4569 55.7699C50.7036 52.9315 49.8598 50.1057 48.097 47.8674C46.3342 45.6291 43.7849 44.1464 40.9678 43.721V43.6976Z" fill="white" stroke="#263238" stroke-linecap="round" stroke-linejoin="round"/>
<path d="M26.604 34.8217V33.359" stroke="#263238" stroke-linecap="round" stroke-linejoin="round"/>
<path d="M26.604 30.5037V3.39103" stroke="#263238" stroke-linecap="round" stroke-linejoin="round" stroke-dasharray="4.88 4.88"/>
<path d="M26.604 1.96363V0.500926" stroke="#263238" stroke-linecap="round" stroke-linejoin="round"/>
</svg>
