<svg width="10" height="12" viewBox="0 0 10 12" fill="none" xmlns="http://www.w3.org/2000/svg">
<path d="M2.5 8.69895H7.5V11.5986H2.5V8.69895ZM8.5 10.4387V7.53909H1.5V10.4387H0.5C0.367392 10.4387 0.240215 10.3776 0.146447 10.2689C0.0526784 10.1601 0 10.0126 0 9.85881V4.05951C0 3.9057 0.0526784 3.7582 0.146447 3.64944C0.240215 3.54068 0.367392 3.47958 0.5 3.47958H9.5C9.63261 3.47958 9.75979 3.54068 9.85355 3.64944C9.94732 3.7582 10 3.9057 10 4.05951V9.85881C10 10.0126 9.94732 10.1601 9.85355 10.2689C9.75979 10.3776 9.63261 10.4387 9.5 10.4387H8.5ZM1.5 4.63944V5.7993H3V4.63944H1.5ZM2.5 0H7.5C7.63261 0 7.75979 0.0610996 7.85355 0.169858C7.94732 0.278615 8 0.426123 8 0.57993V2.31972H2V0.57993C2 0.426123 2.05268 0.278615 2.14645 0.169858C2.24021 0.0610996 2.36739 0 2.5 0Z" fill="#48989F"/>
</svg>
