<svg width="20" height="22" viewBox="0 0 20 22" fill="none" xmlns="http://www.w3.org/2000/svg">
<g clip-path="url(#clip0_164_329)">
<path d="M3.33329 13.5647H4.99996V18.0863H15V3.61723H4.99996V8.13882H3.33329V2.71291C3.33329 2.47307 3.42109 2.24305 3.57737 2.07346C3.73365 1.90387 3.94561 1.80859 4.16663 1.80859H15.8333C16.0543 1.80859 16.2663 1.90387 16.4225 2.07346C16.5788 2.24305 16.6666 2.47307 16.6666 2.71291V18.9906C16.6666 19.2305 16.5788 19.4605 16.4225 19.6301C16.2663 19.7997 16.0543 19.8949 15.8333 19.8949H4.16663C3.94561 19.8949 3.73365 19.7997 3.57737 19.6301C3.42109 19.4605 3.33329 19.2305 3.33329 18.9906V13.5647ZM8.33329 9.94745V7.2345L12.5 10.8518L8.33329 14.469V11.7561H1.66663V9.94745H8.33329Z" fill="#DC5740"/>
</g>
<defs>
<clipPath id="clip0_164_329">
<rect width="20" height="21.7036" fill="white"/>
</clipPath>
</defs>
</svg>
