<svg width="19" height="154" viewBox="0 0 19 154" fill="none" xmlns="http://www.w3.org/2000/svg">
<path d="M15.1722 138.807C14.5015 138.81 13.8501 139.032 13.3173 139.439L5.9506 133.91C6.08757 133.561 6.15706 133.19 6.15539 132.816C6.16201 132.12 5.933 131.443 5.50566 130.895C5.07831 130.346 4.47783 129.959 3.80203 129.795C3.12623 129.631 2.41493 129.701 1.78402 129.994C1.15311 130.286 0.639755 130.783 0.327594 131.405C0.015434 132.026 -0.0771397 132.735 0.0649546 133.415C0.207049 134.096 0.575437 134.708 1.11011 135.153C1.64478 135.598 2.31422 135.848 3.00937 135.863C3.70453 135.879 4.38444 135.658 4.93833 135.238L12.3051 140.762C12.1714 141.113 12.102 141.486 12.1003 141.862C12.1016 142.236 12.171 142.607 12.3051 142.956L4.93833 148.48C4.38631 148.061 3.7092 147.842 3.01685 147.857C2.32451 147.872 1.65755 148.121 1.12418 148.562C0.590815 149.004 0.222339 149.613 0.0785324 150.29C-0.065274 150.968 0.0240276 151.674 0.331949 152.294C0.639871 152.914 1.14835 153.412 1.77488 153.707C2.40141 154.002 3.10924 154.077 3.78353 153.919C4.45782 153.761 5.059 153.38 5.48954 152.838C5.92008 152.296 6.15472 151.624 6.15539 150.931C6.1564 150.555 6.08694 150.182 5.9506 149.831L13.3173 144.308C13.706 144.601 14.1589 144.798 14.6386 144.882C15.1183 144.966 15.6111 144.934 16.0763 144.791C16.5415 144.647 16.9659 144.394 17.3143 144.054C17.6628 143.714 17.9253 143.295 18.0804 142.834C18.2354 142.372 18.2784 141.88 18.2059 141.399C18.1335 140.917 17.9475 140.46 17.6635 140.064C17.3794 139.669 17.0054 139.346 16.5722 139.124C16.139 138.901 15.6592 138.785 15.1722 138.784V138.807Z" fill="#263238"/>
<path d="M10.6433 37.9784V36.5156" stroke="#263238" stroke-linecap="round" stroke-linejoin="round"/>
<path d="M10.6433 33.3731V3.5317" stroke="#263238" stroke-linecap="round" stroke-linejoin="round" stroke-dasharray="5.37 5.37"/>
<path d="M10.6433 1.96378V0.500964" stroke="#263238" stroke-linecap="round" stroke-linejoin="round"/>
<path d="M10.6433 132.301V130.838" stroke="#263238" stroke-linecap="round" stroke-linejoin="round"/>
<path d="M10.6433 127.906V70.6633" stroke="#263238" stroke-linecap="round" stroke-linejoin="round" stroke-dasharray="5.02 5.02"/>
<path d="M10.6433 69.1947V67.7319" stroke="#263238" stroke-linecap="round" stroke-linejoin="round"/>
</svg>
