<svg width="292" height="292" viewBox="0 0 292 292" fill="none" xmlns="http://www.w3.org/2000/svg">
<path d="M268.926 183.195C260.622 205.44 243.657 229.512 219.777 236.643C183.697 247.412 179.387 276.495 114.768 273.797C105.333 273.449 95.9629 272.078 86.8233 269.709C82.3542 268.534 77.9652 267.073 73.6833 265.335C35.9336 250.04 16.2411 216.384 14.6001 181.175C12.4451 134.863 44.7578 112.788 65.7584 99.8642C86.7591 86.9403 112.075 36.8565 175.621 39.0056C185.326 39.3008 194.965 40.7136 204.347 43.2162C225.728 49.0037 247.464 61.7991 260.096 80.5163C261.042 81.9179 261.947 83.3604 262.812 84.8262C279.736 113.489 280.25 152.874 268.926 183.195Z" fill="#92E3A9"/>
<path opacity="0.8" d="M268.926 183.195C260.622 205.44 243.657 229.512 219.777 236.643C183.697 247.412 179.387 276.495 114.768 273.797C105.333 273.449 95.9629 272.078 86.8233 269.709C82.3542 268.534 77.9652 267.073 73.6833 265.335C35.9336 250.04 16.2411 216.384 14.6001 181.175C12.4451 134.863 44.7578 112.788 65.7584 99.8642C86.7591 86.9403 112.075 36.8565 175.621 39.0056C185.326 39.3008 194.965 40.7136 204.347 43.2162C225.728 49.0037 247.464 61.7991 260.096 80.5163C261.042 81.9179 261.947 83.3604 262.812 84.8262C279.736 113.489 280.25 152.874 268.926 183.195Z" fill="white"/>
<g opacity="0.3">
<path d="M83.4094 79.1672C90.9538 71.6228 90.9538 59.3909 83.4094 51.8464C75.865 44.302 63.6331 44.302 56.0886 51.8464C48.5442 59.3909 48.5442 71.6228 56.0886 79.1672C63.6331 86.7117 75.865 86.7117 83.4094 79.1672Z" fill="black"/>
<path d="M79.1021 74.0057C83.7937 68.8424 83.4114 60.8535 78.2481 56.1619C73.0849 51.4703 65.096 51.8526 60.4043 57.0159C55.7127 62.1791 56.0951 70.168 61.2583 74.8597C66.4216 79.5513 74.4105 79.1689 79.1021 74.0057Z" fill="white"/>
<path d="M69.7532 72.1939C73.4462 72.1939 76.44 69.2001 76.44 65.5071C76.44 61.8141 73.4462 58.8203 69.7532 58.8203C66.0602 58.8203 63.0664 61.8141 63.0664 65.5071C63.0664 69.2001 66.0602 72.1939 69.7532 72.1939Z" fill="black"/>
</g>
<path d="M62.0793 69.3322L61.5537 73.3852L69.0873 65.8633L58.441 65.9567L61.6997 68.4212L42.9533 76.2702L37.6973 75.3533L32.71 77.444L35.992 79.2894C35.9544 79.3537 35.9323 79.4258 35.9275 79.5001C35.9226 79.5744 35.9351 79.6487 35.9641 79.7173C35.993 79.7859 36.0375 79.8468 36.094 79.8952C36.1506 79.9436 36.2176 79.9781 36.2899 79.9961L35.3029 83.6402L40.2961 81.5495L43.2161 77.2104L62.0793 69.3322Z" fill="#263238"/>
<path d="M215.724 93.5744C215.724 93.5744 216.606 84.756 213.078 80.7848C209.551 76.8136 204.26 81.6666 205.58 86.9576C206.9 92.2487 215.724 93.5744 215.724 93.5744Z" fill="#92E3A9"/>
<path d="M205.568 132.86C205.568 132.86 206.964 119.136 201.48 112.934C195.996 106.732 187.739 114.312 189.8 122.558C191.862 130.804 205.568 132.86 205.568 132.86Z" fill="#92E3A9"/>
<path d="M202.613 155.134C202.613 155.134 201.106 141.404 194.437 136.498C187.768 131.593 181.28 140.697 185.011 148.336C188.743 155.975 202.613 155.134 202.613 155.134Z" fill="#92E3A9"/>
<path d="M216.606 166.627C208.488 168.192 201.211 179.936 201.211 179.936C201.211 179.936 213.37 186.658 220.022 181.373C226.674 176.087 224.729 165.067 216.606 166.627Z" fill="#92E3A9"/>
<path d="M219.292 187.318C207.671 189.555 197.27 206.356 197.27 206.356C197.27 206.356 214.667 215.975 224.186 208.406C233.705 200.837 230.914 185.081 219.292 187.318Z" fill="#92E3A9"/>
<path d="M200.312 180.123C200.68 180.123 200.896 180.123 200.896 180.123C200.896 180.123 200.82 179.469 200.639 178.371C201.568 173.168 202.508 166.621 203.623 158.795L204.091 155.537C207.256 157.038 216.355 160.717 221.768 156.401C228.42 151.11 226.475 140.096 218.352 141.661C212.477 142.788 207.046 149.253 204.493 152.728C205.212 147.764 205.994 142.426 206.876 136.837C207.028 135.891 207.197 134.91 207.384 133.888C210.509 136.224 218.153 141.024 224.063 138.081C231.655 134.291 232.052 123.107 223.783 122.949C217.826 122.839 211.204 127.978 207.968 130.863C209.136 124.976 210.812 118.178 212.57 111.462C214.468 112.887 219.526 116.198 223.415 114.26C228.297 111.824 228.543 104.653 223.234 104.553C219.374 104.478 215.093 107.836 213.037 109.681C214.451 104.332 215.911 99.1047 217.236 94.497C219.421 96.0446 223.999 98.7135 227.579 96.9264C232.455 94.4911 232.707 87.3196 227.398 87.2203C224.022 87.1561 220.326 89.7082 218.054 91.5887C219.993 84.8902 221.511 79.9495 221.903 78.6706C223.876 77.3624 229.833 73.2744 230.826 70.8275C231.111 70.1276 231.254 69.3786 231.25 68.6232C231.245 67.8678 231.091 67.1207 230.797 66.4247C230.504 65.7287 230.076 65.0973 229.538 64.5666C229 64.0359 228.363 63.6163 227.664 63.3318C226.964 63.0473 226.215 62.9034 225.459 62.9083C224.704 62.9133 223.957 63.0669 223.261 63.3606C222.565 63.6543 221.933 64.0821 221.403 64.6198C220.872 65.1574 220.453 65.7944 220.168 66.4942C219.216 68.8302 220.489 75.4586 221.038 78.034L220.688 77.9231C220.635 78.0807 218.655 84.4814 216.103 93.3523L215.946 93.51L216.033 93.5859C214.661 98.3747 213.113 103.87 211.636 109.482C211.718 106.819 211.56 101.108 208.909 98.1295C205.405 94.1583 200.09 99.0113 201.416 104.302C202.584 109.033 209.767 110.586 211.274 110.866C209.294 118.418 207.437 126.091 206.216 132.474L205.942 132.755L206.135 132.918C205.889 134.203 205.673 135.441 205.492 136.609C204.237 144.563 203.156 152.015 202.233 158.591C201.352 164.752 200.587 170.119 199.845 174.657C198.747 170.259 196.615 164.338 192.703 161.458C186.039 156.547 179.545 165.657 183.277 173.296C186.133 179.136 194.916 180.018 198.887 180.106C198.735 180.888 198.589 181.636 198.437 182.348C197.853 185.18 196.884 192.983 195.944 201.544C194.636 195.237 191.564 184.684 185.099 179.936C175.568 172.928 166.277 185.946 171.614 196.872C176.094 206.047 190.799 206.672 195.401 206.637C194.139 218.591 193.018 230.452 192.93 231.363L194.309 231.492C194.349 231.077 198.251 189.858 199.792 182.658C199.967 181.852 200.137 181.04 200.312 180.123Z" fill="#92E3A9"/>
<path d="M95.6943 136.3C95.6943 136.3 95.1804 131.166 97.2361 128.859C99.2917 126.553 102.369 129.373 101.599 132.451C100.828 135.529 95.6943 136.3 95.6943 136.3Z" fill="#92E3A9"/>
<path d="M101.616 159.175C101.616 159.175 100.816 151.174 104.016 147.577C107.217 143.979 112.017 148.377 110.814 153.177C109.611 157.978 101.616 159.175 101.616 159.175Z" fill="#92E3A9"/>
<path d="M103.327 172.14C103.327 172.14 104.203 164.151 108.081 161.289C111.959 158.427 115.743 163.736 113.571 168.18C111.398 172.624 103.327 172.14 103.327 172.14Z" fill="#92E3A9"/>
<path d="M95.192 178.832C99.9224 179.743 104.156 186.582 104.156 186.582C104.156 186.582 97.0725 190.495 93.2006 187.417C89.3286 184.339 90.4499 177.921 95.192 178.832Z" fill="#92E3A9"/>
<path d="M93.6154 190.881C100.384 192.183 106.463 201.977 106.463 201.977C106.463 201.977 96.331 207.577 90.7888 203.174C85.2466 198.77 86.8468 189.578 93.6154 190.881Z" fill="#92E3A9"/>
<path d="M104.67 186.687C104.454 186.687 104.332 186.687 104.332 186.687C104.332 186.687 104.378 186.308 104.483 185.683C103.94 182.652 103.397 178.838 102.731 174.283C102.644 173.67 102.556 173.033 102.463 172.385C100.617 173.261 95.3264 175.405 92.1669 172.888C88.295 169.81 89.4279 163.398 94.1583 164.309C97.5806 164.968 100.74 168.724 102.229 170.733C101.809 167.813 101.353 164.729 100.839 161.476C100.75 160.927 100.65 160.355 100.541 159.759C98.7252 161.102 94.2751 163.917 90.8354 162.2C86.4028 159.993 86.1634 153.487 90.9989 153.394C94.4679 153.329 98.3164 156.314 100.203 158.001C99.5136 154.573 98.55 150.614 97.528 146.701C96.4184 147.536 93.4751 149.463 91.2091 148.336C88.3709 146.917 88.2249 142.741 91.3143 142.683C93.5627 142.636 96.0563 144.593 97.2535 145.667C96.4301 142.555 95.5775 139.512 94.8066 136.825C93.5335 137.725 90.8704 139.278 88.7855 138.239C85.9473 136.82 85.8013 132.644 88.8907 132.586C90.8529 132.551 93.0079 134.04 94.3219 135.132C93.1889 131.231 92.3071 128.357 92.0793 127.61C90.9113 126.851 87.4599 124.468 86.8817 123.043C86.5894 122.228 86.6234 121.332 86.9767 120.542C87.33 119.752 87.9752 119.129 88.7773 118.804C89.5793 118.479 90.4761 118.477 91.2798 118.798C92.0836 119.119 92.7321 119.738 93.0896 120.526C93.6736 121.893 92.9027 125.747 92.5815 127.242L92.7918 127.178C92.7918 127.271 93.9598 130.997 95.4548 136.16L95.5483 136.253L95.4957 136.3C96.2958 139.086 97.1952 142.286 98.0595 145.55C98.0069 144.003 98.1062 140.674 99.648 138.94C101.698 136.604 104.781 139.454 104.01 142.537C103.321 145.288 99.1457 146.193 98.2697 146.356C99.4377 150.754 100.501 155.222 101.19 158.947C101.245 158.999 101.298 159.053 101.347 159.111L101.236 159.204C101.377 159.952 101.505 160.67 101.61 161.348C102.346 165.985 102.965 170.318 103.508 174.149C104.022 177.735 104.466 180.859 104.898 183.493C105.535 180.929 106.779 177.484 109.056 175.808C112.934 172.946 116.718 178.249 114.546 182.699C112.881 186.098 107.766 186.612 105.459 186.664C105.546 187.12 105.634 187.558 105.722 187.966C106.072 189.619 106.621 194.157 107.17 199.144C107.929 195.477 109.722 189.327 113.483 186.553C119.031 182.465 124.439 190.057 121.332 196.417C118.727 201.755 110.166 202.117 107.485 202.099C108.221 209.06 108.875 215.963 108.928 216.495L108.122 216.571C108.122 216.325 105.827 192.329 104.933 188.136C104.859 187.688 104.772 187.205 104.67 186.687Z" fill="#92E3A9"/>
<path d="M32.6457 199.594C32.6457 199.594 31.2967 196.621 32.0617 194.817C32.8268 193.012 35.2445 194.087 35.4081 196.09C35.5716 198.093 32.6457 199.594 32.6457 199.594Z" fill="#92E3A9"/>
<path d="M40.8159 212.126C40.8159 212.126 38.7194 207.489 39.9049 204.68C41.0904 201.871 44.8689 203.512 45.12 206.66C45.3711 209.808 40.8159 212.126 40.8159 212.126Z" fill="#92E3A9"/>
<path d="M44.4835 219.584C44.4835 219.584 43.3914 214.608 45.1434 212.109C46.8954 209.609 50.2359 212.027 49.8154 215.134C49.3949 218.241 44.4835 219.584 44.4835 219.584Z" fill="#92E3A9"/>
<path d="M40.9561 225.22C43.9754 224.84 47.8882 228.052 47.8882 228.052C47.8882 228.052 44.4367 231.836 41.4642 230.774C38.4916 229.711 37.9602 225.634 40.9561 225.22Z" fill="#92E3A9"/>
<path d="M42.4569 232.765C46.7785 232.181 52.3849 236.818 52.3849 236.818C52.3849 236.818 47.4443 242.231 43.2278 240.713C39.0113 239.195 38.1295 233.355 42.4569 232.765Z" fill="#92E3A9"/>
<path d="M48.2385 228.011L48.0341 228.075C48.0341 228.075 47.9815 227.836 47.9173 227.439C46.9829 225.734 45.8791 223.555 44.571 220.951C44.3899 220.6 44.2089 220.238 44.022 219.87C43.0934 220.77 40.3486 223.123 37.9484 222.259C34.9992 221.19 34.3802 217.114 37.3994 216.705C39.5894 216.407 42.2466 218.019 43.549 218.936C42.7138 217.283 41.797 215.514 40.8392 213.68C40.6757 213.37 40.5005 213.049 40.3136 212.71C39.496 213.878 37.3936 216.477 34.9817 216.144C31.8806 215.718 30.4265 211.858 33.2998 210.824C35.3671 210.082 38.2871 211.099 39.7588 211.723C38.6492 209.808 37.2651 207.635 35.8577 205.486C35.3671 206.211 33.9889 207.963 32.4004 207.746C30.409 207.472 29.4804 204.996 31.32 204.336C32.6574 203.851 34.5495 204.523 35.4839 204.92C34.3626 203.22 33.2355 201.568 32.2252 200.114C31.6412 200.908 30.3622 202.379 28.9022 202.181C26.9108 201.906 25.9822 199.43 27.8218 198.77C28.9898 198.35 30.5842 198.805 31.5886 199.197C30.1228 197.083 29.0132 195.535 28.7212 195.138C27.8802 194.91 25.3165 194.186 24.6799 193.45C24.4852 193.241 24.3347 192.994 24.2374 192.725C24.1401 192.457 24.0981 192.171 24.1138 191.885C24.1295 191.6 24.2027 191.32 24.3289 191.064C24.4551 190.807 24.6318 190.579 24.8484 190.392C25.0649 190.205 25.3169 190.064 25.5893 189.977C25.8616 189.89 26.1488 189.859 26.4335 189.886C26.7181 189.912 26.9946 189.996 27.2462 190.132C27.4978 190.267 27.7194 190.453 27.8978 190.676C28.4818 191.389 28.8438 193.847 28.9548 194.811L29.0599 194.735C29.1008 194.782 30.5433 196.785 32.4822 199.582L32.5581 199.617C32.5598 199.631 32.5598 199.644 32.5581 199.658C33.6034 201.165 34.789 202.905 35.9686 204.692C35.6241 203.769 35.0109 201.772 35.5832 200.4C36.3482 198.601 38.766 199.67 38.9295 201.673C39.0755 203.466 36.7512 204.856 36.2606 205.13C37.8433 207.536 39.3967 210.001 40.5764 212.086L40.7049 212.156L40.6582 212.232C40.8918 212.652 41.1137 213.061 41.3181 213.446C42.6963 216.074 43.9461 218.556 45.0498 220.74C46.0835 222.79 46.9829 224.571 47.7771 226.072C47.6428 224.408 47.6895 222.084 48.7174 220.618C50.4694 218.118 53.8098 220.536 53.3894 223.643C53.0798 226.02 50.1131 227.363 48.7174 227.865C48.8634 228.116 49.0035 228.362 49.1437 228.589C49.6868 229.512 50.9366 232.123 52.2739 235.013C51.9878 232.677 51.8184 228.589 53.512 226.177C56.0174 222.603 60.8003 226.055 60.2222 230.505C59.7374 234.237 54.6742 236.187 53.0623 236.719C54.9136 240.748 56.7065 244.76 56.8466 245.064L56.3794 245.274C56.3152 245.134 50.0898 231.194 48.6998 228.858C48.548 228.585 48.3942 228.303 48.2385 228.011Z" fill="#92E3A9"/>
<path d="M260.598 215.694C260.598 215.694 262.759 213.247 264.686 213.207C266.614 213.166 266.66 215.811 264.897 216.781C263.133 217.75 260.598 215.694 260.598 215.694Z" fill="#92E3A9"/>
<path d="M252.516 228.285C252.516 228.285 255.886 224.472 258.94 224.402C261.994 224.332 262.018 228.49 259.267 229.973C256.516 231.456 252.516 228.285 252.516 228.285Z" fill="#92E3A9"/>
<path d="M247.242 234.675C247.242 234.675 251.33 231.644 254.326 232.21C257.322 232.777 256.493 236.824 253.491 237.729C250.489 238.634 247.242 234.675 247.242 234.675Z" fill="#92E3A9"/>
<path d="M240.608 233.775C242.22 236.362 240.871 241.274 240.871 241.274C240.871 241.274 236 239.674 235.767 236.549C235.533 233.425 239.008 231.188 240.608 233.775Z" fill="#92E3A9"/>
<path d="M234.359 238.237C236.666 241.94 234.733 248.965 234.733 248.965C234.733 248.965 227.772 246.67 227.427 242.202C227.083 237.735 232.047 234.535 234.359 238.237Z" fill="#92E3A9"/>
<path d="M241.064 241.566L240.924 241.402L241.455 241.04C242.623 239.481 244.165 237.589 245.998 235.323L246.764 234.382C245.56 233.904 242.29 232.368 242.092 229.816C241.852 226.691 245.321 224.46 246.933 227.047C248.101 228.916 247.715 232.006 247.418 233.571C248.586 232.128 249.824 230.581 251.114 228.94C251.33 228.659 251.558 228.356 251.786 228.064C250.378 227.795 247.155 226.942 246.472 224.606C245.59 221.599 248.516 218.69 250.63 220.886C252.154 222.469 252.422 225.558 252.458 227.147C253.748 225.348 255.173 223.199 256.546 221.038C255.687 220.88 253.52 220.343 253.071 218.807C252.487 216.88 254.385 215.011 255.74 216.419C256.727 217.446 256.908 219.45 256.908 220.466C257.994 218.743 259.045 217.032 259.962 215.519C258.992 215.315 257.124 214.748 256.709 213.335C256.125 211.402 258.023 209.539 259.378 210.947C260.242 211.846 260.476 213.487 260.546 214.562C261.872 212.36 262.824 210.713 263.075 210.287C262.934 209.422 262.543 206.783 262.958 205.907C263.076 205.654 263.243 205.428 263.448 205.24C263.654 205.052 263.895 204.906 264.157 204.811C264.418 204.717 264.697 204.674 264.975 204.687C265.253 204.699 265.526 204.767 265.779 204.885C266.031 205.003 266.257 205.169 266.445 205.375C266.633 205.581 266.779 205.821 266.874 206.083C266.969 206.345 267.011 206.623 266.998 206.902C266.986 207.18 266.919 207.453 266.801 207.705C266.403 208.552 264.295 209.866 263.46 210.363L263.583 210.427C263.548 210.479 262.315 212.623 260.558 215.537V215.619H260.511C259.565 217.195 258.461 218.988 257.316 220.793C258.017 220.104 259.6 218.714 261.072 218.685C263.028 218.644 263.045 221.289 261.282 222.259C259.705 223.123 257.486 221.575 257.036 221.237C255.488 223.666 253.882 226.096 252.458 228.029C252.458 228.122 252.458 228.175 252.458 228.175H252.364C252.078 228.56 251.78 228.928 251.529 229.272C249.695 231.608 247.943 233.763 246.401 235.661C244.959 237.448 243.698 239.002 242.658 240.333C244.124 239.528 246.255 238.616 248.019 238.955C251.015 239.539 250.18 243.563 247.178 244.468C244.883 245.163 242.442 243.008 241.426 241.957L240.929 242.64C240.316 243.516 238.447 245.73 236.368 248.13C238.401 246.903 242.021 245.087 244.93 245.636C249.216 246.454 248.025 252.235 243.733 253.532C240.129 254.618 236.275 250.799 235.13 249.549C232.21 252.889 229.29 256.166 229.068 256.417L228.683 256.072C228.788 255.961 238.955 244.573 240.515 242.348C240.678 242.091 240.865 241.834 241.064 241.566Z" fill="#92E3A9"/>
<path d="M243.826 173.734L242.36 175.2L240.538 176.082L239.3 180.205L240.596 180.613L241.466 179.697L242.267 180.561L241.192 183.639C241.192 183.639 239.744 184.059 239.732 184.415C239.72 184.771 240.643 185.525 240.643 185.525L242.337 184.76L247.009 184.228L248.352 183.329L246.892 175.433L243.826 173.734Z" fill="#CCCCCC" stroke="#263238" stroke-linecap="round" stroke-linejoin="round"/>
<path d="M242.313 184.76L244.001 182.033" stroke="#263238" stroke-linecap="round" stroke-linejoin="round"/>
<path d="M244.55 184.515L245.689 181.84" stroke="#263238" stroke-linecap="round" stroke-linejoin="round"/>
<path d="M246.985 184.229L247.371 181.91" stroke="#263238" stroke-linecap="round" stroke-linejoin="round"/>
<path d="M240.299 138.086L251.663 156.103L247.505 175.597L243.032 174.616L242.792 156.395L235.638 149.276L240.299 138.086Z" fill="white" stroke="#263238" stroke-linecap="round" stroke-linejoin="round"/>
<path d="M231.515 132.101L240.298 138.087L230.557 163.321L214.281 158.55L212.658 144.131L214.567 131.54L222.551 130.611L231.515 132.101Z" fill="white" stroke="#263238" stroke-linecap="round" stroke-linejoin="round"/>
<path d="M223.573 137.24L225.214 139.021C225.454 139.281 225.752 139.481 226.083 139.605C226.414 139.73 226.77 139.776 227.122 139.739C227.474 139.702 227.813 139.584 228.111 139.393C228.409 139.203 228.659 138.945 228.84 138.641L232.631 132.287L230.003 129.601L224.192 129.852L221.745 131.143L220.612 134.367C220.468 134.776 220.444 135.218 220.544 135.641C220.643 136.063 220.861 136.448 221.173 136.751C221.484 137.053 221.876 137.26 222.301 137.346C222.727 137.433 223.168 137.396 223.573 137.24Z" fill="white" stroke="#263238" stroke-linecap="round" stroke-linejoin="round"/>
<path d="M225.827 113.004C225.827 113.004 223.07 114.826 222.726 115.568C222.479 116.224 222.316 116.909 222.241 117.606L219.128 118.844L220.472 120.824C220.472 120.824 219.304 125.303 220.104 125.998C220.904 126.693 223.783 128.404 223.783 128.404L223.707 134.028C223.703 134.325 223.781 134.618 223.932 134.874C224.083 135.13 224.302 135.339 224.564 135.48C224.826 135.62 225.121 135.686 225.418 135.67C225.715 135.654 226.002 135.556 226.247 135.388L231.194 132.013L232.683 128.562C232.683 128.562 237.647 124.474 237.589 121.956C237.53 119.439 236.316 115.532 232.666 113.488C229.016 111.444 226.008 112.373 226.008 112.373L225.827 113.004Z" fill="#CCCCCC" stroke="#263238" stroke-linecap="round" stroke-linejoin="round"/>
<path d="M227.486 112.788C227.486 112.788 229.53 113.197 227.602 118.044C225.675 122.891 223.789 126.553 226.65 129.63C229.512 132.708 231.486 134.589 230.119 136.738C228.753 138.887 224.77 138.133 225.926 142.998C227.083 147.863 230.943 148.838 232.613 146.257C234.283 143.676 233.419 139.249 233.606 138.344C233.696 137.823 233.926 137.336 234.272 136.936L235.387 137.158L242.045 140.662C242.045 140.662 241.963 140.002 242.401 135.844C242.839 131.686 239.096 131.131 239.831 127.417C240.567 123.703 244.62 124.701 243.166 119.393C241.712 114.084 233.162 110.452 233.162 110.452C233.162 110.452 229.705 104.553 225.81 107.643C221.914 110.732 224.507 113.88 224.507 113.88L227.486 112.788Z" fill="#263238" stroke="#263238" stroke-linecap="round" stroke-linejoin="round"/>
<path d="M223.783 118.056C223.672 118.535 223.783 118.973 224.046 119.031C224.309 119.089 224.63 118.762 224.723 118.283C224.817 117.805 224.723 117.372 224.46 117.308C224.198 117.244 223.9 117.583 223.783 118.056Z" fill="#263238"/>
<path d="M226.37 116.94C226.144 116.541 225.792 116.23 225.368 116.055C224.945 115.881 224.475 115.853 224.034 115.976" stroke="#263238" stroke-linecap="round" stroke-linejoin="round"/>
<path d="M192.329 131.47L192.107 128.895C192.221 128.044 192.221 127.182 192.107 126.331C191.884 125.445 191.597 124.576 191.248 123.732C190.956 122.996 190.571 122.564 190.145 123.288C189.718 124.012 189.899 125.361 189.899 125.361C189.776 124.673 189.53 124.013 189.175 123.411C188.72 122.827 187.213 122.366 185.712 121.904C184.211 121.443 184.894 122.278 185.128 122.687C185.362 123.096 186.769 123.79 186.769 123.79C186.769 123.79 184.556 122.985 183.925 122.798C183.294 122.611 182.296 123.382 183.002 123.802C183.709 124.167 184.448 124.464 185.21 124.69C184.408 124.88 183.626 125.144 182.874 125.478C182.214 125.858 182.506 126.588 182.909 126.605C183.447 126.575 183.983 126.517 184.515 126.43C184.515 126.43 183.44 127.265 183.662 127.756C183.884 128.246 185.911 127.604 185.911 127.604C186.104 128.412 186.519 129.15 187.108 129.736C187.754 130.296 188.461 130.782 189.216 131.184L191.056 133.345L192.329 131.47Z" fill="#CCCCCC" stroke="#263238" stroke-linecap="round" stroke-linejoin="round"/>
<path d="M186.781 123.791L186.103 126.734" stroke="#263238" stroke-linecap="round" stroke-linejoin="round"/>
<path d="M189.923 125.361L190.045 126.325C190.045 126.325 188.731 127.154 188.918 128.445" fill="#CCCCCC"/>
<path d="M189.923 125.361L190.045 126.325C190.045 126.325 188.731 127.154 188.918 128.445" stroke="#263238" stroke-linecap="round" stroke-linejoin="round"/>
<path d="M214.567 131.54L201.825 141.228L192.352 130.909L189.782 133.163L199.535 150.158L212.815 142.852L214.567 131.54Z" fill="white" stroke="#263238" stroke-linecap="round" stroke-linejoin="round"/>
<path d="M233.6 195.248L233.676 180.28C233.904 170.528 231.03 163.928 230.546 163.473C230.475 163.395 230.381 163.341 230.277 163.321L214.001 158.55C214.001 158.55 211.916 164.477 210.252 165.558C191.856 177.53 187.604 183.358 187.768 183.662C192.58 192.521 208.126 207.413 207.624 206.379L211.56 205.048L199.436 185.128L217.207 178.12L220.711 195.132L238.582 228.42L243.452 226.668L233.6 195.248Z" fill="#263238" stroke="#263238" stroke-linecap="round" stroke-linejoin="round"/>
<path d="M207.589 206.385L205.732 210.076C205.732 210.076 203.875 210.66 203.18 211.005C202.485 211.349 202.134 211.419 201.772 211.974C201.535 212.39 201.399 212.856 201.375 213.335L210.614 213.703L214.778 209.527C216.086 208.207 211.525 205.054 211.525 205.054L207.589 206.385Z" fill="white" stroke="#263238" stroke-linecap="round" stroke-linejoin="round"/>
<path d="M243.458 226.662C243.458 226.662 243.365 228.946 243.283 230.995C243.201 233.045 240.678 236.146 239.148 237.233C237.618 238.319 236.228 238.488 236.701 235.65C237.185 233.201 237.814 230.782 238.587 228.408C238.587 228.408 243.003 226.528 243.458 226.662Z" fill="white" stroke="#263238" stroke-linecap="round" stroke-linejoin="round"/>
<path d="M136.767 26.4141L126.372 33.5564" stroke="#263238" stroke-linecap="round" stroke-linejoin="round"/>
<path d="M138.215 25.4155L137.521 25.8944" stroke="#263238" stroke-linecap="round" stroke-linejoin="round"/>
<path d="M122.623 18.5888L120.281 18.2676" stroke="#263238" stroke-linecap="round" stroke-linejoin="round"/>
<path d="M137.748 20.6676L124.112 18.793" stroke="#263238" stroke-linecap="round" stroke-linejoin="round"/>
<path d="M140.23 11.4814L135.722 6.89111" stroke="#263238" stroke-linecap="round" stroke-linejoin="round"/>
<path d="M142.093 13.3793L141.048 12.3105" stroke="#263238" stroke-linecap="round" stroke-linejoin="round"/>
<path d="M154.165 13.4496L159.391 8.11182" stroke="#263238" stroke-linecap="round" stroke-linejoin="round"/>
<path d="M153.166 14.4715L153.668 13.9634" stroke="#263238" stroke-linecap="round" stroke-linejoin="round"/>
<path d="M165.698 20.9482L176.31 19.7686" stroke="#263238" stroke-linecap="round" stroke-linejoin="round"/>
<path d="M156.004 22.0286L164.42 21.0884" stroke="#263238" stroke-linecap="round" stroke-linejoin="round"/>
<path d="M163.222 31.3433L168.04 36.3189" stroke="#263238" stroke-linecap="round" stroke-linejoin="round"/>
<path d="M156.384 24.2827L162.288 30.3797" stroke="#263238" stroke-linecap="round" stroke-linejoin="round"/>
<path d="M149.527 23.9966H146.835V31.7521H149.527V23.9966Z" fill="#92E3A9" stroke="#263238" stroke-linecap="round" stroke-linejoin="round"/>
<path d="M151.501 31.1155V30.0059H144.855V31.1155H141.69V35.548H154.667V31.1155H151.501Z" fill="#263238" stroke="#263238" stroke-linecap="round" stroke-linejoin="round"/>
<path d="M148.178 9.59521L151.326 15.9667L158.363 16.9945L153.271 21.9527L154.474 28.9607L148.178 25.6552L141.883 28.9607L143.086 21.9527L137.993 16.9945L145.031 15.9667L148.178 9.59521Z" fill="#92E3A9" stroke="#263238" stroke-linecap="round" stroke-linejoin="round"/>
<path d="M139.366 17.6543L148.179 19.9494L155.934 18.0105" fill="#92E3A9"/>
<path d="M139.366 17.6543L148.179 19.9494L155.934 18.0105" stroke="#263238" stroke-linecap="round" stroke-linejoin="round"/>
<path d="M148.354 12.3691V18.0106" stroke="#263238" stroke-linecap="round" stroke-linejoin="round"/>
<path d="M142.893 27.8801L148.003 21.1816V24.0024" fill="#92E3A9"/>
<path d="M142.893 27.8801L148.003 21.1816V24.0024" stroke="#263238" stroke-linecap="round" stroke-linejoin="round"/>
<path d="M154.474 28.9664L149.235 21.1816" stroke="#263238" stroke-linecap="round" stroke-linejoin="round"/>
<path d="M129.368 107.409C129.368 107.409 137.579 110.826 145.772 111.217C153.966 111.608 168.677 107.409 168.677 107.409L158.912 94.8242H136.276L129.368 107.409Z" fill="#263238" stroke="#263238" stroke-linecap="round" stroke-linejoin="round"/>
<path d="M168.256 170.668C167.958 169.769 165.406 163.024 165.406 163.024C165.406 163.024 163.911 151.776 163.911 146.526C163.911 141.275 162.107 138.134 162.107 138.134L160.016 100.571L158.655 95.8169H155.659L147.332 95.8928L138.992 95.8169H137.947L134.519 102.334L132.568 138.134C132.568 138.134 130.769 141.281 130.769 146.526C130.769 151.77 129.268 163.024 129.268 163.024C129.268 163.024 126.722 169.769 126.419 170.668C126.115 171.568 123.872 173.67 123.872 174.417C123.878 174.648 123.933 174.875 124.034 175.082C124.135 175.29 124.279 175.473 124.456 175.62H132.568C132.568 175.62 133.018 175.469 133.321 173.968C133.548 172.682 133.647 171.378 133.619 170.072C133.619 169.173 134.519 161.675 134.519 161.675L146.064 113.594H148.616L160.162 161.675C160.162 161.675 161.061 169.173 161.061 170.072C161.033 171.378 161.133 172.682 161.359 173.968C161.657 175.469 162.107 175.62 162.107 175.62H170.207C170.384 175.473 170.528 175.29 170.629 175.082C170.73 174.875 170.785 174.648 170.791 174.417C170.808 173.67 168.56 171.568 168.256 170.668Z" fill="white" stroke="#263238" stroke-linecap="round" stroke-linejoin="round"/>
<path d="M165.407 163.024C165.407 163.024 163.912 151.776 163.912 146.526C163.912 141.275 162.107 138.134 162.107 138.134L160.016 100.571L158.656 95.8169H155.66L147.332 95.8928L138.992 95.8169H137.947L134.519 102.334L132.568 138.134C132.568 138.134 130.77 141.281 130.77 146.526C130.77 151.77 129.269 163.024 129.269 163.024L129.216 163.175H134.32C134.42 162.282 134.495 161.675 134.495 161.675L146.041 113.594H148.593L160.139 161.675C160.139 161.675 160.209 162.259 160.314 163.175H165.442L165.407 163.024Z" fill="#263238" stroke="#263238" stroke-linecap="round" stroke-linejoin="round"/>
<path d="M134.151 164.799L131.231 171.719H125.759C124.994 172.695 123.884 173.892 123.884 174.417C123.89 174.648 123.945 174.874 124.046 175.082C124.147 175.289 124.291 175.473 124.468 175.62H132.568C132.568 175.62 133.018 175.469 133.321 173.968C133.548 172.682 133.647 171.377 133.619 170.072C133.619 169.564 133.905 166.971 134.151 164.799Z" fill="#92E3A9" stroke="#263238" stroke-linecap="round" stroke-linejoin="round"/>
<path d="M160.524 164.799L163.444 171.719H168.91C169.675 172.695 170.791 173.892 170.791 174.417C170.785 174.648 170.73 174.874 170.629 175.082C170.528 175.289 170.384 175.473 170.207 175.62H162.107C162.107 175.62 161.657 175.469 161.359 173.968C161.133 172.682 161.033 171.377 161.061 170.072C161.061 169.564 160.775 166.971 160.524 164.799Z" fill="#92E3A9" stroke="#263238" stroke-linecap="round" stroke-linejoin="round"/>
<path d="M146.502 47.0878C146.502 47.0878 143.839 45.692 141.83 48.4894C139.821 51.2867 141.194 53.8155 141.194 54.5805C141.194 55.3455 138.151 57.8801 139.039 59.0247C139.927 60.1694 141.322 60.7767 141.194 61.3082C141.065 61.8396 137.515 61.0512 137.772 62.3243C138.029 63.5975 138.274 65.6239 142.847 69.052C147.419 72.4801 154.018 69.6827 155.794 67.7789C157.569 65.8751 159.093 63.9712 158.842 62.8324C158.591 61.6936 156.81 62.0674 156.81 61.5593C156.81 61.0512 158.714 59.2759 158.714 58.2597C158.714 57.2435 156.682 55.9763 156.553 55.3397C156.425 54.7031 157.569 53.8155 157.569 52.8051C157.569 51.7948 155.029 50.5159 155.029 49.6282C155.029 48.7405 156.938 47.2163 154.018 45.1839C151.098 43.1516 147.168 44.6759 146.502 47.0878Z" fill="#263238" stroke="#263238" stroke-linecap="round" stroke-linejoin="round"/>
<path d="M145.702 62.8732L144.686 68.0358C144.686 68.0358 142.315 67.0196 141.638 66.7627C140.96 66.5057 138.992 95.8167 138.992 95.8167H157.861L156.845 66.932L152.617 68.0358L151.344 62.7798L145.702 62.8732Z" fill="white" stroke="#263238" stroke-linecap="round" stroke-linejoin="round"/>
<path d="M152.891 76.5038L153.639 67.7788L152.64 68.0416L151.367 62.7856L145.702 62.8732L144.686 68.0358L143.851 67.6796L144.768 76.498L152.891 76.5038Z" fill="white" stroke="#263238" stroke-linecap="round" stroke-linejoin="round"/>
<path d="M145.066 63.9186C145.066 63.9186 148.459 67.1715 149.154 67.1715C149.849 67.1715 151.98 64.2047 151.98 64.2047L151.7 63.2119L145.066 63.0718V63.9186Z" fill="#263238" stroke="#263238" stroke-linecap="round" stroke-linejoin="round"/>
<path d="M134.116 43.2161L139.956 37.1367L138.285 32.5815C138.285 32.5815 139.944 29.5038 140.09 29.1534C140.236 28.803 140.843 27.746 140.843 27.746C140.972 27.7379 141.101 27.7565 141.223 27.8005C141.344 27.8446 141.455 27.9131 141.548 28.0018C141.642 28.0906 141.717 28.1976 141.767 28.3164C141.818 28.4351 141.843 28.563 141.842 28.692C141.958 29.8174 141.977 30.9506 141.9 32.0792C141.766 32.599 143.232 35.4664 142.648 36.7512C142.064 38.036 136.101 46.1945 136.101 46.1945L134.116 43.2161Z" fill="white" stroke="#263238" stroke-linecap="round" stroke-linejoin="round"/>
<path d="M141.842 29.603C141.842 29.603 139.991 32.2777 140.008 32.523C140.035 32.7497 140.078 32.9741 140.137 33.1946" stroke="#263238" stroke-linecap="round" stroke-linejoin="round"/>
<path d="M141.48 28.02L139.015 31.6642L139.01 32.8497" stroke="#263238" stroke-linecap="round" stroke-linejoin="round"/>
<path d="M143.331 67.189C143.331 67.189 142.747 82.7877 141.894 88.797C141.042 94.8064 140.032 98.2753 137.999 101.324C135.967 104.372 129.368 107.415 129.368 107.415C129.368 107.415 134.104 91.0629 135.038 86.6012C135.973 82.1394 135.967 72.6961 135.967 72.6961C133.071 70.4196 130.514 67.7412 128.375 64.7421C124.994 59.9182 122.249 54.9367 122.395 54.2301C122.541 53.5234 135.827 40.7163 135.827 40.7163L138.554 44.3955L131.161 55.6667C131.161 55.6667 138.087 63.7201 138.589 64.1405C139.091 64.561 141.048 64.8238 143.331 67.189Z" fill="#92E3A9" stroke="#263238" stroke-linecap="round" stroke-linejoin="round"/>
<path d="M142.928 66.792V66.8504C142.928 66.8504 140.137 72.013 140.137 76.8368C140.137 79.6108 140.978 88.5168 141.69 90.2688C141.766 89.7841 141.842 89.2935 141.918 88.7737C142.759 82.7702 143.355 67.1658 143.355 67.1658C143.197 67.049 143.08 66.9146 142.928 66.792Z" fill="#92E3A9" stroke="#263238" stroke-linecap="round" stroke-linejoin="round"/>
<path d="M163.24 43.0698L156.979 37.3758L158.328 32.7038C158.328 32.7038 156.471 29.7429 156.302 29.4042C156.132 29.0655 155.455 28.0493 155.455 28.0493C155.325 28.0497 155.197 28.0769 155.079 28.1292C154.96 28.1815 154.853 28.2577 154.766 28.3531C154.678 28.4486 154.611 28.5611 154.569 28.6837C154.526 28.8063 154.51 28.9363 154.521 29.0655C154.479 30.1973 154.535 31.3307 154.69 32.4527C154.859 32.9608 153.592 35.9216 154.269 37.1889C154.947 38.4562 161.459 46.1592 161.459 46.1592L163.24 43.0698Z" fill="white" stroke="#263238" stroke-linecap="round" stroke-linejoin="round"/>
<path d="M154.608 30.041C154.608 30.041 156.64 32.5756 156.64 32.8325C156.629 33.0603 156.599 33.2867 156.553 33.51" stroke="#263238" stroke-linecap="round" stroke-linejoin="round"/>
<path d="M154.859 28.4292L157.569 31.904L157.651 33.0837" stroke="#263238" stroke-linecap="round" stroke-linejoin="round"/>
<path d="M154.713 67.1889C154.713 67.1889 155.297 82.7876 156.15 88.7969C157.003 94.8063 158.013 98.2752 160.045 101.324C162.078 104.372 168.677 107.415 168.677 107.415C168.677 107.415 163.935 91.0628 163.006 86.6011C162.078 82.1393 162.072 72.696 162.072 72.696C164.97 70.4211 167.526 67.7425 169.664 64.742C173.051 59.9181 177.197 54.2708 176.946 53.5934C176.695 52.916 161.762 41.125 161.762 41.125L159.642 45.213L166.96 56.309C166.96 56.309 159.952 63.755 159.426 64.1755C158.901 64.596 156.997 64.8237 154.713 67.1889Z" fill="#92E3A9" stroke="#263238" stroke-linecap="round" stroke-linejoin="round"/>
<path d="M138.992 67.2711C138.286 70.1093 135.967 72.6906 135.967 72.6906C135.967 72.6906 137.398 69.3968 137.042 66.5586" stroke="#263238" stroke-linecap="round" stroke-linejoin="round"/>
<path d="M158.153 66.576C159.278 68.7302 160.589 70.782 162.072 72.708C162.072 72.708 160.285 66.2256 160.285 65.3379" stroke="#263238" stroke-linecap="round" stroke-linejoin="round"/>
<path d="M155.11 66.792V66.8504C155.11 66.8504 157.902 72.013 157.902 76.8368C157.902 79.6108 157.067 88.5168 156.348 90.2688C156.273 89.7841 156.202 89.2935 156.127 88.7737C155.28 82.7702 154.69 67.1658 154.69 67.1658C154.848 67.049 154.982 66.9146 155.11 66.792Z" fill="#92E3A9" stroke="#263238" stroke-linecap="round" stroke-linejoin="round"/>
<path d="M143.244 57.7106C143.244 57.7106 141.556 55.2578 141.299 57.3719C141.042 59.4859 143.051 61.0102 143.051 61.0102L143.244 57.7106Z" fill="white" stroke="#263238" stroke-linecap="round" stroke-linejoin="round"/>
<path d="M154.673 57.2318C154.673 57.2318 156.109 55.7951 156.53 57.4829C156.95 59.1706 154.778 60.7007 154.778 60.7007L154.673 57.2318Z" fill="white" stroke="#263238" stroke-linecap="round" stroke-linejoin="round"/>
<path d="M147.01 49.377C147.01 49.377 146.631 51.5319 145.107 52.04C144.317 52.2453 143.61 52.6876 143.08 53.3073C143.08 53.3073 142.829 60.6715 143.337 61.4307C143.845 62.1899 147.168 65.4078 148.833 65.4078C150.497 65.4078 154.456 62.441 154.585 61.6818C154.713 60.9226 154.503 53.8095 154.375 53.3014C154.246 52.7933 152.623 52.0342 151.198 52.0342C149.773 52.0342 148.663 50.5099 148.406 50.0018C148.149 49.4938 147.01 49.377 147.01 49.377Z" fill="white" stroke="#263238" stroke-linecap="round" stroke-linejoin="round"/>
<path d="M148.108 55.4275C148.443 55.7018 148.848 55.8777 149.276 55.9356C149.463 55.918 149.643 55.8558 149.8 55.7541C149.958 55.6525 150.089 55.5144 150.182 55.3516" stroke="#263238" stroke-linecap="round" stroke-linejoin="round"/>
<path d="M145.591 53.0037C145.649 52.8161 145.751 52.6452 145.889 52.5056C146.027 52.3659 146.197 52.2615 146.384 52.2014C146.57 52.1412 146.769 52.1269 146.963 52.1599C147.156 52.1928 147.339 52.2719 147.495 52.3905" stroke="#263238" stroke-linecap="round" stroke-linejoin="round"/>
<path d="M150.322 52.4488C150.322 52.4488 151.677 51.4035 152.722 53.1847" stroke="#263238" stroke-linecap="round" stroke-linejoin="round"/>
<path d="M146.911 57.8158C146.911 57.8158 149.831 59.5678 151.735 57.1851" stroke="#263238" stroke-linecap="round" stroke-linejoin="round"/>
<path d="M146.969 53.5585C146.969 53.9089 146.771 54.195 146.526 54.195C146.28 54.195 146.082 53.9089 146.082 53.5585C146.082 53.2081 146.28 52.9277 146.526 52.9277C146.771 52.9277 146.969 53.2081 146.969 53.5585Z" fill="#263238"/>
<path d="M151.665 53.617C151.665 53.9674 151.466 54.2536 151.221 54.2536C150.976 54.2536 150.777 53.9674 150.777 53.617C150.777 53.2666 150.976 52.9805 151.221 52.9805C151.466 52.9805 151.665 53.2666 151.665 53.617Z" fill="#263238"/>
<path d="M62.2836 132.101L53.5002 138.087L60.4849 167.783L81.76 163.871L81.9702 132.767L71.248 130.612L62.2836 132.101Z" fill="white" stroke="#263238" stroke-linecap="round" stroke-linejoin="round"/>
<path d="M67.1833 137.701L69.9048 141.305L70.3486 160.618L73.7884 165.961L76.3638 157.803L71.1896 141.252L72.4802 137.17L69.6245 134.384L67.1833 137.701Z" fill="#92E3A9" stroke="#263238" stroke-linecap="round" stroke-linejoin="round"/>
<path d="M70.2258 137.258L66.5174 141.276L61.1621 132.306L63.7959 129.619L69.6067 129.87L74.5415 132.417L74.8043 139.01L70.2258 137.258Z" fill="white" stroke="#263238" stroke-linecap="round" stroke-linejoin="round"/>
<path d="M72.8071 113.15C72.8071 113.15 75.1431 115.486 75.3475 116.269C75.4662 116.959 75.4956 117.662 75.4351 118.359L78.2442 120.181L76.5389 121.863C76.5389 121.863 78.1741 126.471 77.228 126.991C76.2819 127.511 71.8318 128.655 71.8318 128.655L70.2258 137.24L63.8427 130.728L63.0718 127.073C63.0718 127.073 58.9838 122.079 59.5678 119.638C60.1518 117.197 62.0674 113.576 66.0444 112.292C70.0214 111.007 70.255 111.492 70.255 111.492L72.8071 113.15Z" fill="#CCCCCC" stroke="#263238" stroke-linecap="round" stroke-linejoin="round"/>
<path d="M64.9991 123.452C64.9991 123.452 67.3935 122.868 67.3351 121.747C67.2767 120.625 65.6415 119.72 66.8971 118.862C68.1527 118.003 69.4258 117.635 69.4025 116.987C69.3791 116.339 68.2345 115.749 68.9995 115.072C69.7645 114.394 72.7897 113.15 72.7897 113.15C72.7897 113.15 71.5224 109.646 66.8445 109.518C62.1667 109.389 57.886 115.194 58.1955 118.862C58.505 122.529 62.5638 127.388 63.5449 127.674C64.5261 127.96 64.9991 123.452 64.9991 123.452Z" fill="#263238" stroke="#263238" stroke-linecap="round" stroke-linejoin="round"/>
<path d="M65.9918 124.217C65.9918 124.217 64.4559 122.021 63.2412 123.843C62.0265 125.665 64.8355 127.487 66.2838 127.429C67.7322 127.371 68.0358 126.711 68.0358 126.711" fill="#CCCCCC"/>
<path d="M65.9918 124.217C65.9918 124.217 64.4559 122.021 63.2412 123.843C62.0265 125.665 64.8355 127.487 66.2838 127.429C67.7322 127.371 68.0358 126.711 68.0358 126.711" stroke="#263238" stroke-linecap="round" stroke-linejoin="round"/>
<path d="M73.8292 118.506C73.8292 118.996 73.6481 119.399 73.3795 119.411C73.1109 119.423 72.8831 119.031 72.8656 118.547C72.8481 118.062 73.0466 117.653 73.3094 117.641C73.5722 117.63 73.8117 118.015 73.8292 118.506Z" fill="#263238"/>
<path d="M71.5107 116.905C71.5107 116.905 72.8948 115.241 74.3723 115.988" stroke="#263238" stroke-linecap="round" stroke-linejoin="round"/>
<path d="M49.9728 173.734L51.462 175.2L53.2841 176.082L54.5163 180.205L53.2257 180.614L52.3555 179.697L51.5555 180.561L52.63 183.616C52.63 183.616 54.0783 184.036 54.09 184.392C54.1017 184.749 53.179 185.502 53.179 185.502L51.4795 184.737L46.8075 184.206L45.4585 183.306L46.9243 175.41L49.9728 173.734Z" fill="#CCCCCC" stroke="#263238" stroke-linecap="round" stroke-linejoin="round"/>
<path d="M51.4795 184.76L49.7976 182.033" stroke="#263238" stroke-linecap="round" stroke-linejoin="round"/>
<path d="M49.2487 184.515L48.1099 181.84" stroke="#263238" stroke-linecap="round" stroke-linejoin="round"/>
<path d="M46.8134 184.229L46.428 181.91" stroke="#263238" stroke-linecap="round" stroke-linejoin="round"/>
<path d="M53.5001 138.087L42.1355 156.103L46.2936 175.597L50.767 174.616L51.0065 156.395L56.6829 149.241L53.5001 138.087Z" fill="white" stroke="#263238" stroke-linecap="round" stroke-linejoin="round"/>
<path d="M104.285 128.142L104.501 125.572C104.387 124.719 104.387 123.855 104.501 123.002C104.724 122.117 105.011 121.248 105.359 120.404C105.651 119.674 106.037 119.236 106.463 119.96C106.889 120.684 106.708 122.033 106.708 122.033C106.835 121.346 107.08 120.686 107.432 120.082C107.888 119.498 109.395 119.043 110.901 118.582C112.408 118.12 111.719 118.949 111.485 119.358C111.252 119.767 109.844 120.468 109.844 120.468C109.844 120.468 112.058 119.656 112.694 119.469C113.331 119.282 114.318 120.053 113.617 120.48C112.907 120.841 112.166 121.138 111.404 121.367C112.205 121.558 112.987 121.822 113.74 122.156C114.394 122.529 114.102 123.265 113.705 123.277C113.164 123.25 112.626 123.191 112.093 123.102C112.093 123.102 113.167 123.943 112.945 124.433C112.723 124.924 110.697 124.281 110.697 124.281C110.505 125.09 110.091 125.829 109.5 126.413C108.852 126.972 108.145 127.457 107.392 127.861L105.552 130.016L104.285 128.142Z" fill="#CCCCCC" stroke="#263238" stroke-linecap="round" stroke-linejoin="round"/>
<path d="M109.827 120.468L110.51 123.405" stroke="#263238" stroke-linecap="round" stroke-linejoin="round"/>
<path d="M106.685 122.056L106.562 123.026C106.562 123.026 107.876 123.855 107.69 125.146" fill="#CCCCCC"/>
<path d="M106.685 122.056L106.562 123.026C106.562 123.026 107.876 123.855 107.69 125.146" stroke="#263238" stroke-linecap="round" stroke-linejoin="round"/>
<path d="M81.9702 132.767L91.9741 141.229L104.261 127.581L106.831 129.841L94.2634 150.158L81.9877 145.329L81.9702 132.767Z" fill="white" stroke="#263238" stroke-linecap="round" stroke-linejoin="round"/>
<path d="M60.4849 167.783L62.0091 195.465L50.3291 226.662L55.1997 228.414L73.0642 195.126L75.6747 180.287L91.688 182.973L82.2856 205.054L86.2276 206.386C86.2276 206.386 106.054 176.462 106.399 176.444C106.744 176.427 82.4549 166.662 82.4549 166.662L81.76 163.871L60.4849 167.783Z" fill="#263238" stroke="#263238" stroke-linecap="round" stroke-linejoin="round"/>
<path d="M86.21 206.386L88.0671 210.077C88.0671 210.077 89.9184 210.661 90.6192 211.005C91.32 211.35 91.6646 211.42 92.0267 211.975C92.2635 212.391 92.3995 212.857 92.4238 213.335L83.1849 213.703L79.021 209.528C77.7128 208.208 82.268 205.054 82.268 205.054L86.21 206.386Z" fill="white" stroke="#263238" stroke-linecap="round" stroke-linejoin="round"/>
<path d="M50.3406 226.662C50.3406 226.662 50.434 228.946 50.5158 230.995C50.5975 233.045 53.1204 236.146 54.6505 237.233C56.1806 238.319 57.5705 238.488 57.0975 235.65C56.614 233.201 55.9841 230.782 55.2111 228.408C55.2111 228.408 50.8078 226.528 50.3406 226.662Z" fill="white" stroke="#263238" stroke-linecap="round" stroke-linejoin="round"/>
<path d="M180.398 174.569H112.87V213.154H180.398V174.569Z" fill="#DBDBDB" stroke="#263238" stroke-linecap="round" stroke-linejoin="round"/>
<path d="M219.993 212.144H73.2629V250.729H219.993V212.144Z" fill="#ADADAD" stroke="#263238" stroke-linecap="round" stroke-linejoin="round"/>
<path d="M263.367 238.459H29.895V277.044H263.367V238.459Z" fill="#919191" stroke="#263238" stroke-linecap="round" stroke-linejoin="round"/>
<path d="M146.654 178.833L149.802 185.21L156.839 186.232L151.746 191.196L152.949 198.204L146.654 194.898L140.358 198.204L141.561 191.196L136.475 186.232L143.506 185.21L146.654 178.833Z" fill="#92E3A9" stroke="#263238" stroke-linecap="round" stroke-linejoin="round"/>
<path d="M93.8312 213.779L96.979 220.151L104.016 221.173L98.9237 226.137L100.127 233.145L93.8312 229.839L87.5357 233.145L88.7387 226.137L83.6462 221.173L90.6834 220.151L93.8312 213.779Z" fill="#92E3A9" stroke="#263238" stroke-linecap="round" stroke-linejoin="round"/>
<path d="M200.51 213.779L203.658 220.151L210.69 221.173L205.603 226.137L206.8 233.145L200.51 229.839L194.215 233.145L195.418 226.137L190.325 221.173L197.363 220.151L200.51 213.779Z" fill="#92E3A9" stroke="#263238" stroke-linecap="round" stroke-linejoin="round"/>
<path d="M12.3516 277.05H281.984" stroke="#263238" stroke-linecap="round" stroke-linejoin="round"/>
</svg>
