<svg width="20" height="22" viewBox="0 0 20 22" fill="none" xmlns="http://www.w3.org/2000/svg">
<g clip-path="url(#clip0_164_308)">
<path d="M16.6667 19.8949H5.41667C4.64312 19.8949 3.90125 19.5615 3.35427 18.9679C2.80729 18.3743 2.5 17.5693 2.5 16.7298V4.52155C2.5 3.80203 2.76339 3.11198 3.23223 2.6032C3.70107 2.09442 4.33696 1.80859 5 1.80859H16.6667C16.8877 1.80859 17.0996 1.90387 17.2559 2.07346C17.4122 2.24305 17.5 2.47307 17.5 2.71291V18.9906C17.5 19.2305 17.4122 19.4605 17.2559 19.6301C17.0996 19.7997 16.8877 19.8949 16.6667 19.8949ZM15.8333 18.0863V15.3734H5.41667C5.08515 15.3734 4.7672 15.5163 4.53278 15.7707C4.29836 16.025 4.16667 16.3701 4.16667 16.7298C4.16667 17.0896 4.29836 17.4346 4.53278 17.689C4.7672 17.9434 5.08515 18.0863 5.41667 18.0863H15.8333Z" fill="#95A4A6"/>
</g>
<defs>
<clipPath id="clip0_164_308">
<rect width="20" height="21.7036" fill="white"/>
</clipPath>
</defs>
</svg>
