<svg width="91" height="90" viewBox="0 0 91 90" fill="none" xmlns="http://www.w3.org/2000/svg">
<path d="M44.573 47.1054C48.6688 47.1054 51.9891 38.3961 51.9891 27.6527C51.9891 16.9093 48.6688 8.20012 44.573 8.20012C40.4772 8.20012 37.1569 16.9093 37.1569 27.6527C37.1569 38.3961 40.4772 47.1054 44.573 47.1054Z" fill="#327D83" stroke="#263238" stroke-miterlimit="10"/>
<path d="M67.6153 15.6668C69.9339 8.37092 69.2381 1.63803 66.0611 0.628423C62.8842 -0.381186 58.4292 4.71481 56.1107 12.0106C53.7921 19.3065 54.4879 26.0394 57.6648 27.049C60.8417 28.0586 65.2967 22.9626 67.6153 15.6668Z" fill="#327D83" stroke="#263238" stroke-miterlimit="10"/>
<path d="M13.2008 59.6563C5.65019 58.3754 -0.0171567 54.6732 0.538465 51.3921C1.09409 48.111 7.66797 46.4793 15.2127 47.7543C22.7575 49.0293 28.4307 52.7373 27.8751 56.0184C27.3194 59.2995 20.7456 60.9313 13.2008 59.6563Z" fill="#327D83" stroke="#263238" stroke-miterlimit="10"/>
<path d="M74.5999 41.6715C68.2951 47.9237 60.8439 50.6375 57.9605 47.7248C55.0771 44.8122 57.8494 37.3903 64.1542 31.1381C70.4591 24.8859 77.9103 22.1721 80.7937 25.0847C83.677 27.9973 80.9048 35.4193 74.5999 41.6715Z" fill="#327D83" stroke="#263238" stroke-miterlimit="10"/>
<path d="M31.1503 24.5176C37.2504 33.3666 39.0811 42.6893 35.2093 45.3446C31.3375 47.9999 23.2897 42.9876 17.1896 34.1269C11.0894 25.2662 9.25294 15.9961 13.1306 13.3116C17.0083 10.627 25.0443 15.6744 31.1503 24.5176Z" fill="#327D83" stroke="#263238" stroke-miterlimit="10"/>
<path d="M45.0935 46.1342L45.6666 72.8801" stroke="#263238" stroke-miterlimit="10" stroke-linecap="round"/>
<path d="M44.4033 20.4179L45.0935 46.1344" stroke="#263238" stroke-miterlimit="10" stroke-linecap="round"/>
<path d="M44.4501 16.2242L44.4033 18.1952" stroke="#263238" stroke-miterlimit="10" stroke-linecap="round"/>
<path d="M35.18 44.0696C39.4351 52.8582 41.9249 62.3961 42.5083 72.1431" stroke="#263238" stroke-miterlimit="10" stroke-linecap="round"/>
<path d="M22.4417 24.5935C27.5305 30.4935 31.814 37.0427 35.18 44.0695" stroke="#263238" stroke-miterlimit="10" stroke-linecap="round"/>
<path d="M18.4354 20.3534C18.4354 20.3534 19.2015 21.061 20.4648 22.4004" stroke="#263238" stroke-miterlimit="10" stroke-linecap="round"/>
<path d="M58.4226 46.83C53.2206 54.1222 49.1654 62.1675 46.3978 70.6867" stroke="#263238" stroke-miterlimit="10" stroke-linecap="round"/>
<path d="M66.95 37.0514C63.8101 40.0477 60.9554 43.3293 58.4226 46.8538" stroke="#263238" stroke-miterlimit="10" stroke-linecap="round"/>
<path d="M76.0621 30.0797C73.7434 31.3973 71.566 32.9495 69.5642 34.7118" stroke="#263238" stroke-miterlimit="10" stroke-linecap="round"/>
<path d="M58.1067 25.2312C54.0127 38.1626 48.4857 57.2643 45.9123 73.851" stroke="#263238" stroke-miterlimit="10" stroke-linecap="round"/>
<path d="M60.6099 17.5636C59.8789 19.7451 59.0308 22.3302 58.1067 25.2312" stroke="#263238" stroke-miterlimit="10" stroke-linecap="round"/>
<path d="M63.1776 10.1473C63.1776 10.1473 62.4582 12.13 61.3002 15.5223" stroke="#263238" stroke-miterlimit="10" stroke-linecap="round"/>
<path d="M27.4949 54.2287C32.63 56.1763 37.6365 59.9311 40.0754 67.0431" stroke="#263238" stroke-miterlimit="10" stroke-linecap="round"/>
<path d="M18.0259 52.2986C21.2648 52.4647 24.4605 53.1153 27.5066 54.2286" stroke="#263238" stroke-miterlimit="10" stroke-linecap="round"/>
<path d="M11.8673 52.451C11.8673 52.451 12.7797 52.3223 14.2886 52.2639" stroke="#263238" stroke-miterlimit="10" stroke-linecap="round"/>
<path d="M77.7991 59.6563C85.3498 58.3754 91.0171 54.6732 90.4615 51.3921C89.9059 48.111 83.332 46.4793 75.7814 47.7543C68.2308 49.0293 62.5693 52.7373 63.1249 56.0184C63.6805 59.2995 70.2485 60.9313 77.7991 59.6563Z" fill="#327D83" stroke="#263238" stroke-miterlimit="10"/>
<path d="M63.6455 54.1705C58.4519 56.0947 53.3635 59.8554 50.9012 67.0375" stroke="#263238" stroke-miterlimit="10" stroke-linecap="round"/>
<path d="M73.7812 52.258C70.3228 52.3561 66.9018 53.0016 63.6454 54.1705" stroke="#263238" stroke-miterlimit="10" stroke-linecap="round"/>
<path d="M79.1268 52.4507C79.1268 52.4507 78.5419 52.3688 77.495 52.3044" stroke="#263238" stroke-miterlimit="10" stroke-linecap="round"/>
<path d="M63.5577 89.7708C65.8415 84.9879 67.0398 79.7592 67.0669 74.4591C67.0705 71.2871 66.5973 68.1326 65.6632 65.1012H26.1614C25.2246 68.1319 24.7514 71.2869 24.7578 74.4591C24.7876 79.7589 25.9858 84.987 28.267 89.7708H63.5577Z" fill="#263238"/>
<path d="M25.1438 69.4763C25.0326 70.1957 24.9449 70.9209 24.8806 71.6637H66.9382C66.8739 70.9209 66.7862 70.1957 66.675 69.4763H25.1438Z" fill="#7A7A7A"/>
<path d="M66.4938 80.659C66.6224 79.9337 66.7394 79.2027 66.8271 78.4716H24.9976C25.0853 79.2027 25.1964 79.9337 25.3309 80.659H66.4938Z" fill="#7A7A7A"/>
<path d="M29.8636 74.5823C29.8636 74.9189 29.7638 75.2479 29.5768 75.5278C29.3898 75.8077 29.1239 76.0258 28.813 76.1547C28.502 76.2835 28.1598 76.3172 27.8296 76.2515C27.4995 76.1858 27.1962 76.0237 26.9582 75.7857C26.7202 75.5477 26.5581 75.2444 26.4924 74.9143C26.4267 74.5841 26.4604 74.2419 26.5892 73.9309C26.7181 73.6199 26.9362 73.3541 27.2161 73.1671C27.496 72.9801 27.825 72.8803 28.1616 72.8803C28.6126 72.8818 29.0446 73.0616 29.3634 73.3805C29.6822 73.6993 29.8621 74.1313 29.8636 74.5823Z" fill="#8C8C8C"/>
<path d="M38.3734 74.5823C38.3734 74.9189 38.2736 75.2479 38.0865 75.5278C37.8995 75.8077 37.6337 76.0258 37.3227 76.1547C37.0117 76.2835 36.6695 76.3172 36.3394 76.2515C36.0092 76.1858 35.706 76.0237 35.468 75.7857C35.2299 75.5477 35.0678 75.2444 35.0022 74.9143C34.9365 74.5841 34.9702 74.2419 35.099 73.9309C35.2278 73.6199 35.446 73.3541 35.7259 73.1671C36.0058 72.9801 36.3348 72.8803 36.6714 72.8803C37.1228 72.8803 37.5557 73.0596 37.8749 73.3788C38.1941 73.698 38.3734 74.1309 38.3734 74.5823Z" fill="#8C8C8C"/>
<path d="M46.8832 74.5823C46.8832 74.9189 46.7834 75.2479 46.5963 75.5278C46.4093 75.8077 46.1435 76.0258 45.8325 76.1547C45.5215 76.2835 45.1793 76.3172 44.8492 76.2515C44.519 76.1858 44.2158 76.0237 43.9777 75.7857C43.7397 75.5477 43.5776 75.2444 43.512 74.9143C43.4463 74.5841 43.48 74.2419 43.6088 73.9309C43.7376 73.6199 43.9558 73.3541 44.2357 73.1671C44.5155 72.9801 44.8446 72.8803 45.1812 72.8803C45.6326 72.8803 46.0655 73.0596 46.3847 73.3788C46.7039 73.698 46.8832 74.1309 46.8832 74.5823Z" fill="#8C8C8C"/>
<path d="M53.691 76.2842C54.631 76.2842 55.3929 75.5222 55.3929 74.5823C55.3929 73.6423 54.631 72.8803 53.691 72.8803C52.751 72.8803 51.989 73.6423 51.989 74.5823C51.989 75.5222 52.751 76.2842 53.691 76.2842Z" fill="#8C8C8C"/>
<path d="M63.9027 74.5823C63.9027 74.9189 63.8029 75.2479 63.6159 75.5278C63.4289 75.8077 63.1631 76.0258 62.8521 76.1547C62.5411 76.2835 62.1989 76.3172 61.8687 76.2515C61.5386 76.1858 61.2353 76.0237 60.9973 75.7857C60.7593 75.5477 60.5972 75.2444 60.5315 74.9143C60.4658 74.5841 60.4996 74.2419 60.6284 73.9309C60.7572 73.6199 60.9753 73.3541 61.2552 73.1671C61.5351 72.9801 61.8642 72.8803 62.2008 72.8803C62.6522 72.8803 63.0851 73.0596 63.4042 73.3788C63.7234 73.698 63.9027 74.1309 63.9027 74.5823Z" fill="#8C8C8C"/>
</svg>
