<svg width="35" height="170" viewBox="0 0 35 170" fill="none" xmlns="http://www.w3.org/2000/svg">
<path d="M22.188 144.354H5.43855C4.129 144.354 2.87309 144.874 1.9471 145.8C1.0211 146.726 0.500883 147.982 0.500883 149.292V156.897C0.500883 158.207 1.0211 159.463 1.9471 160.389C2.87309 161.315 4.129 161.835 5.43855 161.835L5.60821 169.499L10.8735 161.835H22.1997C23.5093 161.835 24.7652 161.315 25.6912 160.389C26.6172 159.463 27.1374 158.207 27.1374 156.897V149.292C27.1374 148.642 27.0093 147.999 26.7604 147.4C26.5115 146.8 26.1468 146.255 25.687 145.796C25.2273 145.338 24.6816 144.974 24.0812 144.727C23.4808 144.479 22.8374 144.353 22.188 144.354Z" fill="white" stroke="#263238" stroke-linecap="round" stroke-linejoin="round"/>
<path d="M15.8696 148.467H29.6354C30.7104 148.475 31.7393 148.905 32.5 149.664C33.2607 150.424 33.6922 151.452 33.7014 152.527V158.799C33.6922 159.874 33.2607 160.902 32.5 161.661C31.7393 162.421 30.7104 162.851 29.6354 162.859L29.5009 169.154L25.1833 162.859H15.8696C14.7928 162.859 13.7601 162.431 12.9987 161.67C12.2373 160.908 11.8095 159.875 11.8095 158.799V152.527C11.8095 151.45 12.2373 150.418 12.9987 149.656C13.7601 148.895 14.7928 148.467 15.8696 148.467Z" fill="#263238" stroke="#263238" stroke-linecap="round" stroke-linejoin="round"/>
<path d="M19.9825 155.657C19.9825 155.357 19.8935 155.064 19.7267 154.815C19.56 154.565 19.323 154.371 19.0457 154.257C18.7685 154.142 18.4636 154.113 18.1695 154.172C17.8754 154.23 17.6054 154.375 17.3937 154.588C17.1821 154.8 17.0382 155.071 16.9804 155.365C16.9226 155.659 16.9535 155.964 17.069 156.241C17.1846 156.518 17.3797 156.754 17.6297 156.92C17.8796 157.086 18.1732 157.174 18.4731 157.172C18.8739 157.171 19.2579 157.011 19.5408 156.727C19.8236 156.443 19.9825 156.058 19.9825 155.657Z" fill="#92E3A9"/>
<path d="M23.1591 157.172C23.996 157.172 24.6744 156.494 24.6744 155.657C24.6744 154.82 23.996 154.142 23.1591 154.142C22.3223 154.142 21.6439 154.82 21.6439 155.657C21.6439 156.494 22.3223 157.172 23.1591 157.172Z" fill="#92E3A9"/>
<path d="M27.8452 157.172C28.6821 157.172 29.3605 156.494 29.3605 155.657C29.3605 154.82 28.6821 154.142 27.8452 154.142C27.0084 154.142 26.33 154.82 26.33 155.657C26.33 156.494 27.0084 157.172 27.8452 157.172Z" fill="#92E3A9"/>
<path d="M18.8182 139.002V137.539" stroke="#263238" stroke-linecap="round" stroke-linejoin="round"/>
<path d="M18.8182 134.654V3.40835" stroke="#263238" stroke-linecap="round" stroke-linejoin="round" stroke-dasharray="4.93 4.93"/>
<path d="M18.8182 1.96346V0.500883" stroke="#263238" stroke-linecap="round" stroke-linejoin="round"/>
</svg>
