<svg width="10" height="12" viewBox="0 0 10 12" fill="none" xmlns="http://www.w3.org/2000/svg">
<path d="M5.0007 1.71229L4.62671 1.29156C4.12703 0.729438 3.51833 0.482342 2.93845 0.500984C2.35837 0.519633 1.75426 0.806063 1.26959 1.41395L5.0007 1.71229ZM5.0007 1.71229L5.37437 1.29127M5.0007 1.71229L5.37437 1.29127M5.37437 1.29127C5.87216 0.730393 6.48082 0.48271 7.06125 0.500994C7.64169 0.519278 8.24604 0.805323 8.7299 1.41353L5.37437 1.29127ZM8.83943 5.96975C9.75714 4.66897 9.7168 2.6555 8.73003 1.41369L8.83943 5.96975ZM8.83943 5.96975L4.99946 10.7955L1.16041 5.96978C0.242567 4.66882 0.283738 2.65186 1.26945 1.41412L8.83943 5.96975Z" fill="#48989F" stroke="#FFFDFD"/>
</svg>
