<svg width="292" height="292" viewBox="0 0 292 292" fill="none" xmlns="http://www.w3.org/2000/svg">
<path d="M269.224 121.56C269.224 121.56 231.848 30.3681 163.52 12.7838C95.192 -4.8004 66.5351 48.9918 56.064 86.3678C45.5929 123.744 7.00798 173.121 10.512 207.075C13.8408 239.347 42.1239 254.607 68.5382 261.159C102.112 269.481 140.265 270.112 173.962 263.174C181.974 261.48 189.884 259.335 197.655 256.75C213.487 251.587 229.027 247.587 245.064 243.318C275.572 235.183 287.661 202.438 284.221 171.054C282.282 153.411 275.817 137.62 269.224 121.56Z" fill="#92E3A9"/>
<path opacity="0.7" d="M269.224 121.56C269.224 121.56 231.848 30.3681 163.52 12.7838C95.192 -4.8004 66.5351 48.9918 56.064 86.3678C45.5929 123.744 7.00798 173.121 10.512 207.075C13.8408 239.347 42.1239 254.607 68.5382 261.159C102.112 269.481 140.265 270.112 173.962 263.174C181.974 261.48 189.884 259.335 197.655 256.75C213.487 251.587 229.027 247.587 245.064 243.318C275.572 235.183 287.661 202.438 284.221 171.054C282.282 153.411 275.817 137.62 269.224 121.56Z" fill="white"/>
<path d="M248.638 21.7305H140.306V171.725H248.638V21.7305Z" stroke="#263238" stroke-linecap="round" stroke-linejoin="round"/>
<path d="M194.472 21.8179V172.25" stroke="#263238" stroke-linecap="round" stroke-linejoin="round"/>
<path d="M248.731 97.0371H140.218" stroke="#263238" stroke-linecap="round" stroke-linejoin="round"/>
<path d="M248.731 59.3691H140.218" stroke="#263238" stroke-linecap="round" stroke-linejoin="round"/>
<path d="M248.731 134.705H140.218" stroke="#263238" stroke-linecap="round" stroke-linejoin="round"/>
<path d="M228.986 76.7549L218.428 86.9048" stroke="#263238" stroke-linecap="round" stroke-linejoin="round"/>
<path d="M244.69 61.6528L232.076 73.7825" stroke="#263238" stroke-linecap="round" stroke-linejoin="round"/>
<path d="M217.663 82.0693L214.31 85.293" stroke="#263238" stroke-linecap="round" stroke-linejoin="round"/>
<path d="M232.064 68.2168L219.969 79.8442" stroke="#263238" stroke-linecap="round" stroke-linejoin="round"/>
<path d="M170.4 42.4097L159.841 52.5596" stroke="#263238" stroke-linecap="round" stroke-linejoin="round"/>
<path d="M186.103 27.3076L173.489 39.4431" stroke="#263238" stroke-linecap="round" stroke-linejoin="round"/>
<path d="M159.076 47.7241L155.724 50.9478" stroke="#263238" stroke-linecap="round" stroke-linejoin="round"/>
<path d="M173.477 33.8774L161.383 45.499" stroke="#263238" stroke-linecap="round" stroke-linejoin="round"/>
<path d="M226.458 116.654L215.905 126.804" stroke="#263238" stroke-linecap="round" stroke-linejoin="round"/>
<path d="M242.167 101.552L229.547 113.687" stroke="#263238" stroke-linecap="round" stroke-linejoin="round"/>
<path d="M215.134 121.968L211.782 125.192" stroke="#263238" stroke-linecap="round" stroke-linejoin="round"/>
<path d="M229.541 108.122L217.447 119.743" stroke="#263238" stroke-linecap="round" stroke-linejoin="round"/>
<path d="M231.223 157.592L230.768 153.691C230.768 153.691 228.694 153.808 227.894 152.003C227.41 150.911 226.919 148.698 227.632 147.606C227.839 147.265 228.142 146.992 228.502 146.82C228.863 146.648 229.266 146.584 229.661 146.638C230.057 146.691 230.429 146.858 230.731 147.12C231.034 147.381 231.253 147.724 231.363 148.108C231.918 149.691 232.193 150.368 232.193 150.368C232.058 148.073 230.33 138.828 235.533 140.236C237.647 140.82 238.225 142.852 238.319 144.464C238.412 146.076 238.196 150.251 238.196 150.251C238.196 150.251 239.592 150.403 239.685 148.085C239.779 145.766 242.021 144.715 243.02 145.813C244.019 146.911 244.468 150.812 243.382 152.033C242.296 153.253 238.856 153.68 238.856 153.68L239.084 157.598L231.223 157.592Z" fill="#327D83" stroke="#263238" stroke-linecap="round" stroke-linejoin="round"/>
<path d="M234.213 140.878C234.213 140.878 233.355 141.661 233.588 144.324C233.822 146.987 233.822 151.753 233.822 151.753" stroke="#263238" stroke-width="0.5" stroke-linecap="round" stroke-linejoin="round"/>
<path d="M236.485 142.677C236.485 142.677 237.501 142.525 237.186 144.949C237.016 146.978 237.016 149.017 237.186 151.046" stroke="#263238" stroke-width="0.5" stroke-linecap="round" stroke-linejoin="round"/>
<path d="M229.127 147.839C229.127 147.839 228.11 148.073 228.583 149.72C229.056 151.367 229.208 152.611 230.3 152.85C230.789 152.971 231.287 153.049 231.79 153.084L231.947 154.801" stroke="#263238" stroke-width="0.5" stroke-linecap="round" stroke-linejoin="round"/>
<path d="M238.984 152.769C238.984 152.769 242.191 152.85 242.816 151.519C243.44 150.187 243.055 147.921 243.055 147.921" stroke="#263238" stroke-width="0.5" stroke-linecap="round" stroke-linejoin="round"/>
<path d="M230.458 148.272C230.458 148.326 230.442 148.379 230.412 148.424C230.382 148.469 230.339 148.504 230.289 148.525C230.238 148.546 230.183 148.551 230.13 148.541C230.077 148.53 230.028 148.504 229.99 148.466C229.951 148.427 229.925 148.378 229.914 148.325C229.904 148.272 229.909 148.217 229.93 148.167C229.951 148.116 229.986 148.073 230.031 148.043C230.076 148.013 230.129 147.997 230.184 147.997C230.22 147.997 230.255 148.004 230.289 148.018C230.322 148.032 230.352 148.052 230.378 148.077C230.403 148.103 230.423 148.133 230.437 148.167C230.451 148.2 230.458 148.236 230.458 148.272V148.272Z" stroke="#263238" stroke-width="0.5" stroke-linecap="round" stroke-linejoin="round"/>
<path d="M231.124 151.712C231.275 151.712 231.398 151.589 231.398 151.437C231.398 151.285 231.275 151.163 231.124 151.163C230.972 151.163 230.849 151.285 230.849 151.437C230.849 151.589 230.972 151.712 231.124 151.712Z" stroke="#263238" stroke-width="0.5" stroke-linecap="round" stroke-linejoin="round"/>
<path d="M229.757 150.421C229.909 150.421 230.032 150.298 230.032 150.147C230.032 149.995 229.909 149.872 229.757 149.872C229.606 149.872 229.483 149.995 229.483 150.147C229.483 150.298 229.606 150.421 229.757 150.421Z" stroke="#263238" stroke-width="0.5" stroke-linecap="round" stroke-linejoin="round"/>
<path d="M235.311 147.18C235.463 147.18 235.586 147.057 235.586 146.905C235.586 146.754 235.463 146.631 235.311 146.631C235.16 146.631 235.037 146.754 235.037 146.905C235.037 147.057 235.16 147.18 235.311 147.18Z" stroke="#263238" stroke-width="0.5" stroke-linecap="round" stroke-linejoin="round"/>
<path d="M232.73 144.517C232.881 144.517 233.004 144.394 233.004 144.242C233.004 144.091 232.881 143.968 232.73 143.968C232.578 143.968 232.455 144.091 232.455 144.242C232.455 144.394 232.578 144.517 232.73 144.517Z" stroke="#263238" stroke-width="0.5" stroke-linecap="round" stroke-linejoin="round"/>
<path d="M236.485 153.785C236.485 153.839 236.469 153.892 236.439 153.937C236.409 153.982 236.366 154.018 236.315 154.038C236.265 154.059 236.21 154.065 236.157 154.054C236.104 154.043 236.055 154.017 236.016 153.979C235.978 153.94 235.952 153.892 235.941 153.838C235.931 153.785 235.936 153.73 235.957 153.68C235.978 153.63 236.013 153.587 236.058 153.557C236.103 153.526 236.156 153.51 236.21 153.51C236.283 153.51 236.353 153.539 236.405 153.591C236.456 153.642 236.485 153.712 236.485 153.785V153.785Z" stroke="#263238" stroke-width="0.5" stroke-linecap="round" stroke-linejoin="round"/>
<path d="M233.512 153.393C233.512 153.447 233.496 153.5 233.466 153.546C233.436 153.591 233.393 153.626 233.343 153.647C233.293 153.668 233.238 153.673 233.184 153.662C233.131 153.652 233.082 153.626 233.044 153.587C233.005 153.549 232.979 153.5 232.969 153.447C232.958 153.393 232.964 153.338 232.984 153.288C233.005 153.238 233.04 153.195 233.085 153.165C233.131 153.135 233.184 153.119 233.238 153.119C233.311 153.119 233.381 153.148 233.432 153.199C233.483 153.251 233.512 153.32 233.512 153.393V153.393Z" stroke="#263238" stroke-width="0.5" stroke-linecap="round" stroke-linejoin="round"/>
<path d="M235.778 142.017C235.93 142.017 236.053 141.894 236.053 141.743C236.053 141.591 235.93 141.468 235.778 141.468C235.627 141.468 235.504 141.591 235.504 141.743C235.504 141.894 235.627 142.017 235.778 142.017Z" stroke="#263238" stroke-width="0.5" stroke-linecap="round" stroke-linejoin="round"/>
<path d="M241.607 146.94C241.607 146.994 241.591 147.047 241.56 147.093C241.53 147.138 241.487 147.173 241.437 147.194C241.387 147.214 241.332 147.22 241.279 147.209C241.225 147.199 241.176 147.172 241.138 147.134C241.1 147.096 241.074 147.047 241.063 146.994C241.052 146.94 241.058 146.885 241.079 146.835C241.099 146.785 241.135 146.742 241.18 146.712C241.225 146.682 241.278 146.666 241.332 146.666C241.405 146.666 241.475 146.694 241.526 146.746C241.578 146.797 241.607 146.867 241.607 146.94V146.94Z" stroke="#263238" stroke-width="0.5" stroke-linecap="round" stroke-linejoin="round"/>
<path d="M240.625 150.935C240.777 150.935 240.9 150.812 240.9 150.66C240.9 150.509 240.777 150.386 240.625 150.386C240.474 150.386 240.351 150.509 240.351 150.66C240.351 150.812 240.474 150.935 240.625 150.935Z" stroke="#263238" stroke-width="0.5" stroke-linecap="round" stroke-linejoin="round"/>
<path d="M235.778 150.853C235.93 150.853 236.053 150.73 236.053 150.579C236.053 150.427 235.93 150.304 235.778 150.304C235.627 150.304 235.504 150.427 235.504 150.579C235.504 150.73 235.627 150.853 235.778 150.853Z" stroke="#263238" stroke-width="0.5" stroke-linecap="round" stroke-linejoin="round"/>
<path d="M242.01 155.063H227.935L229.343 166.603H240.602L242.01 155.063Z" fill="white" stroke="#263238" stroke-linecap="round" stroke-linejoin="round"/>
<path d="M32.4996 133.789L43.2744 236.999" stroke="#263238" stroke-width="2" stroke-miterlimit="10"/>
<path d="M41.5341 217.248L36.6519 212.091" stroke="#263238" stroke-width="2" stroke-miterlimit="10"/>
<path d="M38.1352 213.633C38.1277 212.845 37.9519 212.068 37.6195 211.354C37.2871 210.64 36.8059 210.005 36.208 209.492C34.9583 208.371 28.3591 205.597 27.7342 207.922C27.0334 210.45 33.7903 215.414 38.1352 213.633Z" fill="#327D83" stroke="#263238" stroke-miterlimit="10"/>
<path d="M38.1352 213.633L31.8572 209.72" stroke="#263238" stroke-width="0.5" stroke-miterlimit="10"/>
<path d="M42.7605 228.987L37.8782 223.83" stroke="#263238" stroke-width="2" stroke-miterlimit="10"/>
<path d="M39.3616 225.372C39.352 224.583 39.1734 223.805 38.8379 223.091C38.5025 222.377 38.0179 221.743 37.4169 221.231C36.1671 220.11 29.5679 217.336 28.9431 219.66C28.2598 222.189 35.04 227.176 39.3616 225.372Z" fill="#327D83" stroke="#263238" stroke-miterlimit="10"/>
<path d="M39.3616 225.372L33.0836 221.459" stroke="#263238" stroke-width="0.5" stroke-miterlimit="10"/>
<path d="M38.544 188.603L33.6617 183.446" stroke="#263238" stroke-width="2" stroke-miterlimit="10"/>
<path d="M35.1451 184.994C35.1359 184.205 34.9581 183.426 34.6238 182.711C34.2894 181.996 33.8061 181.361 33.2063 180.847C31.9507 179.732 25.3515 176.952 24.7266 179.288C24.0491 181.805 30.8002 186.769 35.1451 184.994Z" fill="#327D83" stroke="#263238" stroke-miterlimit="10"/>
<path d="M35.1451 184.994L28.8671 181.081" stroke="#263238" stroke-width="0.5" stroke-miterlimit="10"/>
<path d="M39.7704 200.341L34.8882 195.185" stroke="#263238" stroke-width="2" stroke-miterlimit="10"/>
<path d="M36.3715 196.732C36.3619 195.942 36.1834 195.164 35.848 194.448C35.5126 193.733 35.028 193.098 34.4268 192.586C33.177 191.47 26.5778 188.696 25.9529 191.015C25.2697 193.543 32.0207 198.507 36.3715 196.732Z" fill="#327D83" stroke="#263238" stroke-miterlimit="10"/>
<path d="M36.3715 196.732L30.0935 192.819" stroke="#263238" stroke-width="0.5" stroke-miterlimit="10"/>
<path d="M36.5584 169.535L31.6761 164.378" stroke="#263238" stroke-width="2" stroke-miterlimit="10"/>
<path d="M33.1595 165.926C33.1484 165.137 32.9693 164.359 32.6339 163.644C32.2986 162.929 31.8148 162.293 31.2148 161.78C29.9592 160.665 23.3658 157.885 22.7351 160.209C22.0577 162.738 28.8087 167.702 33.1595 165.926Z" fill="#327D83" stroke="#263238" stroke-miterlimit="10"/>
<path d="M33.1595 165.926L26.8757 162.014" stroke="#263238" stroke-width="0.5" stroke-miterlimit="10"/>
<path d="M34.5553 150.386L29.673 145.229" stroke="#263238" stroke-width="2" stroke-miterlimit="10"/>
<path d="M31.1564 146.771C31.1449 145.981 30.9644 145.203 30.6269 144.489C30.2895 143.775 29.8029 143.141 29.2 142.631C27.9444 141.509 21.3452 138.735 20.7203 141.06C20.0604 143.588 26.8115 148.547 31.1564 146.771Z" fill="#327D83" stroke="#263238" stroke-miterlimit="10"/>
<path d="M31.1564 146.771L24.8784 142.858" stroke="#263238" stroke-width="0.5" stroke-miterlimit="10"/>
<path d="M40.7165 210.305L44.4307 204.249" stroke="#263238" stroke-width="2" stroke-miterlimit="10"/>
<path d="M43.2978 206.065C43.1444 205.291 43.1583 204.494 43.3386 203.726C43.5189 202.959 43.8614 202.239 44.3431 201.614C45.3359 200.26 51.2168 196.183 52.3089 198.327C53.5002 200.657 47.9172 206.905 43.2978 206.065Z" fill="#327D83" stroke="#263238" stroke-miterlimit="10"/>
<path d="M43.2978 206.065L48.9509 200.663" stroke="#263238" stroke-width="0.5" stroke-miterlimit="10"/>
<path d="M37.4928 179.411L41.207 173.36" stroke="#263238" stroke-width="2" stroke-miterlimit="10"/>
<path d="M40.0741 175.2C39.9206 174.426 39.9345 173.628 40.1148 172.859C40.2951 172.091 40.6376 171.37 41.1195 170.744C42.1123 169.389 47.9932 165.313 49.0852 167.456C50.2766 169.769 44.6936 176.018 40.0741 175.2Z" fill="#327D83" stroke="#263238" stroke-miterlimit="10"/>
<path d="M40.0741 175.177L45.7272 169.769" stroke="#263238" stroke-width="0.5" stroke-miterlimit="10"/>
<path d="M36.0737 165.839L39.7879 159.783" stroke="#263238" stroke-width="2" stroke-miterlimit="10"/>
<path d="M38.655 161.605C38.5031 160.829 38.5189 160.031 38.7012 159.262C38.8835 158.494 39.2282 157.773 39.712 157.149C40.7107 155.794 46.5916 151.717 47.6836 153.861C48.8575 156.191 43.2744 162.44 38.655 161.605Z" fill="#327D83" stroke="#263238" stroke-miterlimit="10"/>
<path d="M38.655 161.605L44.3081 156.197" stroke="#263238" stroke-width="0.5" stroke-miterlimit="10"/>
<path d="M34.0005 145.936L37.7089 139.886" stroke="#263238" stroke-width="2" stroke-miterlimit="10"/>
<path d="M36.576 141.702C36.4229 140.927 36.4375 140.128 36.6188 139.36C36.8001 138.591 37.144 137.87 37.6272 137.246C38.62 135.891 44.5008 131.815 45.5929 133.958C46.7784 136.294 41.2012 142.543 36.576 141.702Z" fill="#327D83" stroke="#263238" stroke-miterlimit="10"/>
<path d="M36.5759 141.702L42.2349 136.294" stroke="#263238" stroke-width="0.5" stroke-miterlimit="10"/>
<path d="M32.412 133.216C32.2585 132.442 32.2724 131.644 32.4527 130.875C32.633 130.107 32.9755 129.386 33.4574 128.76C34.4502 127.406 40.3311 123.329 41.4231 125.473C42.632 127.803 37.0315 134.051 32.412 133.216Z" fill="#327D83" stroke="#263238" stroke-miterlimit="10"/>
<path d="M32.412 133.216L38.0651 127.809" stroke="#263238" stroke-width="0.5" stroke-miterlimit="10"/>
<path d="M32.7391 133.45C31.9526 133.52 31.1604 133.421 30.4151 133.16C29.6699 132.899 28.9889 132.482 28.4175 131.937C27.1735 130.81 23.7455 124.532 25.9822 123.668C28.4291 122.734 34.0589 128.942 32.7391 133.45Z" fill="#327D83" stroke="#263238" stroke-miterlimit="10"/>
<path d="M32.7391 133.45L27.9561 127.26" stroke="#263238" stroke-width="0.5" stroke-miterlimit="10"/>
<path d="M60.9112 148.003L50.2007 251.22" stroke="#263238" stroke-width="2" stroke-miterlimit="10"/>
<path d="M52.5659 231.533L48.8516 225.482" stroke="#263238" stroke-width="2" stroke-miterlimit="10"/>
<path d="M49.9846 227.299C50.1377 226.524 50.123 225.726 49.9417 224.957C49.7604 224.188 49.4166 223.468 48.9334 222.843C47.9406 221.494 42.0539 217.418 40.9676 219.561C39.7763 221.92 45.3651 228.14 49.9846 227.299Z" fill="#327D83" stroke="#263238" stroke-miterlimit="10"/>
<path d="M49.9845 227.299L44.6468 222.177" stroke="#263238" stroke-width="0.5" stroke-miterlimit="10"/>
<path d="M55.5384 202.888L51.8242 196.837" stroke="#263238" stroke-width="2" stroke-miterlimit="10"/>
<path d="M52.9571 198.653C53.1102 197.879 53.0956 197.08 52.9143 196.312C52.7329 195.543 52.3891 194.822 51.9059 194.197C50.9131 192.848 45.0264 188.772 43.9402 190.915C42.7488 193.251 48.3377 199.494 52.9571 198.653Z" fill="#327D83" stroke="#263238" stroke-miterlimit="10"/>
<path d="M52.9571 198.653L47.6194 193.532" stroke="#263238" stroke-width="0.5" stroke-miterlimit="10"/>
<path d="M54.3237 214.626L50.6036 208.576" stroke="#263238" stroke-width="2" stroke-miterlimit="10"/>
<path d="M51.7365 210.392C51.8899 209.619 51.876 208.821 51.6957 208.054C51.5154 207.286 51.1729 206.566 50.6912 205.942C49.6925 204.587 43.8117 200.511 42.7196 202.654C41.5341 204.984 47.1171 211.233 51.7365 210.392Z" fill="#327D83" stroke="#263238" stroke-miterlimit="10"/>
<path d="M51.7366 210.392L46.3988 205.271" stroke="#263238" stroke-width="0.5" stroke-miterlimit="10"/>
<path d="M57.5182 183.82L53.804 177.77" stroke="#263238" stroke-width="2" stroke-miterlimit="10"/>
<path d="M54.9369 179.586C55.0903 178.811 55.0759 178.013 54.8946 177.244C54.7132 176.475 54.3692 175.755 53.8857 175.13C52.8929 173.775 47.0062 169.705 45.9141 171.848C44.7286 174.178 50.3174 180.456 54.9369 179.586Z" fill="#327D83" stroke="#263238" stroke-miterlimit="10"/>
<path d="M54.9369 179.586L49.5991 174.464" stroke="#263238" stroke-width="0.5" stroke-miterlimit="10"/>
<path d="M59.5038 164.665L55.7896 158.615" stroke="#263238" stroke-width="2" stroke-miterlimit="10"/>
<path d="M56.9225 160.431C57.0759 159.657 57.0619 158.86 56.8816 158.092C56.7013 157.325 56.3588 156.605 55.8771 155.981C54.8785 154.626 48.9917 150.549 47.9055 152.699C46.72 155.029 52.303 161.277 56.9225 160.431Z" fill="#327D83" stroke="#263238" stroke-miterlimit="10"/>
<path d="M56.9225 160.431L51.5847 155.309" stroke="#263238" stroke-width="0.5" stroke-miterlimit="10"/>
<path d="M53.1966 224.566L58.073 219.409" stroke="#263238" stroke-width="2" stroke-miterlimit="10"/>
<path d="M56.5896 220.957C56.5992 220.167 56.7777 219.388 57.1131 218.673C57.4485 217.958 57.9331 217.322 58.5343 216.81C59.7841 215.689 66.3833 212.915 67.0082 215.233C67.6914 217.762 60.9404 222.726 56.5896 220.957Z" fill="#327D83" stroke="#263238" stroke-miterlimit="10"/>
<path d="M56.5896 220.957L63.2414 216.828" stroke="#263238" stroke-width="0.5" stroke-miterlimit="10"/>
<path d="M56.4027 193.678L61.2791 188.515" stroke="#263238" stroke-width="2" stroke-miterlimit="10"/>
<path d="M59.7958 190.063C59.8051 189.274 59.9835 188.496 60.3189 187.782C60.6544 187.068 61.1392 186.433 61.7405 185.922C62.9903 184.801 69.5836 182.021 70.2143 184.346C70.8976 186.88 64.1466 191.838 59.7958 190.063Z" fill="#327D83" stroke="#263238" stroke-miterlimit="10"/>
<path d="M59.7958 190.063L66.4417 185.94" stroke="#263238" stroke-width="0.5" stroke-miterlimit="10"/>
<path d="M57.8102 180.1L62.6866 174.943" stroke="#263238" stroke-width="2" stroke-miterlimit="10"/>
<path d="M61.209 176.485C61.2168 175.696 61.394 174.918 61.7285 174.204C62.063 173.49 62.5471 172.855 63.1479 172.344C64.3977 171.223 70.9969 168.443 71.6218 170.768C72.305 173.296 65.554 178.26 61.209 176.485Z" fill="#327D83" stroke="#263238" stroke-miterlimit="10"/>
<path d="M61.209 176.485L67.855 172.362" stroke="#263238" stroke-width="0.5" stroke-miterlimit="10"/>
<path d="M59.8717 160.197L64.7539 155.041" stroke="#263238" stroke-width="2" stroke-miterlimit="10"/>
<path d="M63.2706 156.588C63.2802 155.798 63.4587 155.019 63.7941 154.304C64.1295 153.589 64.6141 152.954 65.2153 152.442C66.465 151.32 73.0584 148.54 73.6891 150.865C74.3724 153.393 67.6214 158.357 63.2706 156.588Z" fill="#327D83" stroke="#263238" stroke-miterlimit="10"/>
<path d="M63.2706 156.588L69.9165 152.459" stroke="#263238" stroke-width="0.5" stroke-miterlimit="10"/>
<path d="M60.9404 147.42C60.9497 146.631 61.1276 145.854 61.462 145.139C61.7964 144.425 62.2796 143.791 62.8793 143.279C64.1349 142.158 70.7283 139.378 71.3532 141.702C72.0364 144.248 65.2912 149.195 60.9404 147.42Z" fill="#327D83" stroke="#263238" stroke-miterlimit="10"/>
<path d="M60.9404 147.419L67.5864 143.296" stroke="#263238" stroke-width="0.5" stroke-miterlimit="10"/>
<path d="M61.2149 147.717C60.4309 147.625 59.6756 147.366 58.9997 146.958C58.3238 146.55 57.743 146.003 57.2963 145.352C56.3151 143.991 54.2419 137.141 56.6188 136.761C59.2001 136.347 63.4341 143.577 61.2149 147.717Z" fill="#327D83" stroke="#263238" stroke-miterlimit="10"/>
<path d="M61.2149 147.717L57.8102 140.674" stroke="#263238" stroke-width="0.5" stroke-miterlimit="10"/>
<path d="M48.6356 105.973V236.497" stroke="#263238" stroke-width="2" stroke-miterlimit="10"/>
<path d="M48.7407 216.874L44.4191 211.233" stroke="#263238" stroke-width="2" stroke-miterlimit="10"/>
<path d="M45.733 212.926C45.8064 212.141 45.7104 211.348 45.4515 210.603C45.1926 209.857 44.7768 209.176 44.2321 208.605C43.0992 207.361 36.827 203.933 35.9627 206.164C35.04 208.605 41.2245 214.24 45.733 212.926Z" fill="#327D83" stroke="#263238" stroke-miterlimit="10"/>
<path d="M45.7331 212.926L39.8931 208.383" stroke="#263238" stroke-width="0.5" stroke-miterlimit="10"/>
<path d="M48.7407 192.341L44.4191 186.705" stroke="#263238" stroke-width="2" stroke-miterlimit="10"/>
<path d="M45.733 188.398C45.8064 187.613 45.7104 186.82 45.4515 186.075C45.1926 185.329 44.7768 184.648 44.2321 184.077C43.0992 182.833 36.827 179.405 35.9627 181.63C35.04 184.077 41.2245 189.712 45.733 188.398Z" fill="#327D83" stroke="#263238" stroke-miterlimit="10"/>
<path d="M45.7331 188.399L39.8931 183.855" stroke="#263238" stroke-width="0.5" stroke-miterlimit="10"/>
<path d="M48.7407 163.543L44.4191 157.908" stroke="#263238" stroke-width="2" stroke-miterlimit="10"/>
<path d="M45.733 159.596C45.8064 158.81 45.7104 158.018 45.4515 157.272C45.1926 156.527 44.7768 155.845 44.2321 155.274C43.0992 154.03 36.827 150.602 35.9627 152.833C35.04 155.274 41.2245 160.91 45.733 159.596Z" fill="#327D83" stroke="#263238" stroke-miterlimit="10"/>
<path d="M45.7331 159.596L39.8931 155.052" stroke="#263238" stroke-width="0.5" stroke-miterlimit="10"/>
<path d="M48.7407 144.371L44.4191 138.735" stroke="#263238" stroke-width="2" stroke-miterlimit="10"/>
<path d="M45.733 140.423C45.8067 139.638 45.7108 138.846 45.4519 138.102C45.1929 137.357 44.7769 136.677 44.2321 136.107C43.0992 134.863 36.827 131.435 35.9627 133.66C35.04 136.107 41.2245 141.743 45.733 140.423Z" fill="#327D83" stroke="#263238" stroke-miterlimit="10"/>
<path d="M45.7331 140.423L39.8931 135.879" stroke="#263238" stroke-width="0.5" stroke-miterlimit="10"/>
<path d="M48.7407 125.117L44.4191 119.481" stroke="#263238" stroke-width="2" stroke-miterlimit="10"/>
<path d="M45.733 121.169C45.8064 120.383 45.7104 119.591 45.4515 118.845C45.1926 118.1 44.7768 117.418 44.2321 116.847C43.0992 115.603 36.827 112.175 35.9627 114.406C35.04 116.847 41.2245 122.489 45.733 121.169Z" fill="#327D83" stroke="#263238" stroke-miterlimit="10"/>
<path d="M45.7331 121.169L39.8931 116.625" stroke="#263238" stroke-width="0.5" stroke-miterlimit="10"/>
<path d="M48.6472 224.361L52.9688 218.726" stroke="#263238" stroke-width="2" stroke-miterlimit="10"/>
<path d="M51.649 220.413C51.5731 219.626 51.6674 218.832 51.9253 218.084C52.1833 217.337 52.5989 216.653 53.144 216.08C54.2711 214.836 60.5433 211.408 61.4076 213.633C62.3595 216.08 56.1575 221.733 51.649 220.413Z" fill="#327D83" stroke="#263238" stroke-miterlimit="10"/>
<path d="M51.649 220.413L57.8335 215.63" stroke="#263238" stroke-width="0.5" stroke-miterlimit="10"/>
<path d="M48.6472 185.35L52.9688 179.714" stroke="#263238" stroke-width="2" stroke-miterlimit="10"/>
<path d="M51.649 181.402C51.5775 180.616 51.675 179.824 51.9348 179.078C52.1947 178.333 52.611 177.652 53.1557 177.08C54.2828 175.837 60.5549 172.408 61.4193 174.639C62.3595 177.08 56.1574 182.716 51.649 181.402Z" fill="#327D83" stroke="#263238" stroke-miterlimit="10"/>
<path d="M51.649 181.402L57.8335 176.613" stroke="#263238" stroke-width="0.5" stroke-miterlimit="10"/>
<path d="M48.6472 166.096L52.9688 160.46" stroke="#263238" stroke-width="2" stroke-miterlimit="10"/>
<path d="M51.649 162.148C51.5775 161.362 51.675 160.569 51.9348 159.824C52.1947 159.079 52.611 158.397 53.1557 157.826C54.2828 156.582 60.5549 153.154 61.4193 155.385C62.3595 157.826 56.1574 163.462 51.649 162.148Z" fill="#327D83" stroke="#263238" stroke-miterlimit="10"/>
<path d="M51.649 162.148L57.8335 157.359" stroke="#263238" stroke-width="0.5" stroke-miterlimit="10"/>
<path d="M48.6472 140.645L52.9688 135.009" stroke="#263238" stroke-width="2" stroke-miterlimit="10"/>
<path d="M51.649 136.697C51.5775 135.911 51.675 135.119 51.9348 134.373C52.1947 133.628 52.611 132.947 53.1557 132.375C54.2828 131.131 60.5549 127.703 61.4193 129.934C62.3595 132.375 56.1574 138.011 51.649 136.697Z" fill="#327D83" stroke="#263238" stroke-miterlimit="10"/>
<path d="M51.649 136.697L57.8335 131.908" stroke="#263238" stroke-width="0.5" stroke-miterlimit="10"/>
<path d="M48.6472 120.637L52.9688 114.996" stroke="#263238" stroke-width="2" stroke-miterlimit="10"/>
<path d="M51.649 116.689C51.5775 115.903 51.675 115.111 51.9348 114.365C52.1947 113.62 52.611 112.939 53.1557 112.368C54.2828 111.124 60.5549 107.696 61.4193 109.926C62.3595 112.368 56.1574 118.003 51.649 116.689Z" fill="#327D83" stroke="#263238" stroke-miterlimit="10"/>
<path d="M51.649 116.689L57.8335 111.9" stroke="#263238" stroke-width="0.5" stroke-miterlimit="10"/>
<path d="M48.3844 107.812C48.313 107.026 48.4104 106.234 48.6703 105.489C48.9302 104.743 49.3464 104.062 49.8911 103.491C51.0183 102.253 57.2904 98.8189 58.1547 101.05C59.095 103.491 52.8929 109.132 48.3844 107.812Z" fill="#327D83" stroke="#263238" stroke-miterlimit="10"/>
<path d="M48.3844 107.812L54.569 103.023" stroke="#263238" stroke-width="0.5" stroke-miterlimit="10"/>
<path d="M48.6881 108.081C47.8985 108.071 47.1202 107.892 46.4058 107.556C45.6915 107.219 45.0577 106.733 44.5475 106.13C43.4321 104.881 40.6639 98.2815 42.9883 97.6566C45.5111 96.9792 50.4693 103.736 48.6881 108.081Z" fill="#327D83" stroke="#263238" stroke-miterlimit="10"/>
<path d="M48.6881 108.081L44.5767 101.429" stroke="#263238" stroke-width="0.5" stroke-miterlimit="10"/>
<path d="M54.0083 270.351H40.1851L38.4564 235.44H55.737L54.0083 270.351Z" fill="#263238" stroke="#263238" stroke-miterlimit="10"/>
<path d="M178.908 128.48H221.529L211.601 165.05H168.98L178.908 128.48Z" fill="#7D7D7D" stroke="#263238" stroke-linecap="round" stroke-linejoin="round"/>
<path d="M180.123 129.841H219.572L210.386 163.689H170.937L180.123 129.841Z" fill="white" stroke="#263238" stroke-linecap="round" stroke-linejoin="round"/>
<path d="M211.601 163.111H151.846V165.056H211.601V163.111Z" fill="#7D7D7D" stroke="#263238" stroke-linecap="round" stroke-linejoin="round"/>
<path d="M211.601 163.111H184.141V165.056H211.601V163.111Z" fill="#595959" stroke="#263238" stroke-linecap="round" stroke-linejoin="round"/>
<path d="M135.944 168.151H132.732V270.123H135.944V168.151Z" fill="white" stroke="#263238" stroke-linecap="round" stroke-linejoin="round"/>
<path d="M129.987 270.123H132.732V168.151H129.987V270.123Z" fill="#A8A8A8" stroke="#263238" stroke-linecap="round" stroke-linejoin="round"/>
<path d="M218.229 221.505H215.017V270.123H218.229V221.505Z" fill="white" stroke="#263238" stroke-linecap="round" stroke-linejoin="round"/>
<path d="M212.272 270.129H215.017V221.511H212.272V270.129Z" fill="#A8A8A8" stroke="#263238" stroke-linecap="round" stroke-linejoin="round"/>
<path d="M252.621 221.505H249.409V270.123H252.621V221.505Z" fill="white" stroke="#263238" stroke-linecap="round" stroke-linejoin="round"/>
<path d="M246.664 270.129H249.409V221.511H246.664V270.129Z" fill="#A8A8A8" stroke="#263238" stroke-linecap="round" stroke-linejoin="round"/>
<path d="M183.177 224.279H214.515V169.138H183.177V224.279Z" fill="#A8A8A8" stroke="#263238" stroke-linecap="round" stroke-linejoin="round"/>
<path d="M255.81 169.144H214.515V224.285H255.81V169.144Z" fill="white" stroke="#263238" stroke-linecap="round" stroke-linejoin="round"/>
<path d="M214.515 169.144H183.183V171.83H214.515H255.81V169.144H214.515Z" fill="#263238" stroke="#263238" stroke-linecap="round" stroke-linejoin="round"/>
<path d="M212.57 172.303H185.852V185.175H212.57V172.303Z" fill="white" stroke="#263238" stroke-linecap="round" stroke-linejoin="round"/>
<path d="M202.736 177.524H195.693V179.954H202.736V177.524Z" fill="#263238"/>
<path d="M212.57 190.034H185.852V202.905H212.57V190.034Z" fill="white" stroke="#263238" stroke-linecap="round" stroke-linejoin="round"/>
<path d="M202.736 195.015H195.693V197.445H202.736V195.015Z" fill="#263238"/>
<path d="M212.57 207.764H185.852V220.635H212.57V207.764Z" fill="white" stroke="#263238" stroke-linecap="round" stroke-linejoin="round"/>
<path d="M202.736 212.5H195.693V214.929H202.736V212.5Z" fill="#263238"/>
<path d="M260.073 166.72H125.56V169.926H260.073V166.72Z" fill="#A8A8A8" stroke="#263238" stroke-linecap="round" stroke-linejoin="round"/>
<path d="M260.073 166.72H219.456V169.926H260.073V166.72Z" fill="white" stroke="#263238" stroke-linecap="round" stroke-linejoin="round"/>
<path d="M136.966 199.354C136.966 199.354 140.972 202.128 146.894 219.275C148.867 224.974 159.969 255.71 160.553 257.819C161.137 259.927 162.305 262.491 164.057 262.491C165.809 262.491 172.233 254.315 171.451 253.345C170.668 252.376 166.977 248.475 166.977 248.475C166.977 248.475 164.77 223.596 164.378 216.588C163.987 209.58 165.582 201.141 161.885 195.494C158.188 189.847 141.83 195.687 141.83 195.687L136.966 199.354Z" fill="white" stroke="#263238" stroke-linecap="round" stroke-linejoin="round"/>
<path d="M168.776 248.504C168.325 248.746 167.955 249.115 167.712 249.566C167.469 250.016 167.364 250.529 167.409 251.038C167.608 252.79 169.36 255.126 169.36 255.126C169.36 255.126 165.657 258.046 163.713 258.239C161.768 258.432 159.625 258.823 159.625 259.407C159.625 259.991 161.184 260.966 162.153 263.104C163.227 265.272 164.465 267.355 165.856 269.335C166.44 270.112 166.825 270.696 168.969 270.112C171.112 269.528 175.784 265.247 178.313 263.495C180.841 261.743 188.433 260.575 189.8 259.6C191.167 258.625 195.441 252.399 193.497 251.231C191.552 250.063 190.968 251.424 188.632 252.008C186.296 252.592 179.481 251.815 175.784 251.038C172.087 250.262 170.913 250.063 170.913 250.063L168.776 248.504Z" fill="#327D83" stroke="#263238" stroke-linecap="round" stroke-linejoin="round"/>
<path d="M165.517 268.891C165.646 269.078 165.751 269.23 165.833 269.335C166.417 270.112 166.802 270.696 168.945 270.112C171.089 269.528 175.761 265.247 178.289 263.495C180.818 261.743 188.41 260.575 189.777 259.6C191.143 258.625 195.418 252.399 193.473 251.231C193.2 251.06 192.903 250.93 192.592 250.846C192.627 250.974 192.662 251.091 192.697 251.231C193.281 253.567 191.33 255.903 189.578 257.655C187.826 259.407 181.986 259.016 175.562 262.327C172.012 264.19 168.649 266.388 165.517 268.891Z" fill="white" stroke="#263238" stroke-linecap="round" stroke-linejoin="round"/>
<path d="M165.33 229.027C164.91 223.906 164.542 219.099 164.402 216.617C164.011 209.609 165.605 201.171 161.908 195.523C158.211 189.876 141.854 195.716 141.854 195.716L136.966 199.354C136.966 199.354 140.972 202.128 146.894 219.275C147.647 221.453 149.738 227.299 152.068 233.799L165.33 229.027Z" fill="#263238" stroke="#263238" stroke-linecap="round" stroke-linejoin="round"/>
<path d="M155.799 99.5021C156.305 100.855 156.545 102.293 156.506 103.736C156.331 105.681 154.561 106.563 154.386 106.037C154.235 105.162 154.176 104.273 154.211 103.386V102.679C153.775 103.398 153.24 104.053 152.623 104.624C151.384 105.856 150.678 105.506 150.146 105.506C149.615 105.506 149.44 103.754 150.327 102.504C151.215 101.254 154.036 98.4392 155.799 99.5021Z" fill="white" stroke="#263238" stroke-linecap="round" stroke-linejoin="round"/>
<path d="M159.864 104.092C158.112 103.029 155.449 106.744 151.384 105.844C150.865 105.733 150.678 104.962 151.56 103.199C152.441 101.435 155.268 100.016 156.681 98.9588C158.095 97.9018 159.158 97.0141 159.158 95.776C159.158 94.5379 155.975 96.4827 155.07 97.1893C154 97.8555 152.888 98.4505 151.741 98.9705L150.976 99.0114C149.405 99.1107 146.981 99.391 146.064 100.179C144.861 101.225 144.172 104.816 143.886 106.2C143.103 107.333 142.403 108.379 142 109.009C140.761 110.948 115.86 129.146 115.86 129.146L117.612 144.686L145.872 112.566C146.654 111.926 147.555 111.446 148.523 111.153C150.468 110.446 153.113 109.915 155.414 108.677C157.116 107.767 158.768 106.765 160.361 105.675C161.593 104.91 160.822 104.665 159.864 104.092Z" fill="white" stroke="#263238" stroke-linecap="round" stroke-linejoin="round"/>
<path d="M130.162 118.552C123.224 123.808 115.883 129.175 115.883 129.175L117.635 144.715L135.009 124.976L130.162 118.552Z" fill="#327D83" stroke="#263238" stroke-linecap="round" stroke-linejoin="round"/>
<path d="M121.472 177.344C121.472 177.344 133.929 176.76 152.033 179.68C170.137 182.6 176.911 185.712 176.368 189.216C174.16 203.431 140.972 250.227 140.972 250.227L141.556 256.843C141.556 256.843 140.388 258.403 136.3 258.595C132.212 258.788 127.148 252.954 127.148 252.954C127.148 252.954 131.721 248.224 133.473 242.582C135.225 236.941 149.311 200.505 149.311 200.505C149.311 200.505 130.816 204.593 110.376 200.896C89.936 197.2 121.472 177.344 121.472 177.344Z" fill="white" stroke="#263238" stroke-linecap="round" stroke-linejoin="round"/>
<path d="M152.033 179.68C133.929 176.76 121.472 177.344 121.472 177.344C121.472 177.344 89.936 197.2 110.376 200.896C130.816 204.593 149.311 200.505 149.311 200.505C149.311 200.505 143.471 215.689 138.799 227.953L152.529 233.209C162.352 218.352 175.031 197.819 176.368 189.216C176.911 185.712 170.137 182.6 152.033 179.68Z" fill="#263238" stroke="#263238" stroke-linecap="round" stroke-linejoin="round"/>
<path d="M140.972 250.227C140.579 250.389 140.221 250.627 139.921 250.928C139.62 251.228 139.382 251.585 139.22 251.979C138.844 252.869 138.519 253.779 138.244 254.706C136.114 254.247 134.03 253.594 132.019 252.755C130.537 252.078 129.105 251.298 127.732 250.419C127.732 250.419 125.98 250.618 125.98 251.786C125.971 253.581 125.642 255.361 125.011 257.042C124.509 258.292 123.44 261.077 122.745 262.882C122.664 263.095 122.63 263.323 122.645 263.55C122.66 263.777 122.724 263.998 122.832 264.199C122.94 264.399 123.09 264.574 123.271 264.712C123.453 264.849 123.662 264.946 123.884 264.996C126.967 265.679 133.467 267.18 139.027 268.891C146.619 271.227 154.988 270.059 155.963 269.866C156.938 269.674 160.828 267.332 159.076 265.778C157.324 264.225 147.004 260.131 144.867 257.404C142.73 254.677 140.972 250.227 140.972 250.227Z" fill="#327D83" stroke="#263238" stroke-linecap="round" stroke-linejoin="round"/>
<path d="M158.293 265.253C158.293 267.186 157.3 269.107 154.205 269.107C151.11 269.107 145.638 268.722 137.853 265.603C133.156 263.762 128.328 262.271 123.411 261.142C123.171 261.766 122.938 262.374 122.739 262.894C122.658 263.107 122.624 263.334 122.639 263.562C122.654 263.789 122.718 264.01 122.826 264.211C122.934 264.411 123.084 264.586 123.265 264.724C123.447 264.861 123.656 264.958 123.878 265.008C126.962 265.691 133.462 267.192 139.021 268.903C146.613 271.239 154.982 270.071 155.957 269.878C156.932 269.686 160.822 267.344 159.07 265.79C158.827 265.589 158.567 265.409 158.293 265.253Z" fill="white" stroke="#263238" stroke-linecap="round" stroke-linejoin="round"/>
<path d="M82.1454 131.984C82.1454 131.984 80.0255 148.768 80.2065 151.945C80.3876 155.122 82.6768 182.5 83.2083 188.509C83.7397 194.519 86.21 199.81 90.6251 200.873C95.0401 201.936 106.522 203.518 111.468 202.286C116.415 201.054 121.711 189.923 123.475 185.683C125.239 181.443 126.483 178.792 125.951 177.91C125.42 177.028 123.125 175.083 123.125 175.083C123.125 175.083 118.71 142.963 117.647 134.635C116.584 126.308 117.121 125.63 113.232 122.447C109.342 119.265 89.2118 116.631 82.1454 131.984Z" fill="#327D83" stroke="#263238" stroke-linecap="round" stroke-linejoin="round"/>
<path d="M110.411 190.565C109.774 191.05 109.109 191.511 108.431 191.943" stroke="#263238" stroke-linecap="round" stroke-linejoin="round"/>
<path d="M122.056 176.368C122.056 176.368 118.307 183.727 112.099 189.181" stroke="#263238" stroke-linecap="round" stroke-linejoin="round"/>
<path d="M119.329 176.759C119.329 176.759 113.296 182.401 107.263 185.905" stroke="#263238" stroke-linecap="round" stroke-linejoin="round"/>
<path d="M124.182 79.1845C125.153 81.2248 125.924 83.3548 126.483 85.5443C127.008 88.1956 127.189 90.666 128.422 91.1974C129.654 91.7289 131.926 91.904 131.604 93.3173C131.283 94.7306 128.953 97.0257 128.953 97.0257C128.953 97.0257 129.484 105.505 129.303 107.094C129.122 108.682 119.767 108.682 119.241 108.682C118.715 108.682 113.401 121.227 113.401 121.227L98.5675 113.804L101.394 104.624C101.394 104.624 96.8038 95.7876 96.4476 91.904C96.0913 88.0204 105.12 80.954 110.23 79.3656C115.34 77.7771 124.182 79.1845 124.182 79.1845Z" fill="white" stroke="#263238" stroke-linecap="round" stroke-linejoin="round"/>
<path d="M119.241 108.683L114.528 107.339L116.292 114.236L119.241 108.683Z" fill="#263238" stroke="#263238" stroke-linecap="round" stroke-linejoin="round"/>
<path d="M125.934 89.177C126.167 90.1756 126.056 91.0575 125.677 91.1451C125.297 91.2327 124.795 90.5027 124.555 89.5099C124.316 88.5171 124.433 87.6294 124.812 87.5418C125.192 87.4542 125.694 88.1842 125.934 89.177Z" fill="#263238"/>
<path d="M122.95 98.6143C122.95 98.6143 125.069 100.209 127.008 99.5019" stroke="#263238" stroke-linecap="round" stroke-linejoin="round"/>
<path d="M123.3 75.8324C123.3 75.8324 125.776 80.2475 124.007 83.074C122.237 85.9006 118.003 87.1328 115.708 89.7842C113.413 92.4356 112.204 97.0258 111.293 97.3762C110.382 97.7266 107.789 92.4297 106.165 92.7801C104.542 93.1305 101.931 96.8681 104.226 100.728C104.859 101.834 105.792 102.737 106.919 103.331C108.045 103.926 109.317 104.188 110.586 104.086C110.586 104.086 104.226 107.444 102.994 107.444C101.762 107.444 98.0478 105.324 96.2841 103.356C94.5204 101.388 88.184 95.6125 87.7986 90.8471C87.4131 86.0816 93.8021 80.0723 93.8021 80.0723C93.8021 80.0723 86.2101 79.5408 88.1548 76.7143C90.0995 73.8877 96.9849 72.124 96.9849 72.124C96.9849 72.124 95.7468 67.709 97.5163 66.8213C99.2858 65.9336 110.055 69.496 110.055 69.496C110.055 69.496 107.053 65.6124 111.293 65.408C115.533 65.2036 122.768 70.5297 123.3 75.8324Z" fill="#263238" stroke="#263238" stroke-linecap="round" stroke-linejoin="round"/>
<path d="M109.243 95.0108L131.78 85.9004" stroke="#263238" stroke-linecap="round" stroke-linejoin="round"/>
<path d="M125.905 84.6217C126.842 84.2151 127.9 84.1851 128.86 84.5379C129.819 84.8908 130.605 85.5993 131.056 86.5165C131.507 87.4338 131.587 88.4893 131.28 89.4642C130.974 90.4391 130.303 91.2584 129.409 91.7523" stroke="#263238" stroke-linecap="round" stroke-linejoin="round"/>
<path d="M117.647 126.144C117.647 126.144 117.472 121.022 116.058 119.609C114.645 118.196 104.226 112.368 99.4552 111.135C94.6839 109.903 89.7433 111.661 86.5605 112.724C83.3777 113.787 81.2636 116.8 80.008 123.347C78.7524 129.893 78.5947 133.941 81.2461 134.297C83.8974 134.653 87.6058 126.705 95.9045 125.11C104.203 123.516 111.801 124.935 113.57 125.817C115.34 126.699 117.647 126.144 117.647 126.144Z" fill="#327D83" stroke="#263238" stroke-linecap="round" stroke-linejoin="round"/>
<path d="M90.8237 120.748C89.2293 121.332 88.1548 121.753 88.1548 121.753" stroke="#263238" stroke-linecap="round" stroke-linejoin="round"/>
<path d="M117.647 126.144C117.647 126.144 106.551 119.965 102.463 118.727C100.343 118.085 96.5352 118.932 93.3816 119.895" stroke="#263238" stroke-linecap="round" stroke-linejoin="round"/>
<path d="M170.096 154.877C170.096 154.877 169.512 158.55 168.84 158.965C168.169 159.38 168.209 155.554 168.209 155.554C168.209 155.554 167.369 157.756 166.849 158.282C166.329 158.807 166.639 156.027 166.639 156.027L167.223 153.405L170.096 154.877Z" fill="white" stroke="#263238" stroke-linecap="round" stroke-linejoin="round"/>
<path d="M162.621 151.256L168.04 151.343C168.04 151.343 169.471 151.548 169.675 152.365C169.965 153.27 170.307 154.157 170.697 155.023L162.311 152.57L162.621 151.256Z" fill="white" stroke="#263238" stroke-linecap="round" stroke-linejoin="round"/>
<path d="M164.559 152.967C164.559 152.967 172.151 151.945 172.333 152.558C172.484 153.02 173.068 157.178 173.197 158.521C173.199 158.567 173.187 158.612 173.162 158.651C173.137 158.689 173.101 158.719 173.058 158.735C173.015 158.751 172.968 158.754 172.923 158.741C172.879 158.729 172.84 158.703 172.811 158.667L170.697 155.011L164.968 155.42C164.968 155.42 163.333 153.989 164.559 152.967Z" fill="white" stroke="#263238" stroke-linecap="round" stroke-linejoin="round"/>
<path d="M101.797 130.068C101.797 130.068 97.09 133.543 98.7252 142.134C100.36 150.724 111.813 174.254 112.835 176.274C113.857 178.295 118.353 178.523 120.397 177.91C122.441 177.296 158.848 162.784 158.848 162.784C158.848 162.784 162.732 161.756 163.345 160.939C163.958 160.121 167.847 155.829 167.847 155.829C167.847 155.829 173.979 156.646 175.41 156.237C176.841 155.829 173.979 155.42 172.549 155.011C171.445 154.696 165.36 152.319 162.621 151.244C162.226 151.085 161.793 151.047 161.377 151.136C160.961 151.224 160.58 151.435 160.285 151.741C158.369 153.703 154.287 157.867 153.51 158.486C152.488 159.303 123.662 164.215 123.662 164.215C123.662 164.215 116.911 132.521 114.254 129.864C111.597 127.207 106.895 127.82 106.895 127.82" fill="#327D83"/>
<path d="M101.797 130.068C101.797 130.068 97.09 133.543 98.7252 142.134C100.36 150.724 111.813 174.254 112.835 176.274C113.857 178.295 118.353 178.523 120.397 177.91C122.441 177.296 158.848 162.784 158.848 162.784C158.848 162.784 162.732 161.756 163.345 160.939C163.958 160.121 167.847 155.829 167.847 155.829C167.847 155.829 173.979 156.646 175.41 156.237C176.841 155.829 173.979 155.42 172.549 155.011C171.445 154.696 165.36 152.319 162.621 151.244C162.226 151.085 161.793 151.047 161.377 151.136C160.961 151.224 160.58 151.435 160.285 151.741C158.369 153.703 154.287 157.867 153.51 158.486C152.488 159.303 123.662 164.215 123.662 164.215C123.662 164.215 116.911 132.521 114.254 129.864C111.597 127.207 106.895 127.82 106.895 127.82" stroke="#263238" stroke-linecap="round" stroke-linejoin="round"/>
<path d="M139.821 170.341C149.37 166.557 158.848 162.784 158.848 162.784C158.848 162.784 162.732 161.757 163.345 160.939C163.958 160.121 167.842 155.829 167.842 155.829C167.842 155.829 173.979 156.647 175.434 156.238C176.888 155.829 174.003 155.42 172.572 155.011C171.468 154.696 165.383 152.319 162.644 151.245C162.249 151.085 161.816 151.048 161.4 151.136C160.984 151.224 160.604 151.435 160.308 151.741C158.392 153.703 154.31 157.867 153.534 158.486C153.002 158.912 144.949 160.443 137.339 161.815L139.821 170.341Z" fill="white" stroke="#263238" stroke-linecap="round" stroke-linejoin="round"/>
<path d="M75.92 210.579L67.014 269.761C66.9822 269.886 67.0013 270.018 67.067 270.129C67.1327 270.239 67.2397 270.319 67.3644 270.351C67.4891 270.383 67.6212 270.364 67.7319 270.298C67.8425 270.232 67.9225 270.125 67.9542 270.001L81.3862 211.554L75.92 210.579Z" fill="#9C9C9C" stroke="#263238" stroke-linecap="round" stroke-linejoin="round"/>
<path d="M89.2118 210.97L93.0837 269.65C93.0837 269.779 93.1348 269.902 93.2257 269.993C93.3166 270.084 93.4399 270.135 93.5684 270.135C93.697 270.135 93.8203 270.084 93.9112 269.993C94.0021 269.902 94.0532 269.779 94.0532 269.65L94.7248 210.497L89.2118 210.97Z" fill="#9C9C9C" stroke="#263238" stroke-linecap="round" stroke-linejoin="round"/>
<path d="M102.276 211.852L112.905 269.516C112.936 269.631 113.009 269.731 113.109 269.796C113.21 269.861 113.331 269.887 113.449 269.868C113.567 269.849 113.674 269.787 113.749 269.694C113.825 269.601 113.863 269.484 113.857 269.364L107.666 210.596L102.276 211.852Z" fill="#9C9C9C" stroke="#263238" stroke-linecap="round" stroke-linejoin="round"/>
<path d="M122.821 211.367L131.517 269.417C131.543 269.534 131.611 269.637 131.709 269.706C131.807 269.776 131.927 269.806 132.046 269.793C132.165 269.779 132.274 269.721 132.354 269.632C132.433 269.542 132.476 269.426 132.475 269.306L128.258 210.322L122.821 211.367Z" fill="#9C9C9C" stroke="#263238" stroke-linecap="round" stroke-linejoin="round"/>
<path d="M114.511 199.553C114.511 199.553 104.285 196.142 99.5136 183.878C94.7423 171.614 86.9109 150.485 81.4563 147.752C76.0017 145.019 65.443 150.135 64.7597 169.898C64.0765 189.66 65.6766 204.354 70.08 209.212C73.9753 213.493 80.592 218.948 103.561 219.333C124.077 219.684 132.451 211.864 135.295 209.212C138.139 206.561 142.788 200.896 139.045 200.896C135.301 200.896 119.282 200.896 114.511 199.553Z" fill="white" stroke="#263238" stroke-linecap="round" stroke-linejoin="round"/>
<path d="M161.727 78.2557C161.727 78.2557 157.738 73.5837 152.196 72.7135C146.654 71.8433 146.28 79.9259 153.364 83.4708C155.351 84.3849 157.553 84.7286 159.724 84.4636C159.724 84.4636 154.065 91.1504 157.727 92.2191C165.903 94.6252 164.151 82.0225 164.151 82.0225L161.727 78.2557Z" fill="white" stroke="#263238" stroke-linecap="round" stroke-linejoin="round"/>
<path d="M163.07 77.9346C163.07 77.9346 160.734 72.264 162.486 66.9262C164.238 61.5885 171.182 65.2151 171.112 73.14C171.085 75.1905 170.537 77.2004 169.518 78.98C169.518 78.98 178.43 77.082 177.332 80.732C174.838 89.0307 165.325 81.8124 165.325 81.8124L163.07 77.9346Z" fill="white" stroke="#263238" stroke-linecap="round" stroke-linejoin="round"/>
<path d="M166.166 85.0185C166.064 85.0185 165.965 84.9921 165.877 84.9419C165.788 84.8917 165.715 84.8195 165.663 84.7323L160.121 75.4234C160.042 75.2909 160.018 75.1323 160.055 74.9823C160.092 74.8324 160.187 74.7033 160.32 74.6233C160.386 74.5833 160.459 74.5568 160.536 74.5454C160.612 74.534 160.69 74.538 160.765 74.557C160.84 74.576 160.911 74.6097 160.973 74.6562C161.035 74.7027 161.086 74.761 161.126 74.8277L166.662 84.1367C166.741 84.2692 166.765 84.4277 166.728 84.5777C166.691 84.7277 166.596 84.8568 166.463 84.9367C166.373 84.9887 166.27 85.0168 166.166 85.0185Z" fill="#263238"/>
<path d="M161.067 76.235C161.067 76.235 159.07 72.0243 155.525 71.563" stroke="#263238" stroke-linecap="round" stroke-linejoin="round"/>
<path d="M161.126 74.8278C161.126 74.8278 159.958 71.3588 160.845 69.1396" stroke="#263238" stroke-linecap="round" stroke-linejoin="round"/>
<path d="M157.592 78.7642C157.382 79.792 155.84 80.3526 154.17 80.0139C152.5 79.6752 151.291 78.5598 151.501 77.5319C151.712 76.5041 153.253 75.9376 154.924 76.2822C156.594 76.6267 157.803 77.7305 157.592 78.7642Z" fill="#327D83" stroke="#263238" stroke-linecap="round" stroke-linejoin="round"/>
<path d="M161.768 86.0058C162.352 86.397 162.352 87.495 161.692 88.4703C161.032 89.4455 160.016 89.9361 159.432 89.5156C158.848 89.0951 158.848 88.0264 159.508 87.0511C160.168 86.0758 161.143 85.6145 161.768 86.0058Z" fill="#327D83" stroke="#263238" stroke-linecap="round" stroke-linejoin="round"/>
<path d="M173.909 81.1173C173.909 81.8298 172.987 82.4196 171.824 82.4371C170.662 82.4547 169.716 81.8882 169.705 81.1757C169.693 80.4632 170.627 79.8734 171.789 79.8559C172.952 79.8383 173.898 80.4107 173.909 81.1173Z" fill="#327D83" stroke="#263238" stroke-linecap="round" stroke-linejoin="round"/>
<path d="M166.714 75.0206C165.669 75.1374 164.665 73.8526 164.478 72.1415C164.291 70.4303 164.986 68.9645 166.031 68.8477C167.077 68.7309 168.075 70.0157 168.262 71.7268C168.449 73.4379 167.76 74.9038 166.714 75.0206Z" fill="#327D83" stroke="#263238" stroke-linecap="round" stroke-linejoin="round"/>
<path d="M14.1036 270.351H286.125" stroke="#263238" stroke-linecap="round" stroke-linejoin="round"/>
</svg>
