<svg width="292" height="292" viewBox="0 0 292 292" fill="none" xmlns="http://www.w3.org/2000/svg">
<path d="M271.268 66.2665C270.341 64.7092 269.368 63.1713 268.348 61.6529C254.817 41.5925 231.521 27.8744 208.605 21.6723C198.551 18.9977 188.222 17.4908 177.822 17.1813C109.716 14.8453 82.5893 68.5733 60.082 82.3966C37.5746 96.2199 2.92004 119.913 5.25604 169.547C7.59204 219.181 43.3445 265.907 112.601 268.827C181.858 271.747 186.477 240.55 225.144 229.004C250.735 221.365 268.944 195.564 277.821 171.719C289.956 139.214 289.384 97.0083 271.268 66.2665Z" fill="#92E3A9"/>
<path opacity="0.7" d="M271.268 66.2665C270.341 64.7092 269.368 63.1713 268.348 61.6529C254.817 41.5925 231.521 27.8744 208.605 21.6723C198.551 18.9977 188.222 17.4908 177.822 17.1813C109.716 14.8453 82.5893 68.5733 60.082 82.3966C37.5746 96.2199 2.92004 119.913 5.25604 169.547C7.59204 219.181 43.3445 265.907 112.601 268.827C181.858 271.747 186.477 240.55 225.144 229.004C250.735 221.365 268.944 195.564 277.821 171.719C289.956 139.214 289.384 97.0083 271.268 66.2665Z" fill="white"/>
<path d="M256.119 70.9501V69.0288H220.577V40.5413H219.421V69.0288H184.129V70.9501H219.421V97.3236H184.129V99.2508H219.421V125.624H184.129V127.546H219.421V155.256H220.577V127.546H256.119V125.624H220.577V99.2508H256.119V97.3236H220.577V70.9501H256.119Z" fill="#263238" stroke="#263238" stroke-miterlimit="10"/>
<path d="M181.694 38.2285V158.34H258.303V38.2285H181.694ZM255.716 154.281H184.281V42.2815H255.716V154.281Z" fill="#263238" stroke="#263238" stroke-miterlimit="10"/>
<path d="M148.336 189.169C148.339 189.162 148.34 189.154 148.34 189.147C148.34 189.139 148.338 189.131 148.335 189.124C148.331 189.117 148.327 189.111 148.321 189.105C148.315 189.1 148.309 189.096 148.301 189.093C148.294 189.091 148.286 189.089 148.278 189.09C148.271 189.09 148.263 189.092 148.256 189.095C148.249 189.098 148.242 189.103 148.237 189.109C148.232 189.114 148.228 189.121 148.225 189.129C146.51 193.238 145.154 197.487 144.172 201.831C143.171 206.174 142.416 210.571 141.912 215L141.597 218.329C141.55 218.883 141.486 219.438 141.445 219.993L141.357 221.663C141.311 222.779 141.241 223.894 141.206 225.009L141.241 228.356L141.276 230.026C141.276 230.581 141.34 231.141 141.381 231.696C141.463 232.806 141.533 233.921 141.632 235.031C141.848 237.25 142.181 239.452 142.52 241.653C142.523 241.666 142.531 241.678 142.541 241.686C142.552 241.695 142.565 241.699 142.578 241.7C142.586 241.701 142.594 241.7 142.601 241.698C142.609 241.695 142.616 241.691 142.621 241.685C142.627 241.68 142.631 241.673 142.634 241.665C142.636 241.658 142.637 241.65 142.636 241.642C142.636 240.526 142.584 239.423 142.56 238.307C142.537 237.192 142.432 236.1 142.449 234.99C142.467 233.88 142.449 232.771 142.414 231.667L142.379 230.008V228.35V225.033L142.467 221.722L142.502 220.063C142.502 219.508 142.566 218.959 142.595 218.404L142.8 215.093C143.177 210.683 143.802 206.298 144.675 201.959C145.523 197.598 146.749 193.319 148.336 189.169Z" fill="#263238"/>
<path d="M148.809 206.502C148.813 206.488 148.812 206.474 148.805 206.461C148.799 206.448 148.788 206.438 148.774 206.432C148.767 206.43 148.759 206.428 148.751 206.428C148.743 206.429 148.736 206.431 148.729 206.434C148.722 206.437 148.715 206.442 148.71 206.448C148.705 206.453 148.701 206.46 148.698 206.467C146.805 211.999 145.545 217.728 144.943 223.544C144.651 226.464 144.324 229.348 144.283 232.268C144.214 235.192 144.317 238.117 144.593 241.028C144.596 241.041 144.603 241.051 144.612 241.06C144.621 241.068 144.633 241.073 144.645 241.075C144.653 241.077 144.66 241.077 144.668 241.076C144.675 241.074 144.682 241.071 144.688 241.067C144.694 241.062 144.699 241.056 144.703 241.05C144.707 241.043 144.709 241.036 144.709 241.028C145.048 238.108 145.253 235.224 145.457 232.327C145.661 229.43 145.691 226.528 145.877 223.631C146.275 217.842 147.253 212.108 148.797 206.514L148.809 206.502Z" fill="#263238"/>
<path d="M158.422 212.605C158.411 212.595 158.396 212.589 158.381 212.589C158.366 212.589 158.351 212.595 158.34 212.605C155.937 214.148 153.772 216.035 151.916 218.206C150.984 219.303 150.144 220.475 149.405 221.71L148.891 222.685L148.482 223.701C148.345 224.035 148.228 224.376 148.132 224.723C148.027 225.074 147.91 225.412 147.816 225.763C147.082 228.536 146.638 231.378 146.491 234.243C146.347 237.092 146.453 239.949 146.806 242.781C146.81 242.794 146.817 242.805 146.828 242.813C146.838 242.822 146.851 242.827 146.864 242.827C146.872 242.828 146.879 242.827 146.886 242.825C146.893 242.823 146.9 242.819 146.905 242.814C146.911 242.809 146.915 242.803 146.918 242.796C146.921 242.79 146.923 242.782 146.923 242.775L147.659 234.324C147.858 231.528 148.215 228.746 148.727 225.991C148.803 225.646 148.903 225.319 148.99 224.98C149.069 224.642 149.166 224.309 149.282 223.982L149.627 223.006L150.071 222.084C150.739 220.854 151.509 219.682 152.372 218.58C154.087 216.341 156.119 214.363 158.404 212.71C158.414 212.706 158.422 212.699 158.429 212.691C158.435 212.683 158.439 212.673 158.441 212.663C158.443 212.652 158.442 212.641 158.439 212.632C158.435 212.622 158.429 212.613 158.422 212.605Z" fill="#263238"/>
<path d="M153.767 223.462C152.52 224.372 151.517 225.575 150.847 226.966C150.141 228.335 149.591 229.779 149.206 231.27C149.095 231.638 149.002 232.012 148.92 232.385L148.657 233.507C148.519 234.262 148.423 235.024 148.371 235.79C148.371 236.561 148.342 237.326 148.371 238.091C148.427 238.857 148.526 239.62 148.669 240.375C148.673 240.385 148.679 240.395 148.687 240.403C148.695 240.411 148.705 240.417 148.716 240.421C148.723 240.423 148.731 240.423 148.739 240.422C148.747 240.42 148.754 240.417 148.761 240.413C148.767 240.408 148.773 240.403 148.777 240.396C148.781 240.39 148.784 240.382 148.786 240.375C148.963 239.633 149.099 238.882 149.195 238.126C149.311 237.379 149.428 236.643 149.516 235.901C149.603 235.159 149.72 234.429 149.779 233.688C149.837 232.946 149.936 232.204 150.1 231.48C150.356 230.017 150.776 228.587 151.35 227.217C151.867 225.82 152.708 224.565 153.802 223.555C153.807 223.55 153.812 223.545 153.814 223.538C153.817 223.531 153.819 223.524 153.819 223.517C153.819 223.51 153.817 223.503 153.814 223.497C153.812 223.49 153.807 223.484 153.802 223.479C153.793 223.47 153.781 223.464 153.767 223.462Z" fill="#263238"/>
<path d="M140.289 231.93C139.973 228.18 139.354 224.46 138.77 220.752C138.186 217.044 137.532 213.335 136.855 209.656C136.177 205.977 135.418 202.28 134.618 198.613C134.621 198.604 134.622 198.594 134.62 198.585C134.619 198.576 134.615 198.568 134.61 198.56C134.604 198.553 134.597 198.546 134.589 198.542C134.581 198.538 134.572 198.536 134.563 198.536C134.553 198.536 134.544 198.538 134.536 198.542C134.528 198.546 134.521 198.553 134.515 198.56C134.51 198.568 134.506 198.576 134.505 198.585C134.503 198.594 134.504 198.604 134.507 198.613C135.149 202.315 135.728 206.023 136.259 209.738C136.791 213.452 137.351 217.16 137.824 220.88C138.297 224.601 138.642 228.338 139.103 232.052L140.476 243.224C140.479 243.238 140.486 243.25 140.497 243.26C140.507 243.269 140.52 243.275 140.534 243.277C140.55 243.277 140.566 243.271 140.577 243.26C140.589 243.249 140.597 243.234 140.598 243.218C140.639 242.278 140.639 241.338 140.662 240.392C140.686 239.446 140.622 238.511 140.61 237.571C140.592 235.685 140.429 233.81 140.289 231.93Z" fill="#263238"/>
<path d="M138.04 231.877C137.836 230.388 137.567 228.911 137.281 227.439L136.755 225.249C136.58 224.519 136.417 223.789 136.206 223.065C135.457 220.155 134.497 217.303 133.333 214.532L132.883 213.499L132.387 212.488C132.066 211.811 131.686 211.163 131.318 210.503C130.581 209.191 129.669 207.985 128.608 206.917C128.604 206.912 128.598 206.908 128.591 206.905C128.585 206.902 128.578 206.901 128.571 206.901C128.563 206.901 128.556 206.902 128.55 206.905C128.543 206.908 128.537 206.912 128.533 206.917C128.522 206.928 128.516 206.943 128.516 206.958C128.516 206.973 128.522 206.988 128.533 206.999C129.521 208.105 130.354 209.341 131.009 210.672C131.336 211.338 131.68 211.992 131.961 212.681L132.404 213.703L132.796 214.749C133.833 217.529 134.669 220.38 135.295 223.281C135.634 224.723 135.879 226.201 136.142 227.655L136.492 229.851C136.621 230.581 136.779 231.311 136.878 232.047C137.112 233.512 137.386 234.967 137.637 236.444C137.888 237.922 138.134 239.364 138.449 240.853C138.451 240.866 138.457 240.879 138.467 240.888C138.476 240.897 138.488 240.904 138.501 240.906C138.518 240.906 138.533 240.9 138.545 240.889C138.557 240.878 138.564 240.863 138.566 240.847C138.566 239.349 138.531 237.85 138.461 236.351C138.373 234.856 138.192 233.366 138.04 231.877Z" fill="#263238"/>
<path d="M134.933 232.07C134.238 230.096 133.432 228.169 132.556 226.283C131.673 224.397 130.675 222.567 129.566 220.805C129.563 220.797 129.559 220.79 129.552 220.784C129.546 220.778 129.539 220.773 129.531 220.77C129.523 220.768 129.515 220.767 129.506 220.767C129.498 220.768 129.489 220.771 129.482 220.775C129.475 220.779 129.469 220.785 129.464 220.792C129.459 220.799 129.456 220.807 129.454 220.816C129.453 220.824 129.453 220.833 129.455 220.841C129.458 220.849 129.462 220.857 129.467 220.863C130.431 222.694 131.284 224.582 132.019 226.516C132.778 228.432 133.467 230.382 134.04 232.356C134.612 234.33 135.05 236.345 135.576 238.33C136.101 240.316 136.574 242.319 137.188 244.328C137.191 244.34 137.198 244.35 137.207 244.357C137.217 244.364 137.228 244.368 137.24 244.369C137.256 244.369 137.272 244.363 137.284 244.352C137.295 244.342 137.303 244.327 137.304 244.311C137.326 242.215 137.131 240.123 136.72 238.068C136.286 236.024 135.689 234.018 134.933 232.07Z" fill="#263238"/>
<path d="M134.805 238.628C134.422 237.399 133.865 236.231 133.152 235.159C132.488 234.061 131.679 233.057 130.746 232.175C130.27 231.743 129.758 231.352 129.216 231.007C128.675 230.659 128.084 230.396 127.464 230.225C127.451 230.222 127.437 230.224 127.426 230.231C127.414 230.237 127.405 230.247 127.4 230.26C127.391 230.27 127.386 230.284 127.386 230.298C127.386 230.311 127.391 230.325 127.4 230.336C128.507 230.869 129.488 231.632 130.279 232.572C131.078 233.492 131.751 234.513 132.282 235.609C132.866 236.684 133.146 237.875 133.643 238.99C133.859 239.574 134.075 240.129 134.332 240.702C134.541 241.303 134.793 241.888 135.085 242.454C135.091 242.462 135.099 242.47 135.108 242.475C135.117 242.48 135.127 242.482 135.138 242.483C135.145 242.484 135.153 242.483 135.16 242.481C135.167 242.478 135.173 242.475 135.179 242.47C135.184 242.465 135.189 242.459 135.192 242.452C135.195 242.445 135.196 242.438 135.196 242.43C135.22 241.789 135.196 241.147 135.126 240.509C135.085 239.872 134.957 239.247 134.805 238.628Z" fill="#263238"/>
<path d="M135.038 203.962C133.16 203.443 131.46 202.419 130.122 201.003C128.784 199.586 127.859 197.831 127.446 195.926C126.027 189.304 130.6 192.142 126.5 181.735C122.401 171.328 123.347 168.963 124.748 165.967C126.15 162.971 126.956 163.917 128.217 167.859C129.479 171.801 134.057 177.951 135.809 189.467C137.561 200.984 135.038 203.962 135.038 203.962Z" fill="#92E3A9"/>
<path d="M147.168 192.773C147.168 192.773 143.08 191.353 142.911 183.627C142.741 175.901 145.907 177.478 146.38 167.859C146.853 158.241 147.484 151.46 149.218 151.303C150.953 151.145 155.525 156.033 157.102 166.755C158.679 177.478 155.052 184.573 151.899 187.727C148.745 190.88 147.168 192.773 147.168 192.773Z" fill="#92E3A9"/>
<path d="M132.831 213.265C132.831 213.265 131.885 207.589 129.993 204.908C128.1 202.228 124.001 199.862 121.32 194.665C118.64 189.467 115.644 186.938 115.801 194.349C115.959 201.76 119.27 205.539 123.393 208.062C127.516 210.585 132.831 213.265 132.831 213.265Z" fill="#92E3A9"/>
<path d="M131.096 223.041C131.096 223.041 127.312 215.788 121.793 210.427C116.275 205.066 111.865 202.385 113.436 205.066C115.007 207.746 116.905 207.589 119.586 212.319C122.266 217.049 121.478 220.495 125.262 223.199C129.047 225.903 131.096 223.041 131.096 223.041Z" fill="#92E3A9"/>
<path d="M130.623 232.344C130.466 231.871 130.308 228.402 124.947 225.564C119.586 222.726 114.54 223.812 115.171 225.249C115.801 226.686 119.113 229.033 122.424 230.452C125.735 231.871 130.623 232.344 130.623 232.344Z" fill="#92E3A9"/>
<path d="M146.859 213.581C146.859 213.581 144.493 210.585 145.755 204.278C147.016 197.97 149.843 199.547 153.008 196.236C156.173 192.925 155.531 192.457 158.685 188.988C161.838 185.519 164.677 183.627 165.938 185.046C167.199 186.465 165.307 190.886 163.415 193.403C161.523 195.92 158.527 197.182 157.096 200.312C155.665 203.442 156.308 208.488 152.681 210.877C149.055 213.265 146.859 213.581 146.859 213.581Z" fill="#92E3A9"/>
<path d="M154.76 215.315C154.76 215.315 160.436 208.85 164.536 204.12C168.636 199.389 170.213 195.768 170.376 198.916C170.54 202.064 171.795 204.593 168.484 208.692C165.173 212.792 154.76 215.315 154.76 215.315Z" fill="#92E3A9"/>
<path d="M151.747 225.722C151.747 225.722 151.589 223.199 160.577 217.365C169.565 211.531 173.349 210.427 172.403 212.792C171.457 215.157 167.515 217.522 163.257 221.78C159 226.037 151.747 225.722 151.747 225.722Z" fill="#92E3A9"/>
<path d="M135.412 203.29C135.412 203.29 133.304 191.984 131.096 183.942C128.889 175.901 127.47 171.013 127.47 171.013" stroke="#263238" stroke-linecap="round" stroke-linejoin="round"/>
<path d="M146.812 192.889C146.812 192.889 150.643 180.625 151.904 173.22C153.166 165.815 151.747 160.291 151.116 156.979" stroke="#263238" stroke-linecap="round" stroke-linejoin="round"/>
<path d="M132.334 213.032C130.636 210.111 128.692 207.341 126.524 204.75C123.055 200.662 120.374 198.443 118.797 194.507" stroke="#263238" stroke-linecap="round" stroke-linejoin="round"/>
<path d="M146.859 213.581C146.859 213.581 148.12 205.989 151.116 202.07C154.112 198.151 160.104 191.984 162.469 188.054" stroke="#263238" stroke-linecap="round" stroke-linejoin="round"/>
<path d="M130.232 232.169C130.232 232.169 124.929 228.718 121.145 226.826" stroke="#263238" stroke-linecap="round" stroke-linejoin="round"/>
<path d="M147.688 265.609H136.732L131.254 238.179H153.166L147.688 265.609Z" fill="#263238" stroke="#263238" stroke-linecap="round" stroke-linejoin="round"/>
<path d="M37.8433 265.609H286.148" stroke="#263238" stroke-miterlimit="10"/>
<path d="M18.2092 265.609H33.6093" stroke="#263238" stroke-miterlimit="10"/>
<path d="M126.226 97.528V79.132H124.561V55.591C124.562 53.6847 124.187 51.7969 123.458 50.0355C122.729 48.2741 121.66 46.6736 120.313 45.3254C118.965 43.9772 117.365 42.9077 115.604 42.178C113.843 41.4483 111.955 41.0728 110.049 41.0728H32.0732C28.2227 41.0728 24.5299 42.6024 21.8072 45.325C19.0845 48.0477 17.5549 51.7405 17.5549 55.591V240.97C17.5549 244.821 19.0845 248.513 21.8072 251.236C24.5299 253.959 28.2227 255.488 32.0732 255.488H110.049C111.955 255.488 113.843 255.113 115.604 254.383C117.365 253.653 118.965 252.584 120.313 251.236C121.66 249.887 122.729 248.287 123.458 246.526C124.187 244.764 124.562 242.876 124.561 240.97V113.208H126.226V102.34H124.561V97.528H126.226Z" fill="#707070" stroke="#263238" stroke-linejoin="round"/>
<path d="M107.503 253.485H34.6135C30.5354 253.485 26.6242 251.865 23.7406 248.981C20.8569 246.098 19.2368 242.187 19.2368 238.108V58.4526C19.2368 49.9554 23.5935 43.07 34.6135 43.07H107.503C117.612 42.9357 122.885 49.9554 122.885 58.4526V238.108C122.885 240.128 122.487 242.128 121.714 243.994C120.941 245.86 119.808 247.556 118.379 248.984C116.951 250.411 115.255 251.544 113.389 252.316C111.523 253.089 109.522 253.486 107.503 253.485Z" fill="#263238" stroke="#263238" stroke-linejoin="round"/>
<path d="M76.7026 45.4353L76.6734 45.5462C75.8207 48.7232 73.8585 50.8022 71.686 50.8022H70.4362C68.2638 50.8022 66.3015 48.7465 65.4489 45.5462V45.4353L35.0342 45.3301C33.3501 45.3248 31.6816 45.6517 30.1241 46.2923C28.5667 46.9328 27.1509 47.8744 25.9579 49.063C24.765 50.2516 23.8182 51.664 23.172 53.2191C22.5258 54.7742 22.1928 56.4415 22.192 58.1256L22.1511 236.211C22.1511 244.509 28.6452 251.237 36.6635 251.237H105.482C113.5 251.237 120 244.509 120 236.211V56.8466C120.001 53.9259 118.849 51.1229 116.796 49.0456C114.743 46.9684 111.953 45.7844 109.033 45.7506L76.7026 45.4353Z" fill="white" stroke="#263238" stroke-miterlimit="10"/>
<path d="M119.989 60.0819V56.8466C119.989 53.9258 118.837 51.1228 116.784 49.0456C114.731 46.9683 111.942 45.7844 109.021 45.7506L76.7025 45.4177L76.6733 45.5286C75.8206 48.7056 73.8584 50.7846 71.6859 50.7846H70.4361C68.2637 50.7846 66.3014 48.729 65.4488 45.5286V45.4177L35.0341 45.3126C33.3486 45.3072 31.6786 45.6347 30.12 46.2764C28.5614 46.918 27.1448 47.8611 25.9516 49.0516C24.7584 50.2421 23.8121 51.6565 23.1669 53.2136C22.5217 54.7708 22.1904 56.44 22.1919 58.1255V60.0819H119.989Z" fill="#DBDBDB" stroke="#263238" stroke-miterlimit="10"/>
<path d="M72.124 45.0848C72.124 44.8143 72.0437 44.5498 71.8933 44.325C71.7429 44.1001 71.5291 43.925 71.279 43.8217C71.029 43.7185 70.7539 43.6917 70.4887 43.745C70.2234 43.7982 69.9799 43.9289 69.7891 44.1206C69.5982 44.3123 69.4685 44.5563 69.4164 44.8218C69.3644 45.0873 69.3923 45.3622 69.4966 45.6118C69.6009 45.8614 69.777 46.0745 70.0025 46.2239C70.228 46.3734 70.4927 46.4525 70.7633 46.4514C70.9425 46.4514 71.1199 46.416 71.2853 46.3472C71.4508 46.2785 71.6011 46.1777 71.7275 46.0508C71.8539 45.9238 71.9541 45.7731 72.0221 45.6073C72.0901 45.4416 72.1248 45.264 72.124 45.0848Z" fill="#707070"/>
<path d="M31.7695 48.5538C31.7695 49.9379 30.2219 50.4343 30.2161 51.4738V51.5439H31.717V52.0052H29.7139V51.6256C29.7139 50.1481 31.2615 49.8736 31.2615 48.5771C31.2615 48.1041 31.1038 47.8588 30.7242 47.8588C30.3446 47.8588 30.1869 48.1275 30.1869 48.5304V48.9334H29.7139V48.5655C29.7139 47.8647 30.0292 47.3975 30.7359 47.3975C31.4425 47.3975 31.7695 47.888 31.7695 48.5538Z" fill="#263238"/>
<path d="M34.2749 48.5479V48.6647C34.2946 48.8646 34.2482 49.0654 34.1427 49.2363C34.0371 49.4073 33.8784 49.5388 33.6909 49.6108C33.8796 49.681 34.0395 49.8122 34.1453 49.9836C34.251 50.1549 34.2967 50.3567 34.2749 50.5568V50.9072C34.2749 51.608 33.9479 52.0752 33.2412 52.0752C32.5346 52.0752 32.2134 51.6197 32.2134 50.9072V50.5977H32.7039V50.9423C32.7039 51.3511 32.8733 51.6022 33.2412 51.6022C33.6091 51.6022 33.7727 51.3569 33.7727 50.8956V50.5452C33.7727 50.0896 33.5858 49.8736 33.1887 49.8619H32.9142V49.4064H33.212C33.2915 49.4073 33.3703 49.3909 33.4429 49.3583C33.5154 49.3258 33.58 49.2778 33.6322 49.2178C33.6844 49.1579 33.723 49.0873 33.7452 49.0109C33.7675 48.9345 33.7728 48.8543 33.761 48.7756V48.5712C33.761 48.0982 33.5975 47.8588 33.2295 47.8588C32.8616 47.8588 32.6923 48.1099 32.6923 48.5245V48.7581H32.2134V48.5479C32.2134 47.8529 32.5404 47.3799 33.2412 47.3799C33.942 47.3799 34.2749 47.8529 34.2749 48.5479Z" fill="#263238"/>
<path d="M35.2618 48.8984V49.5292H34.7712V48.8984H35.2618ZM35.2618 51.3863V52.017H34.7712V51.3921L35.2618 51.3863Z" fill="#263238"/>
<path d="M36.2898 49.3071C36.3575 49.1869 36.4572 49.0878 36.5778 49.0208C36.6984 48.9538 36.8352 48.9215 36.973 48.9275C37.557 48.9275 37.8198 49.3596 37.8198 50.0137V50.9072C37.8198 51.608 37.487 52.0752 36.792 52.0752C36.097 52.0752 35.7642 51.6197 35.7642 50.9072V50.6035H36.2372V50.9423C36.2372 51.3511 36.4124 51.6022 36.7745 51.6022C37.1366 51.6022 37.3118 51.3511 37.3118 50.9423V50.0546C37.3118 49.6399 37.1424 49.3947 36.7745 49.3947C36.7081 49.3915 36.6418 49.4018 36.5796 49.4251C36.5173 49.4483 36.4605 49.4839 36.4124 49.5298C36.3643 49.5757 36.3261 49.6308 36.3 49.6919C36.2739 49.753 36.2605 49.8188 36.2606 49.8852V49.9845H35.7817L35.9043 47.4441H37.7089V47.8879H36.3657L36.2898 49.3071Z" fill="#263238"/>
<path d="M40.366 48.5422V48.6298H39.8872V48.513C39.8872 48.0983 39.7178 47.8589 39.344 47.8589C38.9703 47.8589 38.76 48.1042 38.76 48.5947V49.6401C38.8129 49.4896 38.9133 49.3604 39.046 49.2719C39.1788 49.1835 39.3366 49.1405 39.4959 49.1495C40.0799 49.1495 40.3485 49.5759 40.3485 50.2358V50.9249C40.3485 51.6257 40.004 52.0929 39.3032 52.0929C38.6024 52.0929 38.252 51.6374 38.252 50.9249V48.5889C38.252 47.8647 38.579 47.4209 39.3032 47.4209C40.0273 47.4209 40.366 47.8414 40.366 48.5422ZM38.7892 50.2533V50.9424C38.7892 51.3512 38.9586 51.6023 39.3324 51.6023C39.7061 51.6023 39.8755 51.3512 39.8755 50.9424V50.2533C39.8755 49.8445 39.7003 49.5934 39.3324 49.5934C38.9644 49.5934 38.7892 49.8445 38.7892 50.2533Z" fill="#263238"/>
<path d="M90.298 48.7466H89.0073V51.9761H90.298V48.7466Z" fill="#263238"/>
<path d="M92.0209 48.0984H90.7302V51.9761H92.0209V48.0984Z" fill="#263238"/>
<path d="M93.7435 47.637H92.4529V51.9702H93.7435V47.637Z" fill="#263238"/>
<path d="M95.4606 46.8369H94.1699V51.9703H95.4606V46.8369Z" fill="#263238"/>
<path d="M111.445 51.8825H103.695V47.1462H111.445V51.8825ZM104.127 51.4562H111.012V47.5784H104.127V51.4562Z" fill="#263238"/>
<path d="M108.863 48.0457H104.775V50.9832H108.863V48.0457Z" fill="#263238"/>
<path d="M112.151 48.9568H111.176V50.0722H112.151V48.9568Z" fill="#263238"/>
<path d="M100.857 50.8547C100.803 50.8559 100.751 50.8417 100.705 50.8138C99.1281 49.8736 98.0886 50.7438 98.0419 50.7846C97.9883 50.8378 97.9158 50.8676 97.8404 50.8676C97.7649 50.8676 97.6925 50.8378 97.6389 50.7846C97.5854 50.7301 97.5554 50.6567 97.5554 50.5802C97.5554 50.5038 97.5854 50.4304 97.6389 50.3758C97.6973 50.3291 99.0288 49.2078 100.979 50.3758C101.032 50.4094 101.072 50.4587 101.094 50.5167C101.116 50.5746 101.119 50.6381 101.103 50.6979C101.087 50.7578 101.052 50.8109 101.003 50.8496C100.955 50.8883 100.895 50.9106 100.833 50.9131L100.857 50.8547Z" fill="#263238"/>
<path d="M101.441 49.8795C101.387 49.8807 101.334 49.8665 101.289 49.8387C99.0112 48.4838 97.4752 49.7978 97.4636 49.8387C97.405 49.8786 97.3339 49.8958 97.2635 49.8872C97.1932 49.8786 97.1283 49.8446 97.0812 49.7917C97.034 49.7388 97.0076 49.6706 97.0071 49.5997C97.0065 49.5288 97.0318 49.4601 97.0781 49.4065C97.0781 49.4065 98.9469 47.8063 101.587 49.3715C101.62 49.3907 101.648 49.4163 101.671 49.4468C101.694 49.4773 101.711 49.5121 101.72 49.5491C101.729 49.5861 101.731 49.6246 101.725 49.6623C101.719 49.7 101.706 49.7361 101.686 49.7686C101.658 49.8062 101.62 49.836 101.577 49.8554C101.535 49.8748 101.488 49.8831 101.441 49.8795Z" fill="#263238"/>
<path d="M101.966 48.7523C101.915 48.7526 101.864 48.7385 101.82 48.7114C98.9355 46.9944 97.0141 48.6121 96.9323 48.7114C96.9057 48.7386 96.8739 48.7602 96.8388 48.7749C96.8037 48.7897 96.766 48.7973 96.7279 48.7973C96.6899 48.7973 96.6522 48.7897 96.6171 48.7749C96.582 48.7602 96.5502 48.7386 96.5235 48.7114C96.4983 48.6833 96.479 48.6505 96.4668 48.6148C96.4546 48.5791 96.4497 48.5413 96.4524 48.5037C96.4551 48.4661 96.4654 48.4294 96.4827 48.3958C96.4999 48.3623 96.5237 48.3325 96.5527 48.3084C96.5527 48.3084 98.8537 46.3345 102.118 48.2734C102.184 48.3133 102.231 48.3774 102.249 48.4516C102.268 48.5259 102.256 48.6045 102.218 48.6705C102.185 48.7033 102.146 48.7279 102.102 48.7421C102.058 48.7563 102.012 48.7598 101.966 48.7523Z" fill="#263238"/>
<path d="M99.9866 51.3395C99.9877 51.4851 99.9452 51.6277 99.8646 51.749C99.784 51.8703 99.669 51.9647 99.5344 52.0201C99.3997 52.0755 99.2516 52.0894 99.109 52.0599C98.9664 52.0305 98.8358 51.959 98.7341 51.8548C98.6325 51.7506 98.5642 51.6184 98.5383 51.4751C98.5123 51.3318 98.5298 51.184 98.5885 51.0508C98.6472 50.9175 98.7444 50.8049 98.8676 50.7273C98.9908 50.6497 99.1344 50.6107 99.28 50.6154C99.469 50.6199 99.6487 50.6982 99.7807 50.8336C99.9128 50.9689 99.9867 51.1505 99.9866 51.3395Z" fill="#263238"/>
<path d="M70.9733 127.114C83.8213 127.312 94.526 132.183 102.965 141.924C103.236 142.219 103.445 142.566 103.579 142.944C103.713 143.322 103.768 143.723 103.743 144.123C103.717 144.523 103.611 144.914 103.43 145.271C103.249 145.629 102.997 145.947 102.69 146.205C102.393 146.459 102.048 146.652 101.676 146.77C101.303 146.889 100.91 146.932 100.521 146.896C100.131 146.86 99.7532 146.746 99.4086 146.561C99.0639 146.376 98.76 146.124 98.5147 145.819C95.5035 142.261 91.843 139.308 87.7283 137.118C81.4008 133.756 74.2092 132.373 67.0863 133.149C59.9634 133.925 53.238 136.823 47.7827 141.468C46.2578 142.824 44.811 144.265 43.4494 145.784C43.1952 146.092 42.8826 146.346 42.5295 146.532C42.1764 146.719 41.7899 146.833 41.3924 146.869C40.9948 146.905 40.5941 146.861 40.2134 146.741C39.8327 146.621 39.4796 146.427 39.1745 146.17C38.8734 145.906 38.6285 145.585 38.4543 145.225C38.2801 144.865 38.1802 144.473 38.1606 144.074C38.1409 143.674 38.202 143.275 38.3401 142.899C38.4782 142.524 38.6904 142.18 38.9643 141.889C45.7186 133.865 55.2474 128.679 65.6531 127.365C66.494 127.254 67.3408 127.16 68.1876 127.125C69.0344 127.09 70.0447 127.114 70.9733 127.114Z" fill="#263238"/>
<path d="M72.0363 139.021C80.1539 139.231 87.8043 142.695 93.7844 149.633C94.0598 149.924 94.2722 150.268 94.4086 150.645C94.545 151.022 94.6023 151.423 94.5771 151.823C94.5519 152.222 94.4447 152.613 94.2621 152.97C94.0795 153.326 93.8255 153.641 93.5158 153.896C93.2165 154.156 92.8675 154.352 92.4899 154.472C92.1124 154.593 91.7142 154.635 91.3197 154.597C90.9253 154.559 90.5427 154.441 90.1953 154.25C89.848 154.059 89.5431 153.799 89.2993 153.487C86.301 149.858 82.2671 147.23 77.7361 145.953C68.3279 143.407 60.1519 145.731 53.3191 152.71C53.0621 152.973 52.8285 153.253 52.5891 153.522C52.336 153.823 52.0256 154.07 51.676 154.25C51.3264 154.43 50.9446 154.538 50.5527 154.569C50.1607 154.6 49.7666 154.553 49.3931 154.43C49.0196 154.308 48.6742 154.112 48.377 153.855C48.0798 153.597 47.8367 153.284 47.6619 152.931C47.487 152.579 47.3839 152.196 47.3585 151.804C47.3331 151.411 47.3859 151.018 47.5139 150.646C47.6419 150.274 47.8424 149.932 48.104 149.638C50.744 146.507 54.0001 143.953 57.6699 142.134C61.8688 140.049 66.3248 139.039 72.0363 139.021Z" fill="#263238"/>
<path d="M85.3866 159.321C85.3891 159.922 85.2089 160.51 84.87 161.006C84.531 161.503 84.0493 161.884 83.4886 162.101C82.9202 162.326 82.2954 162.367 81.7023 162.218C81.1093 162.07 80.5779 161.739 80.1831 161.272C78.9503 159.816 77.3999 158.664 75.6513 157.902C70.7807 155.835 65.4079 157.096 61.7813 161.184C61.4155 161.65 60.9144 161.992 60.3466 162.163C59.7789 162.333 59.1724 162.324 58.6102 162.136C58.1442 161.99 57.7214 161.731 57.3796 161.383C57.0378 161.034 56.7876 160.606 56.6511 160.137C56.5147 159.669 56.4963 159.173 56.5977 158.696C56.699 158.218 56.9169 157.773 57.2319 157.4C58.9078 155.384 61.0077 153.763 63.3817 152.652C65.7558 151.541 68.3457 150.967 70.9669 150.972C73.5881 150.976 76.1761 151.559 78.5463 152.678C80.9166 153.797 83.0109 155.425 84.6799 157.446C85.0435 158.01 85.3377 158.616 85.5559 159.251L85.3866 159.321Z" fill="#263238"/>
<path d="M70.9677 174.908C69.7875 174.911 68.633 174.564 67.6505 173.911C66.6679 173.257 65.9017 172.326 65.4491 171.236C64.9964 170.146 64.8776 168.946 65.1079 167.789C65.3381 166.632 65.907 165.569 66.7423 164.735C67.5776 163.901 68.6417 163.335 69.7996 163.107C70.9575 162.879 72.157 163 73.246 163.455C74.3349 163.909 75.2642 164.677 75.916 165.661C76.5678 166.645 76.9127 167.8 76.9069 168.98C76.9077 169.76 76.7545 170.532 76.4562 171.252C76.1578 171.973 75.7202 172.627 75.1684 173.178C74.6166 173.728 73.9614 174.165 73.2405 174.462C72.5197 174.759 71.7473 174.91 70.9677 174.908Z" fill="#263238"/>
<path d="M71.0027 106.288C62.6027 106.287 54.391 108.777 47.4062 113.443C40.4214 118.109 34.9772 124.742 31.7622 132.502C28.5471 140.262 27.7056 148.802 29.3441 157.04C30.9825 165.279 35.0274 172.847 40.9671 178.786C46.9067 184.726 54.4744 188.771 62.7131 190.409C70.9517 192.048 79.4912 191.206 87.2515 187.991C95.0118 184.776 101.644 179.332 106.311 172.347C110.977 165.362 113.466 157.151 113.465 148.751C113.451 137.493 108.973 126.701 101.013 118.74C93.0526 110.78 82.2602 106.302 71.0027 106.288ZM34.3742 148.774C34.3648 141.658 36.4296 134.694 40.3159 128.734C44.2021 122.773 49.7414 118.074 56.2561 115.212C62.7708 112.35 69.9784 111.449 76.9972 112.619C84.016 113.789 90.5416 116.979 95.7759 121.799L44.0277 173.524C37.8162 166.779 34.37 157.944 34.3742 148.774ZM71.0027 185.403C62.7634 185.407 54.7657 182.62 48.3143 177.495L99.7063 126.103C103.977 131.498 106.641 137.987 107.392 144.826C108.143 151.666 106.95 158.578 103.952 164.771C100.953 170.963 96.2701 176.186 90.4391 179.838C84.608 183.49 77.8656 185.425 70.9851 185.42L71.0027 185.403Z" fill="#92E3A9"/>
<path d="M249.66 265.609H244.124L242.938 252.434H250.845L249.66 265.609Z" fill="#263238" stroke="#263238" stroke-miterlimit="10"/>
<path d="M272.716 265.609H267.18L265.994 252.434H273.902L272.716 265.609Z" fill="#263238" stroke="#263238" stroke-miterlimit="10"/>
<path d="M217.382 265.609H211.846L210.666 252.434H218.568L217.382 265.609Z" fill="#263238" stroke="#263238" stroke-miterlimit="10"/>
<path d="M192.679 265.609H187.149L185.963 252.434H193.865L192.679 265.609Z" fill="#263238" stroke="#263238" stroke-miterlimit="10"/>
<path d="M219.099 167.55H276.635C276.635 167.55 276.863 187.552 273.902 201.714C270.941 215.876 267.314 224.437 267.314 224.437H212.64C212.64 224.437 220.752 193.111 219.099 167.55Z" fill="white" stroke="#263238" stroke-miterlimit="10"/>
<path d="M242.979 170.604C237.933 170.207 235.93 169.191 232.157 167.1C227.246 164.408 226.195 166.201 226.545 168.893C226.896 171.585 221.774 189.333 220.705 198.268C219.636 207.203 219.999 212.009 219.999 212.009C219.999 212.009 216.845 214.702 218.947 215.595C220.3 216.156 221.713 216.558 223.158 216.792H263.839C263.839 216.792 271.069 179.644 271.77 173.67C272.471 167.696 269.317 167.1 267.559 167.993C265.802 168.887 265.457 169.488 262.998 169.786C257.252 170.528 249.893 171.141 242.979 170.604Z" fill="#92E3A9"/>
<path d="M229.88 171.206C230.932 170.024 231.673 168.599 232.035 167.059C231.544 166.796 231.095 166.58 230.68 166.405C230.41 167.842 229.752 169.177 228.776 170.265C228.048 171.15 227.145 171.876 226.125 172.397C226.02 172.928 225.903 173.506 225.774 174.149C227.386 173.562 228.806 172.544 229.88 171.206Z" fill="white"/>
<path d="M266.304 182.827C263.729 185.852 263.828 188.539 263.921 191.143C264.015 193.573 264.097 195.862 261.889 198.461C259.681 201.06 257.398 201.334 254.986 201.638C252.405 201.953 249.73 202.286 247.161 205.311C244.591 208.336 244.679 211.023 244.778 213.621C244.851 214.687 244.822 215.756 244.69 216.816H246.162C246.273 215.737 246.295 214.651 246.226 213.569C246.139 211.139 246.051 208.844 248.264 206.251C250.478 203.658 252.749 203.372 255.167 203.074C257.748 202.759 260.423 202.426 262.993 199.401C265.562 196.376 265.469 193.689 265.375 191.085C265.282 188.655 265.2 186.36 267.414 183.767C268.25 182.749 269.32 181.947 270.532 181.431C270.631 180.847 270.731 180.31 270.824 179.779C269.049 180.325 267.476 181.386 266.304 182.827Z" fill="white"/>
<path d="M224.974 216.162C227.561 215.841 230.23 215.508 232.806 212.483C235.381 209.457 235.282 206.771 235.188 204.172C235.095 201.743 235.013 199.448 237.221 196.855C239.428 194.262 241.712 193.976 244.124 193.678C246.705 193.357 249.38 193.03 251.949 190.004C254.519 186.979 254.431 184.287 254.332 181.688C254.244 179.259 254.157 176.964 256.37 174.371C258.583 171.778 260.861 171.492 263.273 171.194C265.685 170.896 268.097 170.61 270.479 168.192C270.018 167.848 269.454 167.671 268.879 167.69C267.559 168.768 265.95 169.432 264.254 169.599C263.845 169.692 263.432 169.762 263.016 169.81L261.264 170.014C258.905 170.367 256.765 171.592 255.266 173.448C252.685 176.479 252.784 179.165 252.884 181.764C252.971 184.194 253.059 186.489 250.845 189.088C248.632 191.686 246.36 191.961 243.942 192.259C241.361 192.58 238.686 192.907 236.117 195.932C233.547 198.957 233.641 201.649 233.734 204.248C233.828 206.678 233.909 208.973 231.702 211.566C229.494 214.159 227.211 214.445 224.799 214.743C223.103 214.853 221.443 215.281 219.905 216.004C220.669 216.271 221.449 216.49 222.241 216.658C223.139 216.425 224.052 216.259 224.974 216.162Z" fill="white"/>
<path d="M221.768 203.086C224.343 200.061 224.244 197.374 224.151 194.776C224.063 192.34 223.976 190.051 226.189 187.452C228.402 184.854 230.674 184.579 233.086 184.281C235.667 183.96 238.342 183.627 240.917 180.602C243.493 177.577 243.394 174.89 243.3 172.292C243.3 171.708 243.259 171.176 243.265 170.621H242.979L241.811 170.51C241.811 171.135 241.811 171.749 241.84 172.362C241.934 174.791 242.015 177.086 239.808 179.679C237.6 182.272 235.317 182.558 232.905 182.856C230.324 183.177 227.649 183.504 225.073 186.53C222.498 189.555 222.597 192.241 222.697 194.846C222.784 197.275 222.866 199.57 220.658 202.163C220.536 202.309 220.413 202.444 220.285 202.572C220.226 203.314 220.174 204.015 220.133 204.669C220.733 204.201 221.281 203.67 221.768 203.086Z" fill="white"/>
<path d="M242.979 170.604C237.933 170.207 235.93 169.191 232.157 167.1C227.246 164.408 226.195 166.201 226.545 168.893C226.896 171.585 221.774 189.333 220.705 198.268C219.636 207.203 219.999 212.009 219.999 212.009C219.999 212.009 216.845 214.702 218.947 215.595C220.3 216.156 221.713 216.558 223.158 216.792H263.839C263.839 216.792 271.069 179.644 271.77 173.67C272.471 167.696 269.317 167.1 267.559 167.993C265.802 168.887 265.457 169.488 262.998 169.786C257.252 170.528 249.893 171.141 242.979 170.604Z" stroke="#263238" stroke-miterlimit="10"/>
<path d="M219.099 167.55H215.846C215.256 167.549 214.683 167.748 214.22 168.114C213.757 168.479 213.431 168.99 213.294 169.564L209.253 186.5C208.505 189.642 205.948 198.694 203.133 200.277C201.404 201.246 199.456 201.755 197.474 201.754H185.28L190.466 254.764H212.658L218.498 170.359C218.517 170.164 218.517 169.969 218.498 169.775H219.158L219.099 167.55Z" fill="white" stroke="#263238" stroke-miterlimit="10"/>
<path d="M188.533 201.749H200.732C202.714 201.749 204.663 201.24 206.391 200.271C209.206 198.688 211.758 189.636 212.512 186.494L216.547 169.558C216.685 168.985 217.011 168.474 217.474 168.109C217.937 167.744 218.51 167.544 219.099 167.544C219.459 167.544 219.815 167.618 220.145 167.761C220.474 167.904 220.771 168.114 221.017 168.377C221.262 168.64 221.451 168.95 221.571 169.289C221.691 169.628 221.74 169.988 221.716 170.347L215.73 254.758H193.538L188.533 201.749Z" fill="white" stroke="#263238" stroke-miterlimit="10"/>
<path d="M240.631 254.788L241.899 216.816L191.026 216.366L192.299 254.788H240.631Z" fill="white" stroke="#263238" stroke-miterlimit="10"/>
<path d="M279.888 167.55H276.635C276.045 167.55 275.473 167.749 275.01 168.115C274.547 168.48 274.22 168.991 274.083 169.564L270.042 186.5C269.294 189.642 266.742 198.694 263.921 200.277C262.193 201.247 260.244 201.756 258.262 201.754H246.068L248.2 254.758H273.207L279.251 170.353C279.273 170.159 279.273 169.963 279.251 169.769H279.911L279.888 167.55Z" fill="white" stroke="#263238" stroke-miterlimit="10"/>
<path d="M249.321 201.749H261.521C263.503 201.749 265.451 201.24 267.18 200.271C269.995 198.688 272.553 189.636 273.3 186.494L277.342 169.558C277.478 168.985 277.803 168.475 278.265 168.11C278.727 167.744 279.299 167.545 279.888 167.544C280.248 167.543 280.604 167.616 280.934 167.759C281.264 167.902 281.562 168.112 281.807 168.375C282.053 168.638 282.241 168.949 282.361 169.288C282.481 169.628 282.53 169.988 282.504 170.347L276.571 253.456C276.544 253.806 276.387 254.133 276.131 254.372C275.874 254.611 275.537 254.745 275.187 254.747H251.313L249.321 201.749Z" fill="white" stroke="#263238" stroke-miterlimit="10"/>
<path d="M241.899 205.568L240.608 254.787H251.289L253.146 205.568C253.146 205.066 253.047 204.569 252.855 204.105C252.663 203.641 252.381 203.22 252.026 202.865C251.67 202.51 251.249 202.229 250.785 202.038C250.321 201.846 249.823 201.748 249.321 201.749H245.724C245.222 201.748 244.724 201.846 244.26 202.038C243.796 202.229 243.375 202.51 243.019 202.865C242.664 203.22 242.382 203.641 242.19 204.105C241.998 204.569 241.899 205.066 241.899 205.568Z" fill="white" stroke="#263238" stroke-miterlimit="10"/>
<path d="M179.837 205.568L181.671 254.787H192.352L191.079 205.568C191.079 204.555 190.677 203.583 189.96 202.867C189.244 202.151 188.273 201.749 187.26 201.749H183.662C183.16 201.748 182.663 201.846 182.199 202.038C181.735 202.229 181.313 202.51 180.958 202.865C180.602 203.22 180.321 203.641 180.128 204.105C179.936 204.569 179.837 205.066 179.837 205.568Z" fill="white" stroke="#263238" stroke-miterlimit="10"/>
<path d="M191.283 233.15H241.414" stroke="#263238" stroke-miterlimit="10"/>
<path d="M166.761 167.742C166.761 167.742 162.124 193.508 161.108 197.865C160.092 202.222 157.604 224.431 157.604 229.95C157.604 235.469 158.036 252.142 158.036 252.142C158.036 252.142 156.15 253.012 156.15 253.736C156.15 254.46 157.604 259.109 157.604 259.109L166.165 262.304C166.165 262.304 167.918 258.216 168.052 256.785C168.186 255.354 167.036 254.752 167.036 252.282C167.036 249.812 171.392 221.073 172.7 216.284C174.009 211.496 177.781 197.123 178.505 195.815C179.23 194.507 182.862 184.929 182.862 184.929L184.894 185.946C184.894 185.946 186.197 216.138 186.927 218.025C187.657 219.911 197.392 250.653 197.392 250.653C197.392 250.653 195.798 251.377 196.808 253.123C197.818 254.869 199.564 258.782 199.564 258.782C199.564 258.782 201.165 256.604 203.068 256.172C204.972 255.739 208.149 257.62 208.149 257.62C208.149 257.62 210.036 253.263 209.598 251.237C209.16 249.21 207.262 245.718 207.133 244.702C207.005 243.686 203.045 214.416 203.045 214.416C203.045 214.416 204.061 173.477 204.061 170.721C204.007 168.84 203.664 166.979 203.045 165.202C196.955 167.292 190.601 168.515 184.17 168.834C173.863 169.267 168.204 165.062 168.204 165.062L166.761 167.742Z" fill="#263238" stroke="#263238" stroke-miterlimit="10"/>
<path d="M157.627 259.127C157.627 259.127 152.833 263.478 151.963 264.062C151.092 264.646 144.995 266.982 145.141 268.15C145.287 269.318 146.893 270.036 146.893 270.036H166.639C166.639 270.036 166.779 269.452 167.071 266.695C167.21 264.908 166.912 263.114 166.201 261.469L157.627 259.127Z" fill="white" stroke="#263238" stroke-miterlimit="10"/>
<path d="M166.925 267.916L145.247 268.5C145.62 269.16 146.192 269.685 146.882 270.001H166.627C166.627 270.001 166.726 269.61 166.925 267.916Z" fill="white" stroke="#263238" stroke-miterlimit="10"/>
<path d="M199.576 258.782C199.576 258.782 199.43 262.409 199.43 264.301C199.43 266.193 199.144 268.389 199.284 268.798C199.424 269.206 199.722 269.966 199.722 269.966H211.192C211.192 269.966 211.624 268.798 211.046 266.625C210.468 264.453 209.446 263.291 209.159 261.369C208.938 260.083 208.597 258.82 208.143 257.597C208.143 257.597 202.478 253.123 199.576 258.782Z" fill="white" stroke="#263238" stroke-miterlimit="10"/>
<path d="M211.344 268.587C206.981 268.587 201.55 268.447 199.243 268.389C199.242 268.526 199.256 268.663 199.284 268.798C199.43 269.236 199.722 269.966 199.722 269.966H211.192C211.318 269.518 211.369 269.052 211.344 268.587Z" fill="white" stroke="#263238" stroke-miterlimit="10"/>
<path d="M162.644 113.086C162.644 113.086 150.31 124.667 150.847 125.747C151.384 126.827 154.76 135.593 154.76 135.593C154.76 135.593 155.729 141.433 155.192 145.118C154.864 147.449 154.754 149.805 154.865 152.156C155.999 153.584 157.384 154.794 158.953 155.724C161.336 157.026 163.175 159.298 164.694 155.619C166.212 151.939 165.558 145.334 165.558 145.334C165.558 145.334 167.608 153.347 167.952 154.76C168.297 156.173 166.785 167.748 166.785 167.748C166.785 167.748 174.225 174.032 186.88 172.607C199.535 171.182 203.547 166.767 203.547 166.767C203.547 166.767 202.245 152.588 202.245 150.964C202.233 149.842 202.161 148.721 202.029 147.606C202.029 147.606 206.467 152.156 208.634 151.939C210.801 151.723 214.585 142.847 213.61 141.427C212.634 140.008 209.282 134.273 207.226 130.162C205.987 127.684 204.956 125.108 204.143 122.459C204.143 122.459 200.569 110.335 199.471 109.471C198.373 108.607 186.214 108.741 184.048 108.204C181.187 107.64 178.295 107.25 175.387 107.036C174.663 107.024 165.027 109.296 162.644 113.086Z" fill="#92E3A9" stroke="#263238" stroke-miterlimit="10"/>
<path d="M199.027 129.292C198.969 126.185 198.957 123.767 198.957 123.767" stroke="#263238" stroke-miterlimit="10"/>
<path d="M202.064 147.606C201.238 145.922 200.516 144.188 199.903 142.414C199.471 141.124 199.243 136.516 199.121 132.2" stroke="#263238" stroke-miterlimit="10"/>
<path d="M159.391 134.787C158.287 132.86 157.446 131.353 157.341 131.05" stroke="#263238" stroke-miterlimit="10"/>
<path d="M165.57 145.334C165.57 145.334 162.802 140.662 160.477 136.668" stroke="#263238" stroke-miterlimit="10"/>
<path d="M179.638 108.536C180.084 112.347 180.121 116.194 179.749 120.012" stroke="#263238" stroke-miterlimit="10"/>
<path d="M186.921 161.955C188.223 162.218 189.619 162.457 191.108 162.65" stroke="#263238" stroke-miterlimit="10"/>
<path d="M171.194 154.97C171.194 154.97 174.698 158.813 184.042 161.277" stroke="#263238" stroke-miterlimit="10"/>
<path d="M180.719 163.193C184.731 164.994 189.094 165.882 193.491 165.792" stroke="#263238" stroke-miterlimit="10"/>
<path d="M154.853 95.5484C154.853 95.5484 156.15 101.61 156.261 102.913C156.372 104.215 156.693 105.944 158.316 108.537C159.94 111.13 164.156 116.87 165.027 117.197C165.897 117.524 169.249 116.654 169.249 116.654C169.249 116.654 172.817 123.691 173.792 123.475C174.768 123.259 177.256 115.247 177.583 112C177.789 110.384 177.824 108.752 177.688 107.129L176.175 101.721C176.175 101.721 174.879 94.1293 174.879 93.6037C174.879 93.0781 175.632 89.1653 171.416 87.5417C167.199 85.9182 161.996 85.7897 158.532 89.8135C155.069 93.8373 154.853 95.5484 154.853 95.5484Z" fill="white" stroke="#263238" stroke-miterlimit="10"/>
<path d="M166.44 88.733C164.922 91.0371 162.931 92.9919 160.6 94.4679C156.6 97.0667 158.544 94.2518 158.544 94.2518C158.544 94.2518 155.729 96.0038 153.458 97.1718C151.186 98.3398 152.05 98.6902 151.186 98.3398C150.322 97.9894 147.098 88.7739 154.334 84.3238C161.569 79.8737 166.849 81.0476 166.849 81.0476C166.849 81.0476 163.707 79.6401 166.522 79.6401C169.337 79.6401 170.528 81.1761 170.528 81.1761C170.528 81.1761 172.041 80.7439 172.689 81.6082C172.972 81.9169 173.327 82.1515 173.722 82.2915C177.226 83.7749 178.447 87.092 179.107 90.5551C179.539 92.8269 177.699 98.2405 177.699 98.2405L174.663 99.8641C173.927 99.1936 173.331 98.3837 172.911 97.4813C172.634 96.6063 172.489 95.6951 172.479 94.7774C172.479 94.7774 170.639 97.1543 170.312 95.4257C169.985 93.697 169.144 89.2586 169.144 89.2586C169.144 89.2586 169.471 91.0106 168.391 91.0106C167.31 91.0106 166.44 88.733 166.44 88.733Z" fill="#263238" stroke="#263238" stroke-miterlimit="10"/>
<path d="M174.441 100.635C174.441 100.635 174.336 96.9557 176.502 95.7643C178.669 94.5729 180.181 95.8753 179.527 99.3384C178.873 102.801 174.984 104.098 174.984 104.098" fill="white"/>
<path d="M174.441 100.635C174.441 100.635 174.336 96.9557 176.502 95.7643C178.669 94.5729 180.181 95.8753 179.527 99.3384C178.873 102.801 174.984 104.098 174.984 104.098" stroke="#263238" stroke-miterlimit="10"/>
<path d="M169.249 116.654L174.984 110.919L171.194 119.685L169.249 116.654Z" fill="#263238" stroke="#263238" stroke-miterlimit="10"/>
<path d="M166.598 110.855C166.719 111.067 166.756 111.317 166.701 111.556C166.646 111.794 166.502 112.003 166.3 112.14C165.908 112.297 165.412 111.976 165.19 111.421C164.968 110.867 165.103 110.288 165.488 110.131C165.873 109.973 166.37 110.3 166.598 110.855Z" fill="#263238"/>
<path d="M168.093 100.833C168.303 101.523 168.151 102.177 167.76 102.299C167.369 102.422 166.866 101.961 166.656 101.277C166.446 100.594 166.598 99.94 166.989 99.8173C167.38 99.6947 167.882 100.15 168.093 100.833Z" fill="#263238"/>
<path d="M160.985 102.037C161.196 102.726 161.044 103.38 160.647 103.502C160.25 103.625 159.759 103.17 159.549 102.48C159.339 101.791 159.485 101.143 159.882 101.02C160.279 100.898 160.769 101.353 160.985 102.037Z" fill="#263238"/>
<path d="M161.242 99.3384C161.723 99.731 162.108 100.227 162.37 100.789C162.632 101.351 162.763 101.965 162.755 102.585C162.755 104.752 162.428 107.999 162.428 107.999L166.329 107.456" stroke="#263238" stroke-miterlimit="10"/>
<path d="M163.835 97.9311C163.835 97.9311 165.786 94.468 168.817 95.1162" stroke="#263238" stroke-miterlimit="10"/>
<path d="M160.372 98.5792C160.372 98.5792 157.995 97.8259 156.372 98.7953" stroke="#263238" stroke-miterlimit="10"/>
<path d="M226.592 126.395C226.592 126.395 228.975 125.531 229.839 125.227C230.703 124.924 231.591 125.443 233.086 124.69C234.581 123.937 236.333 122.412 236.444 123.522C236.555 124.632 236.006 125.034 235.142 125.578C234.277 126.121 232.87 127.201 232.87 127.201L232.438 128.282L225.944 127.744C225.944 127.744 226.066 126.728 226.592 126.395Z" fill="white" stroke="#263238" stroke-miterlimit="10"/>
<path d="M239.644 129.193C239.644 129.193 242.629 126.827 243.061 125.747C243.493 124.667 242.734 124.579 241.98 124.988C241.227 125.397 238.856 127.37 238.856 127.37L239.644 129.193Z" fill="white" stroke="#263238" stroke-miterlimit="10"/>
<path d="M237.203 129.706C237.203 129.706 239.422 129.94 239.644 129.193C239.866 128.445 241.618 123.738 241.332 123.148C241.046 122.558 240.491 122.611 239.878 123.586C239.222 124.923 238.656 126.302 238.184 127.715C238.184 127.715 236.701 128.048 236.327 129.064C235.953 130.08 237.203 129.706 237.203 129.706Z" fill="white" stroke="#263238" stroke-miterlimit="10"/>
<path d="M234.4 130.291C234.4 130.291 236.462 131.161 236.894 130.507C237.326 129.853 240.357 125.835 240.246 125.204C240.135 124.573 239.598 124.451 238.733 125.204C237.717 126.293 236.777 127.45 235.918 128.667C235.918 128.667 234.4 128.562 233.752 129.426C233.104 130.291 234.4 130.291 234.4 130.291Z" fill="white" stroke="#263238" stroke-miterlimit="10"/>
<path d="M204.207 148.044C205.062 144.581 207.238 141.59 210.269 139.71C215.461 136.352 222.504 130.29 222.504 130.29C222.504 130.29 224.887 126.938 226.592 126.395C228.297 125.852 233.95 127.475 233.95 127.475C233.95 127.475 238.5 122.932 238.622 123.907C238.745 124.883 236.461 128.346 235.375 129.642C234.289 130.939 230.937 131.266 230.183 131.266C228.843 131.306 227.506 131.415 226.177 131.593C225.745 131.698 218.585 141.439 215.356 146.193C212.126 150.946 210.684 151.817 208.646 151.928C206.607 152.039 204.423 150.409 203.88 149.656C203.337 148.902 204.207 148.044 204.207 148.044Z" fill="white" stroke="#263238" stroke-miterlimit="10"/>
<path d="M136.522 130.127L143.343 144.925C143.448 145.136 143.618 145.307 143.829 145.413C144.04 145.518 144.279 145.552 144.511 145.509L150.17 144.464C150.327 144.434 150.475 144.369 150.604 144.274C150.733 144.179 150.839 144.057 150.915 143.916C150.991 143.776 151.035 143.62 151.044 143.46C151.052 143.3 151.025 143.14 150.964 142.992L144.832 128.55C144.743 128.337 144.588 128.158 144.389 128.041C144.189 127.924 143.958 127.875 143.728 127.902L137.368 128.608C137.2 128.629 137.039 128.688 136.898 128.783C136.757 128.877 136.641 129.004 136.558 129.152C136.476 129.3 136.429 129.466 136.423 129.635C136.417 129.804 136.45 129.973 136.522 130.127Z" fill="#263238" stroke="#263238" stroke-miterlimit="10"/>
<path d="M141.001 142.794C141.001 142.794 138.554 139.045 138.554 138.204C138.554 137.363 139.979 135.371 140.814 133.573C141.649 131.774 141.778 130.571 142.496 130.816C143.214 131.061 143.08 131.774 142.852 132.971C142.413 134.515 141.895 136.036 141.299 137.526L141.538 138.969C142.117 137.802 142.841 136.713 143.693 135.728C144.774 134.653 145.971 132.854 146.812 133.211C147.653 133.567 148.009 133.795 147.291 134.653C146.389 135.733 145.58 136.888 144.873 138.104C144.239 139.143 143.694 140.233 143.243 141.363C144.046 140.595 144.898 139.881 145.796 139.226C146.964 138.385 148.61 137.17 149.3 137.649C149.989 138.128 150.141 138.607 149.422 139.208C148.704 139.81 148.05 140.219 147.086 141.059C146.081 142.063 145.137 143.126 144.26 144.242C145.116 143.581 146.069 143.057 147.086 142.689C149.124 141.854 150.987 141.947 151.063 142.59C151.139 143.232 148.92 143.816 148.92 143.816C147.331 144.178 147.256 144.721 147.256 144.721C147.256 144.721 148.575 147.361 148.336 148.225C148.336 148.225 153.662 147.39 155.7 146.794C157.738 146.199 160.921 147.378 161.885 148.342C163.923 150.38 164.881 153.499 163.806 156.138C162.732 158.778 162.726 157.937 154.211 155.554C145.696 153.172 145.86 152.319 143.781 148.838C143.027 147.483 141.001 142.794 141.001 142.794Z" fill="white" stroke="#263238" stroke-miterlimit="10"/>
<path d="M148.371 148.202L148.19 150.397" stroke="#263238" stroke-miterlimit="10"/>
</svg>
