<svg width="190" height="135" viewBox="0 0 190 135" fill="none" xmlns="http://www.w3.org/2000/svg">
<path d="M171.24 0.515008C170.65 0.44725 170.058 0.614755 169.591 0.981197C169.123 1.34764 168.82 1.88346 168.745 2.47243L157.421 89.9664L164.795 90.7961L173.238 2.98078C173.294 2.39002 173.116 1.80089 172.743 1.33988C172.369 0.878868 171.83 0.582723 171.24 0.515008Z" fill="#263238" stroke="#263238" stroke-linecap="round" stroke-linejoin="round"/>
<path d="M57.3707 0.515008C57.9605 0.44725 58.5532 0.614755 59.0203 0.981197C59.4874 1.34764 59.7912 1.88346 59.8657 2.47243L71.2012 89.9664L63.8273 90.7961L55.3724 2.98078C55.3165 2.39002 55.4945 1.80089 55.8681 1.33988C56.2417 0.878868 56.7812 0.582723 57.3707 0.515008Z" fill="#263238" stroke="#263238" stroke-linecap="round" stroke-linejoin="round"/>
<path d="M184.264 88.2019H68.9984C67.5172 88.2019 66.3164 89.4026 66.3164 90.8838V131.084C66.3164 132.565 67.5172 133.766 68.9984 133.766H184.264C185.746 133.766 186.946 132.565 186.946 131.084V90.8838C186.946 89.4026 185.746 88.2019 184.264 88.2019Z" fill="white" stroke="#263238" stroke-linecap="round" stroke-linejoin="round"/>
<path d="M187.063 93.823H66.1995C64.8539 93.823 63.763 94.9139 63.763 96.2596V125.72C63.763 127.066 64.8539 128.157 66.1995 128.157H187.063C188.409 128.157 189.5 127.066 189.5 125.72V96.2596C189.5 94.9139 188.409 93.823 187.063 93.823Z" fill="white" stroke="#263238" stroke-linecap="round" stroke-linejoin="round"/>
<path d="M121.002 88.2019H5.73568C4.25447 88.2019 3.05372 89.4026 3.05372 90.8838V131.084C3.05372 132.565 4.25447 133.766 5.73568 133.766H121.002C122.483 133.766 123.684 132.565 123.684 131.084V90.8838C123.684 89.4026 122.483 88.2019 121.002 88.2019Z" fill="white" stroke="#263238" stroke-linecap="round" stroke-linejoin="round"/>
<path d="M123.8 93.823H2.93681C1.59114 93.823 0.500262 94.9139 0.500262 96.2596V125.72C0.500262 127.066 1.59114 128.157 2.93681 128.157H123.8C125.146 128.157 126.237 127.066 126.237 125.72V96.2596C126.237 94.9139 125.146 93.823 123.8 93.823Z" fill="white" stroke="#263238" stroke-linecap="round" stroke-linejoin="round"/>
<path d="M113.815 101.348H14.0036C12.3869 101.348 11.0762 102.659 11.0762 104.276V116.873C11.0762 118.49 12.3869 119.801 14.0036 119.801H113.815C115.431 119.801 116.742 118.49 116.742 116.873V104.276C116.742 102.659 115.431 101.348 113.815 101.348Z" fill="#263238" stroke="#263238" stroke-linecap="round" stroke-linejoin="round"/>
<path d="M16.9485 105.819C15.8945 106.24 15.0195 107.015 14.473 108.01C13.9264 109.005 13.7422 110.159 13.9517 111.275C14.1612 112.391 14.7515 113.399 15.6218 114.128C16.4921 114.857 17.5885 115.261 18.7237 115.272C19.859 115.283 20.9627 114.899 21.8466 114.187C22.7304 113.474 23.3396 112.477 23.5701 111.365C23.8005 110.254 23.638 109.096 23.1103 108.091C22.5826 107.086 21.7223 106.295 20.6764 105.854" stroke="#92E3A9" stroke-width="3" stroke-miterlimit="10" stroke-linecap="round"/>
<path d="M18.8182 103.92V107.548" stroke="#92E3A9" stroke-width="3" stroke-miterlimit="10" stroke-linecap="round"/>
</svg>
