<svg width="45" height="45" viewBox="0 0 45 45" fill="none" xmlns="http://www.w3.org/2000/svg">
<g clip-path="url(#clip0_162_580)">
<path d="M36.33 23.28L16.4569 36.5287C16.3157 36.6227 16.1517 36.6766 15.9823 36.6847C15.8129 36.6928 15.6445 36.6548 15.495 36.5747C15.3455 36.4947 15.2205 36.3756 15.1333 36.2301C15.0462 36.0847 15.0001 35.9183 15 35.7487V9.25123C15.0001 9.08165 15.0462 8.91527 15.1333 8.76981C15.2205 8.62435 15.3455 8.50525 15.495 8.42521C15.6445 8.34517 15.8129 8.30718 15.9823 8.31528C16.1517 8.32338 16.3157 8.37728 16.4569 8.47123L36.33 21.72C36.4584 21.8056 36.5637 21.9216 36.6365 22.0576C36.7093 22.1937 36.7474 22.3457 36.7474 22.5C36.7474 22.6543 36.7093 22.8062 36.6365 22.9423C36.5637 23.0784 36.4584 23.1944 36.33 23.28Z" fill="#348085"/>
</g>
<defs>
<clipPath id="clip0_162_580">
<rect width="45" height="45" fill="white"/>
</clipPath>
</defs>
</svg>
