<svg width="18" height="99" viewBox="0 0 18 99" fill="none" xmlns="http://www.w3.org/2000/svg">
<path d="M8.97043 75.7638C6.7235 75.7669 4.56966 76.6617 2.98194 78.2516C1.39421 79.8415 0.502424 81.9966 0.502426 84.2435C0.502426 88.9382 8.98217 98.4977 8.98217 98.4977C8.98217 98.4977 17.456 88.9265 17.456 84.2435C17.4568 83.1292 17.2378 82.0258 16.8116 80.9962C16.3853 79.9667 15.7602 79.0313 14.972 78.2436C14.1838 77.456 13.248 76.8315 12.2182 76.406C11.1884 75.9805 10.0847 75.7622 8.97043 75.7638ZM8.97043 88.0873C8.20739 88.0885 7.46116 87.8632 6.82623 87.44C6.19129 87.0168 5.69622 86.4147 5.40368 85.7099C5.11114 85.0052 5.0343 84.2295 5.18287 83.4811C5.33145 82.7326 5.69877 82.0451 6.23833 81.5056C6.77788 80.966 7.4654 80.5987 8.21384 80.4501C8.96228 80.3015 9.73798 80.3784 10.4427 80.6709C11.1475 80.9634 11.7495 81.4585 12.1727 82.0935C12.5959 82.7284 12.8212 83.4746 12.8201 84.2377C12.8201 85.2592 12.4147 86.239 11.6929 86.9618C10.9711 87.6847 9.99195 88.0916 8.97043 88.0932V88.0873Z" fill="#263238" stroke="#263238" stroke-linecap="round" stroke-linejoin="round"/>
<path d="M8.97044 75.7638V74.2967" stroke="#263238" stroke-linecap="round" stroke-linejoin="round"/>
<path d="M8.97044 71.4035V3.41296" stroke="#263238" stroke-linecap="round" stroke-linejoin="round" stroke-dasharray="4.93 4.93"/>
<path d="M8.97044 1.96951V0.502426" stroke="#263238" stroke-linecap="round" stroke-linejoin="round"/>
</svg>
