<svg width="300" height="150" viewBox="0 0 300 150" fill="none" xmlns="http://www.w3.org/2000/svg">
<path d="M12.7843 63.4726L11.6449 63.915L38.6422 133.446L39.7816 133.004L12.7843 63.4726Z" fill="#D4E3ED"/>
<path d="M21.2705 150C21.2325 147.474 21.6973 144.965 22.6379 142.62C23.5784 140.275 24.9759 138.14 26.7491 136.34C28.5223 134.54 30.6357 133.111 32.9665 132.135C35.2972 131.159 37.7987 130.657 40.3254 130.657C42.8521 130.657 45.3536 131.159 47.6843 132.135C50.015 133.111 52.1285 134.54 53.9016 136.34C55.6748 138.14 57.0723 140.275 58.0129 142.62C58.9534 144.965 59.4183 147.474 59.3803 150" fill="#EFF5F9"/>
<path d="M73.426 15.6258L0 67.2305L0.702803 68.2305L74.1288 16.6258L73.426 15.6258Z" fill="#D4E3ED"/>
<path d="M10.8679 67.3335C15.037 67.3335 18.4167 63.9537 18.4167 59.7846C18.4167 55.6155 15.037 52.2358 10.8679 52.2358C6.69881 52.2358 3.31909 55.6155 3.31909 59.7846C3.31909 63.9537 6.69881 67.3335 10.8679 67.3335Z" fill="#EFF5F9"/>
<path d="M71.7924 21.5715C77.4352 21.5715 82.0096 16.9971 82.0096 11.3543C82.0096 5.71157 77.4352 1.13721 71.7924 1.13721C66.1497 1.13721 61.5753 5.71157 61.5753 11.3543C61.5753 16.9971 66.1497 21.5715 71.7924 21.5715Z" fill="#EFF5F9"/>
<path d="M82.0094 11.3543C82.0105 9.7527 81.6347 8.17332 80.9125 6.74383C80.1903 5.31433 79.1418 4.07482 77.8519 3.12549C74.0216 4.84699 70.3763 9.34442 68.4999 15.2277C67.9401 16.966 67.5692 18.7595 67.3938 20.5772C68.952 21.324 70.6741 21.6634 72.3991 21.5637C74.1241 21.464 75.7956 20.9284 77.2574 20.0071C78.7192 19.0857 79.9234 17.8087 80.7574 16.2955C81.5915 14.7822 82.0282 13.0822 82.0266 11.3543H82.0094Z" fill="#B9D1E1"/>
<path d="M89.4421 53.0276L74.6371 41.033C72.5278 39.3255 70.7756 37.219 69.4806 34.8341C68.1856 32.4492 67.3732 29.8325 67.0899 27.1335C66.8065 24.4345 67.0577 21.7061 67.8291 19.1043C68.6005 16.5024 69.8771 14.078 71.5858 11.9696L75.0761 7.66588C76.7826 5.55622 78.8881 3.80344 81.2722 2.50765C83.6563 1.21187 86.2723 0.398468 88.9708 0.113909C91.6693 -0.17065 94.3975 0.079208 96.9994 0.849219C99.6013 1.61923 102.026 2.8943 104.135 4.6016L118.94 16.5962L89.4421 53.0276Z" fill="#EFF5F9"/>
<path d="M118.919 16.6523C116.366 14.5822 109.928 18.1156 103.266 24.8295C104.769 24.8807 106.228 25.3525 107.477 26.1913C108.726 27.0301 109.714 28.2022 110.33 29.5746C110.946 30.947 111.165 32.4647 110.962 33.9552C110.759 35.4457 110.141 36.8494 109.181 38.0068C108.22 39.1642 106.953 40.0289 105.526 40.5028C104.098 40.9767 102.566 41.0407 101.104 40.6875C99.6414 40.3344 98.3074 39.5783 97.2533 38.5051C96.1992 37.4319 95.4671 36.0846 95.1403 34.6162C89.2785 43.0904 86.7393 50.863 89.4421 53.0536C92.6096 55.6358 101.777 49.5546 109.915 39.5053C118.053 29.456 122.086 19.2088 118.919 16.6523Z" fill="#D4E3ED"/>
<path d="M109.235 37.9001C110.175 36.738 110.772 35.337 110.96 33.8544C111.148 32.3718 110.92 30.8661 110.3 29.5063C109.68 28.1464 108.694 26.986 107.451 26.1554C106.209 25.3248 104.759 24.8567 103.266 24.8037C101.568 26.516 99.9579 28.313 98.4414 30.1877C97.2492 31.6596 96.1475 33.1358 95.1404 34.5905C95.4693 36.0659 96.2076 37.4187 97.2705 38.4936C98.3334 39.5685 99.6778 40.322 101.149 40.6676C102.621 41.0131 104.16 40.9367 105.591 40.4472C107.021 39.9577 108.284 39.0749 109.235 37.9001Z" fill="#B9D1E1"/>
<path d="M268.556 3.14697H263.267V7.80796H268.556V3.14697Z" fill="#B9D1E1"/>
<path d="M271.72 1.56299H260.104V3.89562H271.72V1.56299Z" fill="#E5EEF4"/>
<path d="M265.909 75.4758C284.715 75.4758 299.961 60.2305 299.961 41.4244C299.961 22.6184 284.715 7.37305 265.909 7.37305C247.103 7.37305 231.858 22.6184 231.858 41.4244C231.858 60.2305 247.103 75.4758 265.909 75.4758Z" fill="#E5EEF4"/>
<path d="M265.909 70.6904C282.072 70.6904 295.175 57.5877 295.175 41.4248C295.175 25.2618 282.072 12.1592 265.909 12.1592C249.746 12.1592 236.644 25.2618 236.644 41.4248C236.644 57.5877 249.746 70.6904 265.909 70.6904Z" fill="white"/>
<path d="M290.166 31.1345L287.988 32.4058L288.15 32.6845L290.329 31.4133L290.166 31.1345Z" fill="#D4E3ED"/>
<path d="M276.218 17.1054L275.162 19.3955L275.455 19.5307L276.511 17.2405L276.218 17.1054Z" fill="#D4E3ED"/>
<path d="M284.396 22.7147L282.613 24.498L282.841 24.7263L284.624 22.943L284.396 22.7147Z" fill="#D4E3ED"/>
<path d="M241.507 31.1179L241.344 31.3965L243.522 32.6697L243.684 32.391L241.507 31.1179Z" fill="#D4E3ED"/>
<path d="M255.432 17.1319L255.138 17.2671L256.195 19.5571L256.488 19.4218L255.432 17.1319Z" fill="#D4E3ED"/>
<path d="M247.268 22.6971L247.04 22.9253L248.823 24.7086L249.051 24.4804L247.268 22.6971Z" fill="#D4E3ED"/>
<path d="M243.514 49.5895L241.336 50.8608L241.499 51.1396L243.677 49.8683L243.514 49.5895Z" fill="#D4E3ED"/>
<path d="M256.185 62.6654L255.129 64.9556L255.422 65.0908L256.478 62.8006L256.185 62.6654Z" fill="#D4E3ED"/>
<path d="M248.827 57.5126L247.044 59.2959L247.272 59.5241L249.055 57.7408L248.827 57.5126Z" fill="#D4E3ED"/>
<path d="M288.142 49.5514L287.979 49.8301L290.156 51.1033L290.319 50.8246L288.142 49.5514Z" fill="#D4E3ED"/>
<path d="M275.475 62.6543L275.182 62.7896L276.239 65.0794L276.532 64.9441L275.475 62.6543Z" fill="#D4E3ED"/>
<path d="M282.841 57.5291L282.612 57.7573L284.396 59.5406L284.624 59.3124L282.841 57.5291Z" fill="#D4E3ED"/>
<path d="M241.86 41.1016H239.338V41.7471H241.86V41.1016Z" fill="#D4E3ED"/>
<path d="M292.214 41.1016H289.692V41.7471H292.214V41.1016Z" fill="#D4E3ED"/>
<path d="M266.232 65.5039H265.586V68.0259H266.232V65.5039Z" fill="#D4E3ED"/>
<path d="M266.232 14.8232H265.586V17.3452H266.232V14.8232Z" fill="#D4E3ED"/>
<path d="M265.995 21.0034H265.832V41.4248H265.995V21.0034Z" fill="#B9D1E1"/>
<path d="M266.06 42.2254C266.155 42.3119 266.268 42.3781 266.39 42.4197C266.512 42.4614 266.641 42.4777 266.769 42.4676C266.898 42.4575 267.023 42.4213 267.137 42.3612C267.251 42.301 267.352 42.2182 267.433 42.1178L280.275 26.4951L266.017 40.8396C265.925 40.9317 265.854 41.0415 265.806 41.1622C265.759 41.2829 265.736 41.4121 265.74 41.5417C265.744 41.6714 265.775 41.7989 265.83 41.9164C265.885 42.0339 265.963 42.1391 266.06 42.2254Z" fill="#B9D1E1"/>
<path d="M221.976 23.8309C221.666 23.8309 221.368 23.7076 221.149 23.488C220.929 23.2685 220.806 22.9707 220.806 22.6603C220.804 20.8522 220.084 19.1189 218.805 17.8408C217.526 16.5627 215.792 15.8442 213.984 15.8431C213.686 15.825 213.405 15.6936 213.2 15.4756C212.995 15.2577 212.88 14.9696 212.88 14.6703C212.88 14.371 212.995 14.083 213.2 13.865C213.405 13.6471 213.686 13.5157 213.984 13.4976C215.189 13.4981 216.382 13.736 217.495 14.1977C218.608 14.6594 219.618 15.3358 220.47 16.1883C221.321 17.0408 221.996 18.0527 222.456 19.1661C222.916 20.2796 223.152 21.4727 223.151 22.6775C223.147 22.9857 223.021 23.2797 222.801 23.4956C222.581 23.7116 222.285 23.8321 221.976 23.8309Z" fill="#2C696D"/>
<path d="M201.039 23.8306C200.885 23.8312 200.732 23.8013 200.589 23.7427C200.447 23.6842 200.317 23.598 200.208 23.4893C200.099 23.3805 200.012 23.2513 199.953 23.1089C199.894 22.9666 199.864 22.8141 199.864 22.66C199.863 20.853 199.145 19.1204 197.867 17.8423C196.59 16.5642 194.858 15.8451 193.051 15.8428C192.891 15.8525 192.731 15.8294 192.58 15.7748C192.429 15.7203 192.291 15.6355 192.174 15.5256C192.058 15.4157 191.965 15.2832 191.901 15.136C191.838 14.9889 191.805 14.8303 191.805 14.67C191.805 14.5098 191.838 14.3512 191.901 14.204C191.965 14.0569 192.058 13.9243 192.174 13.8145C192.291 13.7046 192.429 13.6198 192.58 13.5653C192.731 13.5107 192.891 13.4876 193.051 13.4973C195.482 13.5007 197.813 14.4696 199.531 16.1911C201.248 17.9125 202.212 20.2456 202.209 22.6772C202.205 22.9847 202.079 23.278 201.86 23.4938C201.641 23.7097 201.346 23.8306 201.039 23.8306Z" fill="#2C696D"/>
<path d="M180.097 23.8309C179.786 23.8309 179.488 23.7076 179.269 23.488C179.049 23.2685 178.926 22.9707 178.926 22.6603C178.924 20.8529 178.205 19.1203 176.927 17.8423C175.649 16.5643 173.916 15.8454 172.109 15.8431C171.81 15.825 171.529 15.6936 171.324 15.4756C171.119 15.2577 171.005 14.9696 171.005 14.6703C171.005 14.371 171.119 14.083 171.324 13.865C171.529 13.6471 171.81 13.5157 172.109 13.4976C173.314 13.4981 174.506 13.736 175.619 14.1977C176.732 14.6594 177.743 15.3358 178.594 16.1883C179.445 17.0408 180.12 18.0527 180.581 19.1661C181.041 20.2796 181.277 21.4727 181.276 22.6775C181.271 22.9865 181.145 23.2811 180.924 23.4972C180.703 23.7132 180.406 23.8332 180.097 23.8309Z" fill="#2C696D"/>
<path d="M159.159 23.8306C159.005 23.8312 158.852 23.8013 158.709 23.7427C158.567 23.6842 158.437 23.598 158.328 23.4893C158.219 23.3805 158.132 23.2513 158.073 23.1089C158.014 22.9666 157.984 22.8141 157.984 22.66C157.983 20.853 157.265 19.1204 155.987 17.8423C154.71 16.5642 152.978 15.8451 151.171 15.8428C151.011 15.8525 150.851 15.8294 150.7 15.7748C150.549 15.7203 150.411 15.6355 150.295 15.5256C150.178 15.4157 150.085 15.2832 150.021 15.136C149.958 14.9889 149.925 14.8303 149.925 14.67C149.925 14.5098 149.958 14.3512 150.021 14.204C150.085 14.0569 150.178 13.9243 150.295 13.8145C150.411 13.7046 150.549 13.6198 150.7 13.5653C150.851 13.5107 151.011 13.4876 151.171 13.4973C153.603 13.5007 155.933 14.4696 157.651 16.1911C159.368 17.9125 160.332 20.2456 160.329 22.6772C160.325 22.9847 160.2 23.278 159.98 23.4938C159.761 23.7097 159.466 23.8306 159.159 23.8306Z" fill="#2C696D"/>
<path d="M138.238 23.8309C137.928 23.8309 137.63 23.7076 137.41 23.488C137.191 23.2685 137.067 22.9707 137.067 22.6603C137.065 20.8529 136.346 19.1203 135.068 17.8423C133.79 16.5643 132.058 15.8454 130.25 15.8431C129.951 15.825 129.671 15.6936 129.466 15.4756C129.261 15.2577 129.146 14.9696 129.146 14.6703C129.146 14.371 129.261 14.083 129.466 13.865C129.671 13.6471 129.951 13.5157 130.25 13.4976C132.679 13.5055 135.005 14.4765 136.719 16.1974C138.433 17.9184 139.394 20.2488 139.391 22.6775C139.387 22.982 139.264 23.2728 139.049 23.4881C138.833 23.7035 138.543 23.8264 138.238 23.8309Z" fill="#2C696D"/>
<path d="M203.147 150H83.2102L112.381 22.4233H232.314L203.147 150Z" fill="#2C696D"/>
<path d="M123.932 124.737L120.055 141.633H140.993L144.87 124.737H123.932Z" fill="#327D83"/>
<path d="M97.9679 124.737L94.0945 141.633H116.706L120.584 124.737H97.9679Z" fill="#327D83"/>
<path d="M124.832 106.209H102.22L98.7166 121.474H121.333L124.832 106.209Z" fill="#327D83"/>
<path d="M148.967 121.474H169.905L173.408 106.209H152.471L148.967 121.474Z" fill="#327D83"/>
<path d="M128.18 106.209L124.681 121.474H145.619L149.122 106.209H128.18Z" fill="#327D83"/>
<path d="M129.084 87.6816H106.472L102.969 102.947H125.581L129.084 87.6816Z" fill="#327D83"/>
<path d="M153.37 87.6816H132.432L128.929 102.947H149.871L153.37 87.6816Z" fill="#327D83"/>
<path d="M154.119 84.4194L157.997 67.5186H137.054L133.181 84.4194H154.119Z" fill="#327D83"/>
<path d="M173.253 121.474H195.87L199.369 106.209H176.757L173.253 121.474Z" fill="#327D83"/>
<path d="M204.37 84.4194L208.243 67.5186H185.631L181.758 84.4194H204.37Z" fill="#327D83"/>
<path d="M178.409 84.4194L182.283 67.5186H161.345L157.467 84.4194H178.409Z" fill="#327D83"/>
<path d="M181.009 87.6816L177.505 102.947H200.117L203.621 87.6816H181.009Z" fill="#327D83"/>
<path d="M168.631 141.633H191.243L195.121 124.737H172.505L168.631 141.633Z" fill="#327D83"/>
<path d="M148.219 124.737L144.341 141.633H165.283L169.156 124.737H148.219Z" fill="#327D83"/>
<path d="M133.71 67.5186H111.094L107.221 84.4194H129.833L133.71 67.5186Z" fill="#327D83"/>
<path d="M160.398 96.4653C164.177 97.2615 168.145 100.597 174.747 100.377L177.66 87.6641H156.718L154.747 96.2716C156.629 96.0429 158.536 96.1082 160.398 96.4653Z" fill="#00BF99"/>
<path d="M174.157 102.947L174.747 100.365C168.132 100.584 164.177 97.249 160.398 96.4528C158.536 96.0987 156.629 96.0362 154.747 96.2678L153.22 102.934L174.157 102.947Z" fill="#00B084"/>
<path d="M232.314 22.4233L203.147 150H262.273L232.314 22.4233Z" fill="#2C696D"/>
<path d="M232.314 138.5L203.147 150H262.273L232.314 138.5Z" fill="#27195F"/>
<path d="M213.984 31.8184C211.589 31.7665 209.31 30.7785 207.634 29.0662C205.959 27.354 205.02 25.0535 205.02 22.6578C205.02 20.2621 205.959 17.9617 207.634 16.2494C209.31 14.5371 211.589 13.5492 213.984 13.4973C214.144 13.4876 214.305 13.5107 214.455 13.5653C214.606 13.6198 214.744 13.7046 214.861 13.8145C214.977 13.9243 215.07 14.0569 215.134 14.204C215.198 14.3512 215.23 14.5098 215.23 14.67C215.23 14.8303 215.198 14.9889 215.134 15.136C215.07 15.2832 214.977 15.4157 214.861 15.5256C214.744 15.6355 214.606 15.7203 214.455 15.7748C214.305 15.8294 214.144 15.8525 213.984 15.8428C212.207 15.8875 210.517 16.6251 209.275 17.8983C208.033 19.1715 207.339 20.8795 207.339 22.6578C207.339 24.4362 208.033 26.1442 209.275 27.4173C210.517 28.6905 212.207 29.4281 213.984 29.4728C214.144 29.4631 214.305 29.4863 214.455 29.5408C214.606 29.5954 214.744 29.6802 214.861 29.79C214.977 29.8999 215.07 30.0325 215.134 30.1796C215.198 30.3268 215.23 30.4853 215.23 30.6456C215.23 30.8059 215.198 30.9645 215.134 31.1116C215.07 31.2587 214.977 31.3913 214.861 31.5012C214.744 31.611 214.606 31.6958 214.455 31.7504C214.305 31.805 214.144 31.8281 213.984 31.8184Z" fill="#2C696D"/>
<path d="M193.051 31.8184C191.831 31.8448 190.618 31.6274 189.484 31.1789C188.349 30.7305 187.316 30.0599 186.444 29.2067C185.572 28.3534 184.879 27.3346 184.406 26.2101C183.933 25.0855 183.69 23.8778 183.69 22.6578C183.69 21.4378 183.933 20.2302 184.406 19.1056C184.879 17.981 185.572 16.9622 186.444 16.109C187.316 15.2557 188.349 14.5852 189.484 14.1367C190.618 13.6882 191.831 13.4708 193.051 13.4973C193.35 13.5154 193.63 13.6468 193.835 13.8648C194.04 14.0827 194.155 14.3707 194.155 14.67C194.155 14.9693 194.04 15.2574 193.835 15.4753C193.63 15.6933 193.35 15.8247 193.051 15.8428C192.141 15.82 191.237 15.9793 190.39 16.3115C189.543 16.6438 188.771 17.1421 188.12 17.7772C187.469 18.4123 186.951 19.1713 186.598 20.0095C186.244 20.8477 186.062 21.7482 186.062 22.6578C186.062 23.5675 186.244 24.4679 186.598 25.3062C186.951 26.1444 187.469 26.9034 188.12 27.5385C188.771 28.1736 189.543 28.6719 190.39 29.0041C191.237 29.3363 192.141 29.4957 193.051 29.4728C193.35 29.4909 193.63 29.6224 193.835 29.8403C194.04 30.0583 194.155 30.3463 194.155 30.6456C194.155 30.9449 194.04 31.2329 193.835 31.4509C193.63 31.6688 193.35 31.8003 193.051 31.8184Z" fill="#2C696D"/>
<path d="M172.109 31.8184C169.713 31.7665 167.434 30.7785 165.758 29.0662C164.083 27.354 163.144 25.0535 163.144 22.6578C163.144 20.2621 164.083 17.9617 165.758 16.2494C167.434 14.5371 169.713 13.5492 172.109 13.4973C172.269 13.4876 172.429 13.5107 172.58 13.5653C172.73 13.6198 172.868 13.7046 172.985 13.8145C173.102 13.9243 173.195 14.0569 173.258 14.204C173.322 14.3512 173.355 14.5098 173.355 14.67C173.355 14.8303 173.322 14.9889 173.258 15.136C173.195 15.2832 173.102 15.4157 172.985 15.5256C172.868 15.6355 172.73 15.7203 172.58 15.7748C172.429 15.8294 172.269 15.8525 172.109 15.8428C170.331 15.8875 168.641 16.6251 167.399 17.8983C166.158 19.1715 165.463 20.8795 165.463 22.6578C165.463 24.4362 166.158 26.1442 167.399 27.4173C168.641 28.6905 170.331 29.4281 172.109 29.4728C172.269 29.4631 172.429 29.4863 172.58 29.5408C172.73 29.5954 172.868 29.6802 172.985 29.79C173.102 29.8999 173.195 30.0325 173.258 30.1796C173.322 30.3268 173.355 30.4853 173.355 30.6456C173.355 30.8059 173.322 30.9645 173.258 31.1116C173.195 31.2587 173.102 31.3913 172.985 31.5012C172.868 31.611 172.73 31.6958 172.58 31.7504C172.429 31.805 172.269 31.8281 172.109 31.8184Z" fill="#2C696D"/>
<path d="M151.171 31.8184C149.951 31.8448 148.739 31.6274 147.604 31.1789C146.469 30.7305 145.436 30.0599 144.564 29.2067C143.692 28.3534 142.999 27.3346 142.526 26.2101C142.053 25.0855 141.81 23.8778 141.81 22.6578C141.81 21.4378 142.053 20.2302 142.526 19.1056C142.999 17.981 143.692 16.9622 144.564 16.109C145.436 15.2557 146.469 14.5852 147.604 14.1367C148.739 13.6882 149.951 13.4708 151.171 13.4973C151.47 13.5154 151.75 13.6468 151.955 13.8648C152.161 14.0827 152.275 14.3707 152.275 14.67C152.275 14.9693 152.161 15.2574 151.955 15.4753C151.75 15.6933 151.47 15.8247 151.171 15.8428C150.262 15.82 149.357 15.9793 148.51 16.3115C147.663 16.6438 146.891 17.1421 146.24 17.7772C145.589 18.4123 145.071 19.1713 144.718 20.0095C144.365 20.8477 144.183 21.7482 144.183 22.6578C144.183 23.5675 144.365 24.4679 144.718 25.3062C145.071 26.1444 145.589 26.9034 146.24 27.5385C146.891 28.1736 147.663 28.6719 148.51 29.0041C149.357 29.3363 150.262 29.4957 151.171 29.4728C151.47 29.4909 151.75 29.6224 151.955 29.8403C152.161 30.0583 152.275 30.3463 152.275 30.6456C152.275 30.9449 152.161 31.2329 151.955 31.4509C151.75 31.6688 151.47 31.8003 151.171 31.8184Z" fill="#2C696D"/>
<path d="M130.229 31.8184C127.834 31.7665 125.554 30.7785 123.878 29.0662C122.203 27.354 121.265 25.0535 121.265 22.6578C121.265 20.2621 122.203 17.9617 123.878 16.2494C125.554 14.5371 127.834 13.5492 130.229 13.4973C130.389 13.4876 130.549 13.5107 130.7 13.5653C130.85 13.6198 130.988 13.7046 131.105 13.8145C131.222 13.9243 131.315 14.0569 131.378 14.204C131.442 14.3512 131.475 14.5098 131.475 14.67C131.475 14.8303 131.442 14.9889 131.378 15.136C131.315 15.2832 131.222 15.4157 131.105 15.5256C130.988 15.6355 130.85 15.7203 130.7 15.7748C130.549 15.8294 130.389 15.8525 130.229 15.8428C128.451 15.8875 126.761 16.6251 125.519 17.8983C124.278 19.1715 123.583 20.8795 123.583 22.6578C123.583 24.4362 124.278 26.1442 125.519 27.4173C126.761 28.6905 128.451 29.4281 130.229 29.4728C130.389 29.4631 130.549 29.4863 130.7 29.5408C130.85 29.5954 130.988 29.6802 131.105 29.79C131.222 29.8999 131.315 30.0325 131.378 30.1796C131.442 30.3268 131.475 30.4853 131.475 30.6456C131.475 30.8059 131.442 30.9645 131.378 31.1116C131.315 31.2587 131.222 31.3913 131.105 31.5012C130.988 31.611 130.85 31.6958 130.7 31.7504C130.549 31.805 130.389 31.8281 130.229 31.8184Z" fill="#2C696D"/>
<path d="M151.292 40.7573H117.158L113.182 58.1015H147.311L151.292 40.7573Z" fill="#2C696D"/>
<path d="M194.832 43.4131H160.704L159.796 47.3639H193.924L194.832 43.4131Z" fill="#327D83"/>
<path d="M211.807 51.3447H158.901L157.997 55.2956H210.903L211.807 51.3447Z" fill="#327D83"/>
<path d="M165.769 98.3894L161.702 93.4057L162.903 92.4287L165.894 96.0955L176.907 85.2974L177.992 86.4034L165.769 98.3894Z" fill="white"/>
</svg>
