<svg width="20" height="21" viewBox="0 0 20 21" fill="none" xmlns="http://www.w3.org/2000/svg">
<path fill-rule="evenodd" clip-rule="evenodd" d="M9.38606 0.229164C9.74717 -0.0763879 10.2528 -0.0763879 10.6139 0.229164L19.6139 7.84447C20.0498 8.21334 20.1284 8.89684 19.7893 9.37111C19.4502 9.84538 18.822 9.93081 18.386 9.56194L17.9999 9.23524V18.4943C17.9999 19.696 17.1045 20.6701 15.9999 20.6701H3.99998C2.89542 20.6701 1.99999 19.696 1.99999 18.4943V9.23532L1.61398 9.56194C1.17803 9.93081 0.549761 9.84538 0.210693 9.37111C-0.128376 8.89684 -0.0498416 8.21334 0.386104 7.84447L9.38606 0.229164ZM8.99996 13.0548C8.44768 13.0548 7.99996 13.5419 7.99996 14.1427V20.6701H11.9999V14.1427C11.9999 13.5419 11.5522 13.0548 10.9999 13.0548H8.99996Z" fill="#95A4A6"/>
</svg>
