<svg width="22" height="18" viewBox="0 0 22 18" fill="none" xmlns="http://www.w3.org/2000/svg">
<path d="M0 9C0.94 3.88 5.427 0 10.819 0C16.211 0 20.697 3.88 21.638 9C20.698 14.12 16.211 18 10.819 18C5.427 18 0.941 14.12 0 9ZM10.819 14C12.1451 14 13.4169 13.4732 14.3545 12.5355C15.2922 11.5979 15.819 10.3261 15.819 9C15.819 7.67392 15.2922 6.40215 14.3545 5.46447C13.4169 4.52678 12.1451 4 10.819 4C9.49292 4 8.22115 4.52678 7.28347 5.46447C6.34578 6.40215 5.819 7.67392 5.819 9C5.819 10.3261 6.34578 11.5979 7.28347 12.5355C8.22115 13.4732 9.49292 14 10.819 14ZM10.819 12C10.0234 12 9.26029 11.6839 8.69768 11.1213C8.13507 10.5587 7.819 9.79565 7.819 9C7.819 8.20435 8.13507 7.44129 8.69768 6.87868C9.26029 6.31607 10.0234 6 10.819 6C11.6146 6 12.3777 6.31607 12.9403 6.87868C13.5029 7.44129 13.819 8.20435 13.819 9C13.819 9.79565 13.5029 10.5587 12.9403 11.1213C12.3777 11.6839 11.6146 12 10.819 12Z" fill="#9FA7AD"/>
</svg>
