<svg width="27" height="25" viewBox="0 0 27 25" fill="none" xmlns="http://www.w3.org/2000/svg">
<path fill-rule="evenodd" clip-rule="evenodd" d="M12.3192 0.277168C12.7932 -0.0923894 13.4568 -0.0923894 13.9308 0.277168L25.7432 9.48769C26.3154 9.93384 26.4185 10.7605 25.9735 11.3341C25.5284 11.9077 24.7038 12.0111 24.1317 11.5649L23.6249 11.1698V22.3684C23.6249 23.8218 22.4496 25 20.9999 25H5.24998C3.80024 25 2.62499 23.8218 2.62499 22.3684V11.1699L2.11835 11.5649C1.54617 12.0111 0.721562 11.9077 0.276534 11.3341C-0.168493 10.7605 -0.0654171 9.93384 0.506761 9.48769L12.3192 0.277168ZM11.8124 15.7895C11.0876 15.7895 10.5 16.3786 10.5 17.1053V25H15.7499V17.1053C15.7499 16.3786 15.1623 15.7895 14.4374 15.7895H11.8124Z" fill="#327D83"/>
</svg>
