<svg width="65" height="116" viewBox="0 0 65 116" fill="none" xmlns="http://www.w3.org/2000/svg">
<path d="M10.5452 104.704C10.5452 104.704 5.75239 106.212 4.73751 106.405C3.72263 106.599 0.631054 105.819 0.50786 106.992C0.384666 108.165 2.30297 109.297 5.31242 110.512C8.32187 111.726 11.6246 112.718 13.8656 112.618C16.1065 112.518 15.6783 108.101 15.8015 107.338C15.9247 106.575 10.5452 104.704 10.5452 104.704Z" fill="white" stroke="#263238" stroke-linecap="round" stroke-linejoin="round"/>
<path d="M6.88455 109.444C3.13594 107.896 1.38777 107.098 0.625144 106.717C0.555551 106.801 0.51449 106.906 0.507809 107.016C0.413947 108.242 2.30292 109.321 5.31237 110.536C8.32182 111.75 11.6246 112.741 13.8655 112.642C14.7044 112.601 15.1679 111.961 15.426 111.134C12.4938 111.156 9.58774 110.581 6.88455 109.444Z" fill="white" stroke="#263238" stroke-linecap="round" stroke-linejoin="round"/>
<path d="M39.6718 59.721L38.4164 60.4074V62.2318C38.4164 62.2318 12.2348 66.5964 11.8945 68.8785C11.5543 71.1605 10.5159 105.109 10.5159 105.109C10.5159 105.109 14.7397 109.656 15.649 108.629C16.5583 107.602 16.7929 104.311 16.7929 104.311L21.134 74.2403C21.134 74.2403 50.6243 76.9506 55.0769 75.5778C59.5294 74.2051 61.6941 68.2801 61.8056 65.5405C61.9171 62.8009 61.9229 61.5455 61.9229 61.5455L41.8306 58.8118L39.6718 59.721Z" fill="#327D83" stroke="#263238" stroke-linecap="round" stroke-linejoin="round"/>
<path d="M30.7725 105.93L30.5847 106.241C29.6377 107.753 28.5559 109.177 27.3524 110.494C25.4106 112.547 22.2193 114.26 22.3308 114.941C22.4422 115.621 24.6128 116.085 32.0279 113.803C35.3658 112.776 37.8473 112.776 38.1876 111.632C38.5278 110.488 35.7941 105.59 35.7941 105.59L30.7725 105.93Z" fill="white" stroke="#263238" stroke-linecap="round" stroke-linejoin="round"/>
<path d="M38.1876 111.609C38.2305 111.057 38.1294 110.503 37.8943 110.002C35.3871 111.194 32.7753 112.152 30.092 112.865C27.6663 113.536 25.1935 114.025 22.6945 114.325C22.4481 114.566 22.3074 114.771 22.3308 114.912C22.4423 115.598 24.6128 116.056 32.0279 113.774C35.3776 112.782 37.8474 112.782 38.1876 111.609Z" fill="white" stroke="#263238" stroke-linecap="round" stroke-linejoin="round"/>
<path d="M46.8639 64.6254C46.8639 64.6254 44.1243 62.2319 43.8955 63.5988C43.6667 64.9656 43.2092 65.3117 43.2092 65.3117C43.2092 65.3117 24.0437 67.6114 21.8849 68.9606C19.7261 70.3099 19.0338 72.1578 20.2892 74.8974C21.5446 77.637 29.9864 107.643 29.9864 107.643C30.8656 108.041 31.7838 108.345 32.726 108.553C33.9814 108.782 36.6036 107.526 36.6036 107.526C36.6036 107.526 36.2868 101.936 35.489 100.111C34.6912 98.2866 31.4236 77.2322 31.4236 77.2322C31.4236 77.2322 45.2741 77.285 49.9555 77.285C54.6369 77.285 59.7641 73.4073 60.7907 70.2102C61.8173 67.013 61.3773 66.3325 61.3773 66.3325" fill="#327D83"/>
<path d="M46.8639 64.6254C46.8639 64.6254 44.1243 62.2319 43.8955 63.5988C43.6667 64.9656 43.2092 65.3117 43.2092 65.3117C43.2092 65.3117 24.0437 67.6114 21.8849 68.9606C19.7261 70.3099 19.0338 72.1578 20.2892 74.8974C21.5446 77.637 29.9864 107.643 29.9864 107.643C30.8656 108.041 31.7838 108.345 32.726 108.553C33.9814 108.782 36.6036 107.526 36.6036 107.526C36.6036 107.526 36.2868 101.936 35.489 100.111C34.6912 98.2866 31.4236 77.2322 31.4236 77.2322C31.4236 77.2322 45.2741 77.285 49.9555 77.285C54.6369 77.285 59.7641 73.4073 60.7907 70.2102C61.8173 67.013 61.3773 66.3325 61.3773 66.3325" stroke="#263238" stroke-linecap="round" stroke-linejoin="round"/>
<path d="M31.4119 77.2377L30.749 73.6475" stroke="#263238" stroke-linecap="round" stroke-linejoin="round"/>
<path d="M53.1937 69.6701C53.561 70.182 53.8588 70.7403 54.0796 71.3303" stroke="#263238" stroke-linecap="round" stroke-linejoin="round"/>
<path d="M47.9785 65.7104C49.6669 66.4073 51.1928 67.4459 52.4604 68.7609" stroke="#263238" stroke-linecap="round" stroke-linejoin="round"/>
<path d="M52.3138 66.3559C54.0783 67.1643 55.5407 68.5118 56.4906 70.2043" stroke="#263238" stroke-linecap="round" stroke-linejoin="round"/>
<path d="M39.9534 31.7209C39.9534 31.7209 39.9534 31.8852 39.9241 32.1668C39.8243 33.78 38.0351 36.1794 39.1028 39.2064C41.5256 46.0349 41.0328 51.0506 40.8157 49.5899C41.156 51.8719 39.1028 56.7762 39.1028 58.3895C39.1028 60.0027 34.879 60.2256 44.4646 63.0826C54.0503 65.9395 57.3706 65.8104 59.7524 64.8953C62.1341 63.9801 63.8589 63.1823 64.0876 61.2464C64.3164 59.3105 62.2632 55.8845 62.1518 52.9162C62.0403 49.9478 61.6296 40.6613 58.7786 34.7304C55.9275 28.7995 48.3951 24.6872 48.3951 24.6872L39.9534 31.7209Z" fill="white" stroke="#263238" stroke-linecap="round" stroke-linejoin="round"/>
<path d="M54.9712 54.1183C55.4699 53.737 55.9333 53.3498 56.3616 52.945" stroke="#263238" stroke-linecap="round" stroke-linejoin="round"/>
<path d="M42.9451 60.8297C46.479 59.2767 49.8894 57.4568 53.1468 55.3857" stroke="#263238" stroke-linecap="round" stroke-linejoin="round"/>
<path d="M46.6235 60.1729C45.2679 60.8511 43.8493 61.3953 42.3879 61.7978" stroke="#263238" stroke-linecap="round" stroke-linejoin="round"/>
<path d="M48.4772 59.1693C48.4772 59.1693 48.1545 59.3688 47.6148 59.6621" stroke="#263238" stroke-linecap="round" stroke-linejoin="round"/>
<path d="M50.0552 44.0871L53.1351 40.3268" stroke="#263238" stroke-linecap="round" stroke-linejoin="round"/>
<path d="M38.8974 6.41898C38.1252 7.22494 37.4373 8.1075 36.8441 9.05298C36.3455 10.0385 36.2575 10.7542 35.4069 11.3995C34.5562 12.0448 32.7963 11.6283 32.8433 12.6432C32.8902 13.6581 33.9461 14.626 33.9461 14.626C33.9461 14.626 33.0897 20.8209 33.4123 21.8065C33.735 22.792 38.1699 22.9798 38.1699 22.9798L40.4285 30.3362L48.4009 24.9333L48.6121 22.792C48.8115 21.9238 50.2429 19.237 51.4279 17.219C52.6129 15.2009 52.085 9.88601 49.2222 7.59813C46.3594 5.31024 42.5697 5.54489 41.4023 5.46276C40.2349 5.38063 38.8974 6.41898 38.8974 6.41898Z" fill="white" stroke="#263238" stroke-linecap="round" stroke-linejoin="round"/>
<path d="M34.4624 15.8231C34.8389 16.1993 35.3138 16.4616 35.8327 16.5799C36.3516 16.6982 36.8933 16.6677 37.3956 16.4918" stroke="#263238" stroke-linecap="round" stroke-linejoin="round"/>
<path d="M37.8532 12.0977C37.6596 12.5494 37.3546 12.8486 37.1727 12.7723C36.9909 12.696 37.0026 12.2619 37.202 11.8102C37.4015 11.3585 37.7007 11.0593 37.8767 11.1356C38.0527 11.2119 38.0468 11.646 37.8532 12.0977Z" fill="#263238"/>
<path d="M37.5423 9.85663C37.5423 9.85663 39.2612 9.51638 39.5193 11.2176" stroke="#263238" stroke-linecap="round" stroke-linejoin="round"/>
<path d="M38.1406 22.9505L40.9037 22.8449L39.0088 25.1562L38.1406 22.9505Z" fill="#263238" stroke="#263238" stroke-linecap="round" stroke-linejoin="round"/>
<path d="M44.4469 20.0876L43.2502 19.7298L42.5404 20.8444" stroke="#263238" stroke-linecap="round" stroke-linejoin="round"/>
<path d="M43.7782 3.69705C43.7782 3.69705 45.5029 1.71422 43.4321 0.763867C41.3613 -0.186485 34.3158 1.53237 35.0725 4.62395C35.8293 7.71553 42.4055 8.10858 43.0332 8.14377C43.6609 8.17897 41.7778 8.85948 42.294 9.7981C42.8103 10.7367 44.0539 11.206 44.1185 12.2209C44.183 13.2358 42.9452 14.5968 43.5318 15.1893C44.1185 15.7818 45.0571 14.896 45.6555 14.6672C46.2538 14.4384 47.8906 16.0868 46.6 18.187C45.3094 20.2872 44.4411 20.0701 44.4411 20.0701C44.2894 20.4567 44.2644 20.8816 44.3699 21.2833C44.4753 21.6851 44.7057 22.0429 45.0278 22.3052C46.201 23.2966 48.5476 23.0033 49.1342 22.0412C49.7209 21.0791 50.7357 20.2109 52.8476 18.1342C54.9595 16.0575 55.9627 10.813 54.502 7.19342C53.0412 3.57387 46.4181 2.1014 43.7782 3.69705Z" fill="#263238" stroke="#263238" stroke-linecap="round" stroke-linejoin="round"/>
<path d="M48.3716 22.9621L37.5012 30.9697L38.1231 34.425L50.3603 25.4084L48.3716 22.9621Z" fill="white" stroke="#263238" stroke-linecap="round" stroke-linejoin="round"/>
<path d="M21.2337 69.6528L40.3815 65.4583L35.9055 62.8009L17.7373 66.8545L21.2337 69.6528Z" fill="white" stroke="#263238" stroke-linecap="round" stroke-linejoin="round"/>
<path d="M12.7099 51.4847L21.2338 69.6529L17.7374 66.8546L9.07277 49.8069L12.7099 51.4847Z" fill="#263238" stroke="#263238" stroke-linecap="round" stroke-linejoin="round"/>
<path d="M28.1091 61.9268L23.6976 63.0649L20.9639 67.0247C21.0736 67.1311 21.2045 67.2132 21.348 67.2657C21.4915 67.3183 21.6444 67.3401 21.7969 67.3298C22.2545 67.2535 23.4688 66.1858 23.4688 66.1858L26.666 65.3469C26.666 65.3469 24.9941 66.3383 24.9941 66.5671C24.9941 66.7959 25.2991 66.8722 26.0559 66.7959C26.8126 66.7197 28.643 65.036 28.643 65.036L29.8632 63.5108L28.1091 61.9268Z" fill="white" stroke="#263238" stroke-linecap="round" stroke-linejoin="round"/>
<path d="M40.0296 42.1161L37.7711 52.4174L28.1092 61.9268L30.3912 64.0563L38.4164 60.4074L38.9737 58.9584L40.9096 50.329L40.0296 42.1161Z" fill="white" stroke="#263238" stroke-linecap="round" stroke-linejoin="round"/>
<path d="M25.434 59.8501C25.434 59.8501 22.3542 60.3077 21.2161 60.3077C20.078 60.3077 17.3385 60.5365 16.8809 60.7653C16.4233 60.9941 14.2527 62.3609 14.3701 63.3875C14.4874 64.4142 16.4233 63.5049 16.4233 63.5049C16.8258 64.428 17.3232 65.3068 17.9075 66.1271C18.8168 67.3825 19.2744 66.925 21.0988 66.2445C22.9232 65.564 25.6628 63.5049 25.6628 63.5049L27.2644 62.0207L25.434 59.8501Z" fill="white" stroke="#263238" stroke-linecap="round" stroke-linejoin="round"/>
<path d="M52.2259 27.7725C52.2259 27.7725 47.5327 27.0862 45.8374 29.3682C43.8899 32.1205 42.6013 35.2838 42.0712 38.6136C41.725 41.5761 39.5604 47.5129 39.5604 47.5129L25.0528 59.5917L27.5636 63.3521C27.5636 63.3521 45.1627 55.1391 45.6086 54.5877C46.0544 54.0363 51.8797 38.9538 51.8797 38.9538" fill="white"/>
<path d="M52.2259 27.7725C52.2259 27.7725 47.5327 27.0862 45.8374 29.3682C43.8899 32.1205 42.6013 35.2838 42.0712 38.6136C41.725 41.5761 39.5604 47.5129 39.5604 47.5129L25.0528 59.5917L27.5636 63.3521C27.5636 63.3521 45.1627 55.1391 45.6086 54.5877C46.0544 54.0363 51.8797 38.9538 51.8797 38.9538" stroke="#263238" stroke-linecap="round" stroke-linejoin="round"/>
</svg>
